<svg xmlns="http://www.w3.org/2000/svg" xmlns:xlink="http://www.w3.org/1999/xlink" viewBox="0 0 459.51 454.22"><defs><linearGradient id="a" x1="278.33" x2="280.34" y1="137.95" y2="151.71" gradientUnits="userSpaceOnUse"><stop offset="0" stop-color="#010101" stop-opacity="0"/><stop offset=".47" stop-color="#010101" stop-opacity=".47"/><stop offset=".95" stop-color="#010101"/></linearGradient><linearGradient id="b" x1="288.63" x2="313.95" y1="108.07" y2="108.07" xlink:href="#a"/><linearGradient id="c" x1="263.39" x2="205.89" y1="155.04" y2="176.67" xlink:href="#a"/><linearGradient id="d" x1="272.18" x2="310.59" y1="300.94" y2="300.94" xlink:href="#a"/><linearGradient id="e" x1="297.78" x2="338.07" y1="308.38" y2="308.38" xlink:href="#a"/><linearGradient id="f" x1="315.92" x2="238.95" y1="180.68" y2="166.46" xlink:href="#a"/><linearGradient id="g" x1="304.54" x2="376.25" y1="183.55" y2="200.24" xlink:href="#a"/><linearGradient id="h" x1="298.4" x2="354.44" y1="103.34" y2="103.34" xlink:href="#a"/><linearGradient id="i" x1="277.87" x2="276.01" y1="373.43" y2="412.38" xlink:href="#a"/><linearGradient id="j" x1="320.09" x2="320.09" y1="381.44" y2="425.48" xlink:href="#a"/></defs><title>Take a Note 1</title><path fill="#11999e" d="M444.42 338.53c-4 10.77-9 21.5-17.1 29.65-6.68 6.7-14.78 11.06-23.6 14.22-14.57 5.2-31 7.18-46.2 11a158.67 158.67 0 0 0-66.64 35.47c-7.6 6.82-14.76 14.53-24 18.84-7.18 3.4-15.22 4.5-23.12 5.25a292.68 292.68 0 0 1-149.34-25.5c-13-6-25.85-13.2-35.14-24.13-6.16-7.25-10.47-15.78-14.5-24.38-.52-1.05-1-2.07-1.47-3.1-17.84-38.23-35.83-77.22-41.6-119s2.55-87.6 31.53-118.25c19.82-21 47.5-33.25 67.28-54.22 17.3-18.38 27.7-42.52 45.9-60 46-44.4 104-18 154.6 1 53.5 20.08 99.9 59.16 127.87 109.08 34.38 61.5 40.24 138.14 15.55 204.07z" opacity=".24" style="isolation:isolate"/><path fill="#11999e" d="M403.7 382.4c-14.55 5.2-31 7.18-46.17 11a158.67 158.67 0 0 0-66.65 35.47c-7.6 6.82-14.76 14.53-24 18.84-7.18 3.4-15.22 4.5-23.12 5.25a292.68 292.68 0 0 1-149.34-25.5c-13-6-25.85-13.2-35.14-24.13-6.16-7.25-10.47-15.78-14.5-24.38q40.66.5 81.32.86 81 .7 162 .86 40.1.1 80.23.06c7.35-.03 25.33-.98 35.38 1.68zM121.32 385.83c-7.9.65-17.93 3.5-18.5 11.4 31.4 7.15 63.76 9 96 10.56 14.4.7 28.84 1.34 43.24.42a199.2 199.2 0 0 0 66.05-15.87c-62.3-5.66-124.2-11.65-186.78-6.52z" opacity=".45" style="isolation:isolate"/><path fill="#11999e" d="M211 132.53l12.6-2.5s1.08-.14.77 1.25l-17.93 4.8-3.32.84-1.47-2.63z"/><path fill="url(#a)" d="M276.9 142.07l12.58-2.5s1.1-.14.78 1.25l-17.93 4.8-3.32.84-1.46-2.63z" transform="translate(-65.89 -9.54)"/><path fill="#606161" d="M228.5 70.84c-2.42 3.6-2.8 8.28-2 12.56a40 40 0 0 1 .8 4.6c.35 5.6-3.43 10.62-4.3 16.17-.86 5.38 1.14 10.9 4.28 15.35s7.36 8 11.53 11.53c4-4.18 5.38-10.2 5.5-16s-.92-11.48-1.08-17.24a25.6 25.6 0 0 1 .84-8.13c1.43-4.75 5-9.32 3.8-14.12-.75-2.8-3-4.88-5.13-6.8-2.43-2.2-4.14-3.3-7.55-2.54a11 11 0 0 0-6.67 4.64z"/><path fill="url(#b)" d="M294.4 80.38c-2.43 3.6-2.82 8.28-2 12.56a40 40 0 0 1 .8 4.6c.34 5.6-3.44 10.62-4.32 16.17-.85 5.4 1.15 10.9 4.3 15.36s7.35 8 11.52 11.53c4-4.2 5.37-10.22 5.48-16s-.9-11.5-1.07-17.25a25.6 25.6 0 0 1 .85-8.14c1.43-4.74 5-9.3 3.8-14.1-.75-2.8-3-4.9-5.13-6.82-2.43-2.2-4.14-3.3-7.55-2.53a11 11 0 0 0-6.67 4.63z" transform="translate(-65.89 -9.54)"/><path fill="#ba816c" d="M229.54 172.34l-50-18.27 2.84 8.4s37 27.6 45.8 26 1.36-16.13 1.36-16.13z"/><path fill="#fff" d="M177.56 152.85l-11.68-27.34a5.6 5.6 0 0 1 4.23-7.72l20.48-3.44a5.6 5.6 0 0 1 6.2 3.58l19.74 53.34a5.62 5.62 0 0 1-4.43 7.5l-18.22 2.7a5.6 5.6 0 0 1-6-3.43z"/><path fill="#11999e" d="M175.77 153.18l-11.07-25.92a5.32 5.32 0 0 1 4-7.34l19.4-3.26a5.33 5.33 0 0 1 5.88 3.4l18.72 50.58a5.3 5.3 0 0 1-4.2 7.1l-17.26 2.6a5.33 5.33 0 0 1-5.7-3.26z"/><path fill="url(#c)" d="M241.66 162.72L230.6 136.8a5.32 5.32 0 0 1 4-7.34l19.4-3.26a5.33 5.33 0 0 1 5.87 3.4l18.72 50.58a5.3 5.3 0 0 1-4.2 7.1l-17.27 2.6a5.33 5.33 0 0 1-5.7-3.26z" transform="translate(-65.89 -9.54)"/><path fill="none" stroke="#11999e" stroke-width="1.14" stroke-miterlimit="10" d="M182.83 161.04a3.13 3.13 0 1 1-5.07-2.45M185.92 168.6a3.13 3.13 0 1 1-5.07-2.44M189 176.2a3.13 3.13 0 1 1-5.06-2.47" stroke-linecap="round"/><path fill="#11999e" d="M235.76 124.85l-23.73 43.1 14.82 6.4s11.5-45.78 8.9-49.5z"/><path fill="#ba816c" d="M271.1 375.7l.86 11.85a11.57 11.57 0 0 1-6.82 1.6c-3.62-.47-10.83-7.88-12.57-7.52l.06-3.53M228.9 367.22l.84 11.86a11.57 11.57 0 0 1-6.82 1.6c-3.6-.47-10.83-7.88-12.57-7.52l.07-3.53"/><path fill="#606161" d="M231.9 216.56s6.34 84.46 7.05 85.85 13.6 76.86 13.6 76.86 9 5.77 19.63-1.15l-8.4-77.72 3.9-74.13s-30.34-12.46-35.8-9.7zM220.24 209.62s-14.46 80.5-13.94 82 3.55 79.4 3.55 79.4 8.12 5.46 19.55 0l1.8-78.17 13.5-73s-18.7-12.26-24.46-10.23z"/><path fill="url(#d)" d="M286.13 219.16s-14.46 80.5-13.94 82 3.54 79.4 3.54 79.4 8.12 5.46 19.55 0l1.8-78.17 13.5-73s-18.7-12.27-24.47-10.24z" transform="translate(-65.89 -9.54)"/><path fill="#606161" d="M231.9 216.56s6.34 84.46 7.05 85.85 13.6 76.86 13.6 76.86 9 5.77 19.63-1.15l-8.4-77.72 3.9-74.13s-30.34-12.46-35.8-9.7z"/><path fill="url(#e)" d="M297.78 226.1s6.35 84.46 7.06 85.85 13.6 76.85 13.6 76.85 9 5.77 19.63-1.15l-8.4-77.73 3.9-74.13s-30.34-12.47-35.8-9.7z" transform="translate(-65.89 -9.54)"/><path fill="#fff" d="M273.95 118.23s-15.23-7.62-20.77-6.93c-10.08 1.26-14.2 11.73-17 20.14-9.46 28.54-6.58 57.6-14.17 86.5 0 0 2.08 10.37 15.24 12.45s7.6-64.4 12.46-77.55 29.8-31.85 24.25-34.62z"/><path fill="#11999e" d="M250.93 111.8s-11.6 3-14.36 7.8c0 2.6-2.95 7.1-3.62 9.85-3.28 13.53-8.24 26.47-12.94 39.4a128.1 128.1 0 0 0-6.33 27.4c-.6 4.73-.55 9.66-1.33 14.35s-.2 5.66 3.38 8.68c.6.5 10.17 8.05 10.36 6.85q4.26-25.86 8.5-51.72c1.28-7.8 2.1-15.2 4.26-22.9a180.86 180.86 0 0 1 7.93-22c.56-1.32 7.87-18.63 4.16-17.7zM271.74 120.85c-4.08-3-7.8-1.9-11.4 1.78-2.76 2.86-4.4 6.6-5.93 10.27a199.94 199.94 0 0 0-10.77 32.56c-1.12 5-2.48 9.7-3.13 14.87-.7 5.52-1.18 11.07-2.1 16.56-1.24 7.3-3.22 15-3.22 22.4 0 9 .7 17.3 14.54 18.7s22.46.27 22.46.27 11.47-86.14 9.4-101.37c-.5-3.56-.76-7.22-3.28-10a59.38 59.38 0 0 0-6.05-5.7q-.25-.17-.5-.35z"/><path fill="url(#f)" d="M316.82 121.35s-11.6 3-14.36 7.8c0 2.58-2.95 7.1-3.62 9.84-3.28 13.52-8.24 26.46-12.94 39.38a128.1 128.1 0 0 0-6.34 27.4c-.6 4.74-.55 9.67-1.33 14.36s-.2 5.66 3.38 8.68c.62.5 10.18 8.05 10.37 6.85q4.26-25.86 8.5-51.72c1.28-7.8 2.1-15.22 4.26-22.9a180.86 180.86 0 0 1 7.93-22c.56-1.33 7.87-18.64 4.16-17.7z" transform="translate(-65.89 -9.54)"/><path fill="url(#g)" d="M337.63 130.4c-4.08-3-7.8-1.92-11.4 1.77-2.76 2.86-4.4 6.6-5.93 10.27A199.94 199.94 0 0 0 309.52 175c-1.12 5-2.48 9.7-3.13 14.87-.7 5.52-1.2 11.07-2.12 16.56-1.23 7.3-3.2 15-3.2 22.4 0 9 .68 17.3 14.53 18.7s22.47.28 22.47.28 11.47-86.13 9.4-101.36c-.5-3.56-.76-7.22-3.28-10a59.38 59.38 0 0 0-6.06-5.7q-.25-.17-.5-.35z" transform="translate(-65.89 -9.54)"/><path fill="#ba816c" d="M234.7 72.66c-3.9 6.24-4.3 14.94-4.73 22.08-.38 6.16-1.67 16.55 6.47 18.6 1.72.45 3.53.07 5.3.18a1.54 1.54 0 0 1 .7.16 1.68 1.68 0 0 1 .6 1.22 22.44 22.44 0 0 0 1.16 4.72c1.22 2.87 4.75 4.84 7.7 3 2.55-1.55 3.26-6.2 4-8.8 1.6-5.58-3.28-12.8-4.1-18.48-1.38-9.7-2.76-20.77-7.6-24.23-4.34-3.04-7.37-1.84-9.5 1.56z"/><path fill="#606161" d="M233.6 69.94c1.9 3.42 5.7 6.8 7.73 9.25 3.78 4.55 8.2 9.1 9.28 15.15.72 3.94-.2 8-.73 11.94a58.44 58.44 0 0 0-.48 6.86 10.57 10.57 0 0 0 .38 3.55c1.4 4.17 5.56 5.7 9.64 6.15 3.4.38 6.86.1 10.24.67a21.32 21.32 0 0 1 15 10.67 16.65 16.65 0 0 0 1.54-19.3c-3.27-5.2-9.46-8.56-11-14.48s1.93-11.6 2.84-17.54c1.13-7.22-1.78-14.75-6.88-20s-12.2-8.26-19.43-9.23a19.45 19.45 0 0 0-7.9.27 17.07 17.07 0 0 0-6.32 3.58c-2.55 2.2-4.75 5.14-4.92 8.5a7.56 7.56 0 0 0 1.03 3.94z"/><path fill="url(#h)" d="M299.5 79.48c1.88 3.42 5.7 6.8 7.72 9.25 3.78 4.56 8.2 9.1 9.28 15.16.7 3.93-.22 8-.74 11.93a58.44 58.44 0 0 0-.48 6.87 10.57 10.57 0 0 0 .4 3.55c1.38 4.16 5.55 5.7 9.63 6.14 3.4.37 6.87.1 10.25.66a21.32 21.32 0 0 1 15 10.67 16.65 16.65 0 0 0 1.54-19.3c-3.28-5.18-9.47-8.55-11-14.47s1.92-11.6 2.83-17.54c1.13-7.22-1.78-14.75-6.88-20s-12.2-8.26-19.43-9.23a19.45 19.45 0 0 0-7.9.26 17.07 17.07 0 0 0-6.32 3.58c-2.56 2.2-4.76 5.14-4.93 8.5a7.56 7.56 0 0 0 1.03 3.94z" transform="translate(-65.89 -9.54)"/><path fill="#ba816c" d="M281.65 195.56c-11.42-1.8-57.8-47-57.8-47s5.17-8 6.1-7.8c.56.13 22.9 14 40.47 25l21.1 13.16a5.2 5.2 0 0 1 2.25 3.6c1.16 5.57-3.2 14.46-12.12 13.04z"/><path fill="#11999e" d="M295.42 175.46c0 2.54 0 5.2-1.42 7.34a1.66 1.66 0 0 0-.23-.23 5.2 5.2 0 0 0-2.24-3.6l-21.1-13.2c-3.43-9.76-7-19.87-6.76-29.88a11.75 11.75 0 0 1 4.4-9.23c10.95-8.17 22.54 13.33 24.8 21.44 2.52 8.83 2.55 18.12 2.55 27.36zM244.7 198.1l22.58 13-1.58 6.65-22.77-13.94 1.77-5.7zM217.55 205.77c.32-.7 9.37-7.67 9.37-7.67v-5.7l-9.37 6.7z"/><path fill="#ba816c" d="M218.8 132.37a28 28 0 0 0-8.85-.94c-1.63 0-3.57.16-4.42 1.55a3.33 3.33 0 0 0 .3 3.5 11.32 11.32 0 0 0 2.65 2.54 15 15 0 0 1 2.92 2.88c.62.86 1.1 1.83 1.77 2.64 1.8 2.14 4.76 2.84 7.54 3.2a8.93 8.93 0 0 1 3.9 1.05 2.82 2.82 0 0 0 1 .54 1.76 1.76 0 0 0 .94-.13c3.67-1.3 5.14-5.94 2.6-8.83-2.86-3.3-6.1-6.6-10.34-8zM182.1 162.86c-3.45-.7-7.13-1.54-9.6-4.08a16.32 16.32 0 0 1-3-4.84c-.65-1.46-1.3-2.94-1.9-4.43a3.15 3.15 0 0 1 .8-4.24c1.44-1.52 3.22-3.1 5.3-3a7.3 7.3 0 0 1 2.45.73c2.84 1.2 5.92 2.64 7.24 5.43a12.28 12.28 0 0 1 .9 4.3q.26 3.27.38 6.55c.08 2.06-.15 4.1-2.57 3.58z"/><path fill="#11999e" d="M194.5 380.46a4.53 4.53 0 0 0-2.22 2.7 3.2 3.2 0 0 0 1.78 3.14 9.07 9.07 0 0 0 3.72.88 169.86 169.86 0 0 0 25.62.25c2-.13 4.16-.4 5.44-1.92s1.14-4.05.82-6.17c-.16-1-.45-2.22-1.42-2.57a3.2 3.2 0 0 0-2 .18 13.8 13.8 0 0 1-8.72-.48c-2.42-1-4.55-3.15-7.27-3.16-5.14-.08-11.73 4.3-15.76 7.16zM237.6 388.06a4.57 4.57 0 0 0-2.2 2.7 3.23 3.23 0 0 0 1.78 3.15 9.23 9.23 0 0 0 3.72.88 169.86 169.86 0 0 0 25.62.25c2-.13 4.16-.4 5.44-1.92s1.14-4.05.82-6.17c-.16-1-.45-2.22-1.42-2.57a3.2 3.2 0 0 0-2 .18 13.8 13.8 0 0 1-8.72-.48c-2.42-1-4.55-3.15-7.27-3.16-5.12-.03-11.73 4.34-15.77 7.16z"/><path fill="url(#i)" d="M260.38 390a4.53 4.53 0 0 0-2.2 2.7 3.2 3.2 0 0 0 1.77 3.14 9.07 9.07 0 0 0 3.72.88 169.86 169.86 0 0 0 25.62.25c2-.13 4.15-.4 5.43-1.92s1.14-4.06.82-6.18c-.16-1-.45-2.22-1.42-2.57a3.2 3.2 0 0 0-2 .18 13.8 13.8 0 0 1-8.72-.48c-2.4-1-4.54-3.15-7.26-3.16-5.14-.08-11.73 4.3-15.76 7.16z" transform="translate(-65.89 -9.54)"/><path fill="url(#j)" d="M303.5 397.6a4.57 4.57 0 0 0-2.2 2.7 3.23 3.23 0 0 0 1.77 3.15 9.23 9.23 0 0 0 3.72.87 169.86 169.86 0 0 0 25.6.25c2-.13 4.17-.4 5.45-1.92s1.14-4.06.82-6.18c-.16-1-.45-2.22-1.42-2.57a3.2 3.2 0 0 0-2 .18 13.8 13.8 0 0 1-8.72-.48c-2.42-1-4.55-3.15-7.27-3.16-5.12-.03-11.73 4.34-15.77 7.16z" transform="translate(-65.89 -9.54)"/><path fill="none" stroke="#11999e" stroke-width="1.14" stroke-miterlimit="10" d="M170.47 130.75a3.13 3.13 0 1 1-5.07-2.46M173.56 138.32a3.13 3.13 0 1 1-5.07-2.45" stroke-linecap="round"/></svg>