<svg xmlns="http://www.w3.org/2000/svg" xmlns:xlink="http://www.w3.org/1999/xlink" viewBox="0 0 373.29 341.39"><defs><linearGradient id="a" x1="123.21" x2="128.41" y1="452.53" y2="291.2" gradientUnits="userSpaceOnUse"><stop offset=".01"/><stop offset="1" stop-opacity="0"/></linearGradient><linearGradient id="b" x1="222.73" x2="213.63" y1="294.65" y2="-171.11" gradientUnits="userSpaceOnUse"><stop offset=".01"/><stop offset=".15" stop-opacity=".26"/><stop offset="1" stop-opacity="0"/></linearGradient><linearGradient id="c" x1="245.42" x2="55.31" y1="122.25" y2="162.13" xlink:href="#a"/><linearGradient id="d" x1="91.11" x2="128.15" y1="228.78" y2="230.81" xlink:href="#a"/><linearGradient id="e" x1="134.14" x2="139.79" y1="194.49" y2="194.8" xlink:href="#a"/><linearGradient id="f" x1="114.79" x2="131.92" y1="193.99" y2="194.93" xlink:href="#a"/><linearGradient id="g" x1="135.25" x2="147.84" y1="167.8" y2="165.25" xlink:href="#a"/><linearGradient id="h" x1="84.71" x2="125.99" y1="195.82" y2="165.66" xlink:href="#a"/><linearGradient id="i" x1="96.11" x2="82.74" y1="101.56" y2="96.57" xlink:href="#a"/><linearGradient id="j" x1="132.98" x2="115.63" y1="108.66" y2="85.46" xlink:href="#a"/><linearGradient id="k" x1="111.44" x2="104.03" y1="114.32" y2="115.87" xlink:href="#a"/><linearGradient id="l" x1="109.64" x2="96.71" y1="175.51" y2="169.39" xlink:href="#a"/><linearGradient id="m" x1="167.47" x2="198.4" y1="112.35" y2="172.19" xlink:href="#a"/><linearGradient id="n" x1="167.38" x2="174.79" y1="165.19" y2="179.51" xlink:href="#a"/></defs><title>Teacher</title><path fill="#11999e" d="M161.55 339.38c57.14-1.72 117-4.18 166.38-32.93 23.47-13.66 45.26-36.8 43.47-63.88-1.77-26.78-25-46.07-43.28-65.74a223.2 223.2 0 0 1-53.78-102.06c-6.62-29.34-31.77-58.1-60-68.47-23.9-8.78-50.4-7.18-75.44-2.48-13.78 2.6-27.5 6.12-40.12 12.2-40.64 19.6-64.44 62.68-79.5 105.2-20.52 58-29.1 124.16-3.2 180 4.15 8.93 9.27 17.65 16.8 24 11.4 9.5 26.8 12.4 41.54 14.14 32.8 3.82 54.12 1 87.13.02z" opacity=".18" style="isolation:isolate"/><ellipse cx="127.34" cy="324.47" fill="url(#a)" rx="88.14" ry="16.91"/><path fill="#11999e" d="M64.6 16.38h308.7v181.2H64.6z"/><path fill="url(#b)" d="M74.2 25.45h289.7v161.8H74.2z"/><path fill="url(#c)" d="M158.65 200.8s10.84-20.82 16.48-30.36 6.33-15.88 6.33-15.88l-14.08 6.24s-6 30.25-11.6 22.42-1-8.77-1-8.77-.42-10.62-1-13.87-5.67-21.36-12-21.94-7.8-2-7.8-2 .88-4.63 2.6-4.92a28.4 28.4 0 0 0 4.93-1.73l2.9-9 .3-8.4s1.14-5.2 2.3-6.36 4.33-18.43-4.77-21.68-18.87 15-18.87 15l-14.5 15.55 3 27.6A16.6 16.6 0 0 0 99.42 155c-2.8 10.66-6.27 32.87-6.27 32.87l1.46 5.64.7 6z" transform="translate(-19.71 -3.39)"/><path fill="#11999e" d="M91.63 317.34a15.33 15.33 0 0 1-.9 3.5 17.12 17.12 0 0 1-3.57 6 10.63 10.63 0 0 1-6.1 3.3 5.12 5.12 0 0 1-3.55-.62 5.35 5.35 0 0 1-1.56-1.74 7.1 7.1 0 0 1-1-2.84c-.2-1.9.6-3.76 1.38-5.5l2.87-6.35a7.46 7.46 0 0 1 1.3-2.18 6.23 6.23 0 0 1 2.34-1.43 10 10 0 0 1 4.2-.84c1.54.08 3.4.77 4 2.25a14.08 14.08 0 0 1 .6 6.44zM97.7 308.82a11 11 0 0 0-.82 7.77 38.2 38.2 0 0 1 1.25 4.15 14.6 14.6 0 0 1 0 3.17 1.7 1.7 0 0 0 .32 1.35 1.16 1.16 0 0 0 1.5-.08 3.35 3.35 0 0 0 .84-1.42l1.23-3.18c.08-.2.2-.44.4-.48a.7.7 0 0 1 .5.18 60.1 60.1 0 0 0 4.9 3.54 10.63 10.63 0 0 0 5.7 1.7 14.74 14.74 0 0 0 4.88-1.36c.92-.37 1.95-.85 2.23-1.8a2.26 2.26 0 0 0-.57-2.05 6.94 6.94 0 0 0-1.78-1.34 64.7 64.7 0 0 1-9.28-6.85 7.17 7.17 0 0 0-1.75-1.25 9.26 9.26 0 0 0-2.63-.48 11.2 11.2 0 0 1-4.8-1.78c-.53-.4-1.75-.58-2.13.18z"/><path fill="#bb826c" d="M81.13 311c-.8 2.32-1.92 4.6-2.08 7.04a3.46 3.46 0 0 0 .3 1.9 3.15 3.15 0 0 0 2.47 1.4 7.5 7.5 0 0 0 6.7-3.44 15.17 15.17 0 0 0 2.3-7.48c.22-2.63.06-5.3.4-7.9 4.35-33.55 3.27-42.23 3-43.2-.5-2-2.8-2.87-4.8-3.2-2.2-.34-7.16-.3-7.47 2.3-.34 2.9 0 5.23.15 8.16.25 6.74.3 40.7-.97 44.4zM99.8 271.6c-.05 3.46-.37 6.9-.6 10.34-.6 8.42-.7 16.88-.8 25.32a12.53 12.53 0 0 0 .38 4.07 11.25 11.25 0 0 0 2.56 3.84 9.35 9.35 0 0 0 2.6 2.28 2.8 2.8 0 0 0 3.14-.25 4.1 4.1 0 0 0 .87-3.68 36.47 36.47 0 0 0-1.2-3.76c-.66-2.22 7.28-38.63 6.6-50.72a2.7 2.7 0 0 0-.4-1.5c-.23-.3-2.15.17-2.5 0a12.28 12.28 0 0 0-5.54-.8c-1.04.1-3.73.27-4.53 1.15-.94 1.04-.56 4.93-.58 6.32-.03 2.5.06 4.95 0 7.4z"/><path fill="#3f3d56" d="M77.52 225.3c.77 11.1 2.42 22.2 1.92 33.3a2.38 2.38 0 0 0 .3 1.6 2.7 2.7 0 0 0 1 .78c2.35 1.15 5.23 1.23 8 1.3l22.24.43c1.33 0 2.9 0 3.64-.93a2.86 2.86 0 0 0 .5-1.33q4.5-22.92 7.1-46.05c.88-7.86 1.56-16-1.5-23.44-10.65 1.75-18.92.2-29.74-.5-3.83-.26-7.84 2.45-11.17 13.76a63 63 0 0 0-2.28 21.08z"/><path fill="url(#d)" d="M118.24 265.68l14.62.3a9.47 9.47 0 0 1-2.13.14l-22.25-.44c-2.74-.05-5.63-.14-8-1.3a2.7 2.7 0 0 1-1-.77 2.53 2.53 0 0 1-.3-1.6c.5-11.1-1.2-22.2-1.9-33.3a63 63 0 0 1 2.32-21.07c3.33-11.3 7.34-14 11.17-13.77 2.33.15 4.54.35 6.68.54-2.83 1.25-5.64 4.93-8.1 13.23A62.78 62.78 0 0 0 107 228.7c.72 11.1 2.42 22.2 1.9 33.3a2.52 2.52 0 0 0 .3 1.6 2.82 2.82 0 0 0 1.06.8c2.35 1.14 5.23 1.23 7.98 1.28z" transform="translate(-19.71 -3.39)"/><path fill="url(#e)" d="M140.78 195.16c-1.95 0-3.87 0-5.8-.15 1.77-.12 3.6-.32 5.48-.63.1.26.22.53.32.8z" transform="translate(-19.71 -3.39)"/><path fill="url(#f)" d="M135 195a107.65 107.65 0 0 1-17.58-.6 6.46 6.46 0 0 1 3.07-.55c5.23.36 9.88.9 14.5 1.15z" transform="translate(-19.71 -3.39)"/><path fill="#11999e" d="M130.34 159.82c.8 3.57.9 7.26 1.58 10.85.8 4.12 2.4 8.13 2.38 12.33a5.54 5.54 0 0 1-.25 1.86 4.36 4.36 0 0 1-2.42 2.42c-3 1.32-6.7-.26-8.73-2.86s-2.77-6-3.27-9.22c-1.36-8.9-1.4-17.9-1.42-26.9 0-1.67-6.2-9.27-4.17-9.83s9.6 6.87 10.5 8.33a43.3 43.3 0 0 1 5.8 13.02z"/><path fill="url(#g)" d="M150.83 190.86c-2.9.95-6.3-.6-8.22-3.05-2-2.6-2.76-6-3.26-9.2-1.36-8.9-1.4-17.93-1.4-26.9 0-1.68-6.24-9.28-4.2-9.85.74-.2 2.1.56 3.6 1.68 1 2.48 5.7 16.15 5.7 17.37 0 9-1.3 8.8.06 17.7.5 3.25 1.23 6.6 3.27 9.2a9 9 0 0 0 4.46 3.06z" transform="translate(-19.71 -3.39)"/><path fill="#11999e" d="M80.5 142.28a8 8 0 0 0-2 2.9c-.7 2.13.17 4.45 1.22 6.43 2.14 4 5 7.6 7.54 11.42s1.83 6.85 2 11.4c.22 5-4.57 12.33-5.53 17.24a7.36 7.36 0 0 0-.14 2.68c.24 1.34 6.6 1.17 7.7 2a15 15 0 0 0 7 2.67 28.4 28.4 0 0 0 16.86-2.2c2.57-1.25 5-3.1 6.08-5.77a16.73 16.73 0 0 0 .67-6.47c-.07-4.54-3.43-8.67-1.4-12.74 1.06-2.13 2.6-4 3.57-6.2a14.1 14.1 0 0 0-.67-12.7c-1.2-2-2.9-3.74-3.86-5.88-1.28-2.8-1.32-6.3-3.54-8.43-1.84-1.77-4.63-2-7.18-2.2-3.32-.2-3-1-6.34-1.22-2.75-.18-5.36-.74-8.07-.25a26.17 26.17 0 0 0-7.57 2.64c-1.1.58-6.32 3.32-6.32 4.7z"/><path fill="url(#h)" d="M130.72 201.78a30.1 30.1 0 0 1-12.7.62 15.12 15.12 0 0 1-7-2.66c-1.1-.84-7.46-.67-7.7-2a7.36 7.36 0 0 1 .13-2.68c1-4.9 5.75-12.23 5.53-17.23-.2-4.56.46-7.6-2-11.42s-5.4-7.4-7.55-11.4c-1.06-2-1.93-4.3-1.2-6.43.37-1.12 2.3-5.08 8.3-7.62a36.54 36.54 0 0 1 7.6-2.64 17.55 17.55 0 0 1 4.8-.05c-1.4.5-2.77 1.1-4.14 1.68-6 2.55-7.95 6.5-8.34 7.63-.72 2.12.15 4.44 1.2 6.42 2.15 4 5 7.58 7.55 11.4s1.83 6.86 2 11.4c.22 5-4.56 12.33-5.52 17.25a7.35 7.35 0 0 0-.14 2.68c.25 1.35 6.62 1.18 7.7 2a15.22 15.22 0 0 0 7 2.66 33.3 33.3 0 0 0 4.48.42z" transform="translate(-19.71 -3.39)"/><path fill="#fff" d="M101.06 145.33a19.6 19.6 0 0 0 3.6 2.18c1.2.63 2.43 1.2 3.66 1.77a.72.72 0 0 0 .47.1.66.66 0 0 0 .32-.27 4.3 4.3 0 0 0 .3-4c-.46-1.32-1.26-2.5-1.8-3.8a14.18 14.18 0 0 0-1.78-3.86 8.43 8.43 0 0 0-2.8-1.9c-1.62-.82-5-2.38-6.17-.1-1 1.87.48 4.93 1.4 6.56a11.8 11.8 0 0 0 2.8 3.33z"/><path fill="#3f3d56" d="M68.9 87.6a13.24 13.24 0 0 0-4.6 6.06c-1.42 3.38-2 7.44-.12 10.58a8.78 8.78 0 0 0 7.93 4 11.43 11.43 0 0 0 8-4.26c2.73-3.3 5.62-11 2.5-14.9-2.9-3.58-10.2-3.83-13.7-1.47z"/><path fill="url(#i)" d="M88.6 91a13.24 13.24 0 0 0-4.6 6.05c-1.4 3.38-2 7.44-.1 10.58a8.78 8.78 0 0 0 7.92 4 11.43 11.43 0 0 0 8-4.26c2.72-3.3 5.6-11 2.48-14.9-2.88-3.58-10.2-3.83-13.7-1.47z" transform="translate(-19.71 -3.39)"/><path fill="#3f3d56" d="M90.6 80.66a10.17 10.17 0 0 0-3.37.9 19.43 19.43 0 0 0-9.12 7.47 25.47 25.47 0 0 0-2.8 7.24 25.16 25.16 0 0 0-.75 11 25.66 25.66 0 0 0 3 7.34 21.35 21.35 0 0 0 2.23 3.35 21.9 21.9 0 0 0 4.5 3.66 15.65 15.65 0 0 0 4.64 2.4c4.08 1.08 8.37-1 11.65-3.62a27.45 27.45 0 0 0 8-10.17 21.56 21.56 0 0 0 1.55-12.73 27.85 27.85 0 0 0-1.85-5.6c-1.56-3.6-3.6-6.3-7.46-7.4-3.58-1.02-6.26-4.06-10.2-3.8z"/><path fill="#bb826c" d="M119.44 115.72c-.6 4.3-2.53 8.73-6.33 10.8-2 1.08-4.45 1.54-5.78 3.36-1.5 2-.93 4.83-.68 7.33a2.83 2.83 0 0 1-.1 1.34 2.7 2.7 0 0 1-1.8 1.27 17.1 17.1 0 0 1-6.32.76 1.78 1.78 0 0 1-1.92-1.66c-.8-3-.6-6.3-1.75-9.24a42.4 42.4 0 0 0-2.4-4.45 34.55 34.55 0 0 1-3.5-12.87 79.84 79.84 0 0 1-.34-13.3 12.2 12.2 0 0 1 .7-3.9 12.36 12.36 0 0 1 2.3-3.4 19.13 19.13 0 0 1 6.1-5.16 12.8 12.8 0 0 1 9.9 0 20.48 20.48 0 0 1 8 6.1c5.22 6.2 5 15.4 3.94 23.05z"/><circle cx="98.96" cy="109.15" r="7.52" fill="#fff" opacity=".46"/><circle cx="115.11" cy="107.86" r="6.96" fill="#fff" opacity=".46"/><path fill="#3f3d56" d="M99.52 76.24a20.7 20.7 0 0 1 12.28-.94c5.43 1.24 10.54 5 12.1 10.4a15.15 15.15 0 0 1-.43 9 25.87 25.87 0 0 1-4.6 7.87.67.67 0 0 1-.4.28c-.2 0-.37-.13-.52-.26a8.46 8.46 0 0 0-3.4-1.53c-6.16-1.82-11.9-4.78-17.75-7.47-1.38-.63-3.05-1.24-4.33-.42A4.46 4.46 0 0 0 90.9 96a55.2 55.2 0 0 0-1.83 12 29.7 29.7 0 0 1-4.23-8 21.88 21.88 0 0 1-1.15-7.32c0-1.77 0-3.68 1.05-5.12s2.48-1 4-1.6c1.2-.5 1.75-2.25 2.48-3.25a19.52 19.52 0 0 1 8.3-6.46z"/><path fill="url(#j)" d="M119.23 79.63a20.7 20.7 0 0 1 12.28-.94c5.44 1.23 10.55 5 12.1 10.38a15.15 15.15 0 0 1-.42 9 25.87 25.87 0 0 1-4.6 7.88.67.67 0 0 1-.4.28c-.2 0-.37-.13-.52-.26a8.46 8.46 0 0 0-3.4-1.52c-6.16-1.82-11.9-4.78-17.75-7.47-1.37-.64-3.04-1.25-4.32-.43a4.46 4.46 0 0 0-1.57 2.83 55.2 55.2 0 0 0-1.82 12 29.7 29.7 0 0 1-4.23-8 21.88 21.88 0 0 1-1.15-7.33c0-1.77 0-3.68 1.06-5.12s2.48-1 4-1.6c1.2-.5 1.75-2.25 2.48-3.25a19.52 19.52 0 0 1 8.3-6.47z" transform="translate(-19.71 -3.39)"/><path fill="#bb826c" d="M86.3 106.2a3.26 3.26 0 0 0-2.2 2.38c-.64 2.3.37 4.7 1.63 6.73.7 1.14 1.72 2.34 3.06 2.3a1.28 1.28 0 0 0 1-.38 2 2 0 0 0 .14-1.76 31.4 31.4 0 0 1-.55-6.7 2.52 2.52 0 0 0-3.1-2.57z"/><path fill="url(#k)" d="M107.6 115.1a1.42 1.42 0 0 1-.7-1.1c0-.4 0-.84-.22-1.15a1.06 1.06 0 0 0-.77-.32 1.17 1.17 0 0 0-.68.14 1.3 1.3 0 0 0-.33 1.3 5.77 5.77 0 0 0 2.3 3.66 1.48 1.48 0 0 0 1.15.34 1.24 1.24 0 0 0 .77-1.33 5.87 5.87 0 0 0-.33-1.55 1.4 1.4 0 0 1-1.2 0z" transform="translate(-19.71 -3.39)"/><path fill="#bb826c" d="M76.84 218.76c.75 2.5 1.36 5.1 2.76 7.3s3.8 4 6.4 3.83a2.58 2.58 0 0 0 1.54-.52 2.9 2.9 0 0 0 .73-1c1.22-2.45 1.5-5.58-.1-7.78a32.63 32.63 0 0 0-2.64-2.63c-2.66-2.86-2.88-7.13-3.48-11a89.9 89.9 0 0 0-3.25-12.8 5.3 5.3 0 0 0-1.36-2.56 5.42 5.42 0 0 0-2.22-.92c-2.35-.6-6.6-2.94-7.18.3-.48 2.74 1.34 7 2.17 9.54 2 6.1 4.6 12.1 6.64 18.24z"/><path fill="#11999e" d="M134.3 167.82c.17-.05-.1-.26-.28-.2a9.07 9.07 0 0 0-2.14.8 3 3 0 0 0-1.42 1.73 4.28 4.28 0 0 0 .05 1.85l1.8 10.6a3.32 3.32 0 0 0 .88 2.1c1 .8 2.4.3 3.5-.33q1-.57 1.9-1.23a2 2 0 0 0 1-2.4 54.56 54.56 0 0 0-1.67-10.34c-.37-1.27-1-2.7-2.32-3a4.12 4.12 0 0 0-2.43.48"/><path fill="#bb826c" d="M139.4 166.37a13 13 0 0 0-3.62 4.28 10.05 10.05 0 0 0-.62 3.57 11.63 11.63 0 0 0 .92 5.6 3.1 3.1 0 0 0 1.87 1.77c1.18.27 2.3-.57 3.2-1.4 5.15-4.87 8.6-11.22 11.8-17.55a6.94 6.94 0 0 1 1.42-2.13 8.18 8.18 0 0 1 2.14-1.2c2.7-1.25 5.26-3.5 5.52-6.43a3.15 3.15 0 0 0-.27-1.73c-.67-1.27-2.34-1.56-3.78-1.64-1.25-.07-2.52-.1-3.78-.1a6.2 6.2 0 0 0-2.88.5c-2.67 1.42-2 5.27-3.65 7.48a65 65 0 0 1-8.28 8.97z"/><path fill="#11999e" d="M72.3 158.03c-1.95 6.4-2.6 13.14-3 19.83a19.54 19.54 0 0 0 .5 7.36c.8 2.35 2.65 4.5 5.1 4.9a4.38 4.38 0 0 0 4.2-1.5 7.1 7.1 0 0 0 1.1-3.55 57.42 57.42 0 0 1 2.1-11.46c1.17-3.4 3.07-6.5 4.68-9.74 2.93-5.9 5.22-15.93-2.3-19.67-6.96-3.47-10.96 9.1-12.4 13.83z"/><path fill="url(#l)" d="M106.7 167.27c-1.6 3.23-3.5 6.33-4.67 9.75a56.57 56.57 0 0 0-2.12 11.44 7.56 7.56 0 0 1-1.1 3.54 4.4 4.4 0 0 1-4.18 1.52 6.57 6.57 0 0 1-4.56-3.65 5.56 5.56 0 0 0 1.74.62A4.4 4.4 0 0 0 96 189a7.44 7.44 0 0 0 1.1-3.54A56.67 56.67 0 0 1 99.2 174c1.2-3.4 3.1-6.52 4.7-9.75 2.23-4.47 4.08-11.36 1.53-16 6.28 4.04 4.08 13.4 1.28 19.02z" transform="translate(-19.71 -3.39)"/><path fill="#11999e" d="M73.45 184.5a31.16 31.16 0 0 0-3-1.24 8.7 8.7 0 0 0-2.27-.32 1.22 1.22 0 0 0-.6.1 1.3 1.3 0 0 0-.5.54 10.57 10.57 0 0 0-1.33 5.8 1.94 1.94 0 0 0 .23.93 2 2 0 0 0 .83.64c3.66 1.87 7.75 3.27 11.8 2.63a2.65 2.65 0 0 0 1.84-.92 3.32 3.32 0 0 0 .36-1.43 11.76 11.76 0 0 1 1.14-3.8c.5-1 .13-1.1-.82-1.2s-1.78-.23-2.66-.38a22.28 22.28 0 0 1-5-1.35z"/><path fill="#bb826c" d="M155.27 150.86l36.58-52.18.97.6-35.12 52.16-2.43-.58z"/><path fill="url(#m)" d="M155.27 150.86l36.58-52.18.97.6-35.12 52.16-2.43-.58z"/><path fill="url(#n)" d="M170.46 163.34l-6.07 8.9s1.4 2 2.8 1.18l6.08-9.64z" transform="translate(-19.71 -3.39)"/><path fill="#fff" d="M164.87 86.6a2.4 2.4 0 0 0-.16-.9 6.73 6.73 0 0 0-.37-.82 1.4 1.4 0 0 1-.07-.42q0-.27-.24-.24v.32a.87.87 0 0 0 .1.42 4 4 0 0 0 .22.4c.1.13.17.26.25.4a.94.94 0 0 1 .1.45h-.82l-.2-.22a.1.1 0 0 0 0 .06v.06a.24.24 0 0 0 .07.18.24.24 0 0 1 .07.18.43.43 0 0 1-.06.22.18.18 0 0 1-.17.1h-.49a1.2 1.2 0 0 1-.33-.07h-.24l-.38-.06a2.8 2.8 0 0 0-.38-.07h-.25a1.25 1.25 0 0 1-.27-.1l-.26-.1s0 0-.1-.06a.1.1 0 0 1 0-.04V84.6l.2.12a1.65 1.65 0 0 0 .07-.2.8.8 0 0 0 0-.22c.06-.14.12-.2.2-.23h.33c.05 0 .07-.07.07-.2a.25.25 0 0 0-.2-.26l-.4-.06a.9.9 0 0 1 .13-.4 1.7 1.7 0 0 1 .33-.4 1.92 1.92 0 0 1 .42-.27.94.94 0 0 1 .43-.12h.17l.23.1h.17v.68a.56.56 0 0 1-.3-.08.68.68 0 0 0-.27-.07h-.1s0 .06-.1.1a.46.46 0 0 0-.1.13v.12l.2-.1v.4l-.2-.13v.1c0 .2 0 .32.07.36a.5.5 0 0 0 .2.1l.27.06a.33.33 0 0 1 .2.23v-.8a.38.38 0 0 0 .2-.27 1 1 0 0 0 0-.34c0-.12 0-.24-.07-.37a.7.7 0 0 1 0-.35c0-.06.06-.07.14 0l.24.1.3.12a.64.64 0 0 0 .24.07.1.1 0 0 1 .07.07s.06.06.08.06 0-.16 0-.13a.87.87 0 0 0 .1.17l.22.28a.75.75 0 0 0 .27.22l.53.07a5.45 5.45 0 0 0 .55 0h.08a.18.18 0 0 0 .16-.06.26.26 0 0 1 .18 0h.07a.2.2 0 0 1 .06.15.32.32 0 0 0 0 .16s.1 0 .2 0a1.22 1.22 0 0 1 .27 0 .7.7 0 0 1 .22.06.24.24 0 0 1 .1.23h-.86c-.07 0-.1.04-.1.13l.1.17v.34c0 .25.13.38.3.4a.67.67 0 0 1 .37.17.54.54 0 0 1 .08.22.35.35 0 0 1 0 .2h.2v-.7l.26-.08v-.26a.05.05 0 0 0 .06 0 .1.1 0 0 0 .06 0l-.2.1c-.07 0-.12 0-.14 0l-.1-.1-.13-.1a2.07 2.07 0 0 0 .36-.32.44.44 0 0 0 .1-.5.2.2 0 0 1 .1.07s.08.06.1.06l-.22-.1a.2.2 0 0 0 .2-.13.2.2 0 0 1 .22-.12c.13 0 .24.1.33.32a.8.8 0 0 1 .07.5 1.3 1.3 0 0 1 .33-.33.74.74 0 0 1 .4-.13v.64s0 0 .06 0h.2a.7.7 0 0 0 .33-.24.44.44 0 0 1 .4-.2h.3a.5.5 0 0 1 .26.08s.05.07.06.17a.34.34 0 0 0 .05.17h.07a.3.3 0 0 0 .27-.14.48.48 0 0 0 .1-.3.4.4 0 0 0 .15.12c.08 0 .12.08.12.1h.14l.15-.14a.64.64 0 0 1 .1-.2l.1-.23a1.56 1.56 0 0 1 .42-.3l.44-.24.25-.1a2.93 2.93 0 0 0 .32-.13.85.85 0 0 0 .23-.06.36.36 0 0 0 .23-.2s0-.06 0-.2 0-.22.06-.3v-.1l-.18-.07a.37.37 0 0 1-.16-.06l-.14-.22s-.07-.13-.2-.27a1 1 0 0 1-.2-.27 1 1 0 0 1 0-.33c0-.2 0-.3 0-.34l-.2-.2c-.14-.12-.2-.2-.22-.23a1.83 1.83 0 0 1-.2-.27 2.15 2.15 0 0 1-.17-.27c-.08-.1-.13-.13-.16-.1a.56.56 0 0 1-.23 0v.4h-.06a.05.05 0 0 1-.04 0l-.13-.06a.4.4 0 0 0-.16 0h-.08c-.1 0-.13 0-.13.1a1 1 0 0 0 0 .18.3.3 0 0 0 .07.17v.12l-.2.2-.23.22.13.22h-.25c-.06 0-.08 0-.08-.12a.24.24 0 0 1 0-.13l.06-.1a.4.4 0 0 1-.26 0 .6.6 0 0 1-.22-.12.66.66 0 0 1-.2-.18 1.2 1.2 0 0 1-.1-.16.4.4 0 0 1-.24.35.94.94 0 0 1-.43.12c-.08 0-.13 0-.13-.1a.2.2 0 0 0-.06-.13l-.1-.06h-.1v-.1a.45.45 0 0 1 0-.13v-.06a.24.24 0 0 0 0-.08.72.72 0 0 0 0-.18 2.77 2.77 0 0 0-.43 0 .46.46 0 0 0-.34.28.62.62 0 0 1-.05.18c0 .1 0 .14 0 .16a.8.8 0 0 1-.5.2h-.55a.32.32 0 0 1-.3-.18c-.07-.12-.12-.25-.18-.4a1.87 1.87 0 0 1-.28.38.7.7 0 0 1-.4.07 2.16 2.16 0 0 1-.87-.2.67.67 0 0 1-.46-.65v-.25s0 0 .1-.06h.15l.22-.05a.67.67 0 0 0 .2-.07.52.52 0 0 0 .05-.2 1.6 1.6 0 0 0 0-.25.9.9 0 0 0 0-.3 1 1 0 0 0 0-.33.42.42 0 0 0 .37-.37 1.2 1.2 0 0 0 .33 0 .77.77 0 0 0 .3 0c.1 0 .17-.1.25-.22a.76.76 0 0 0 .1-.3l.2.2a.14.14 0 0 0 .1-.2c-.04-.1 0-.18.14-.24a.1.1 0 0 0 .1.1h.1c.06 0 .1-.05.1-.05h.1a.38.38 0 0 1 .36.2.36.36 0 0 0 .32.2 1.44 1.44 0 0 0 .32-.08.45.45 0 0 0 .27-.2.44.44 0 0 1 0-.13l.06-.2h.2a.1.1 0 0 1 .13-.13v-.1a1.16 1.16 0 0 1 .82-.8 5.7 5.7 0 0 1 1.2-.12H171.46a2.5 2.5 0 0 1-.3.2l-.27.23h-.1v-.17h-.38a1.07 1.07 0 0 1-.05.17 1.25 1.25 0 0 0 0 .18l.13.13.1.1a.24.24 0 0 0 .1 0l.13-.07a1.78 1.78 0 0 1 .34-.05 2 2 0 0 0 .34-.06.5.5 0 0 1 0-.32.47.47 0 0 1 .13-.18.53.53 0 0 1 .14-.12.12.12 0 0 0 .07-.1.7.7 0 0 0-.08-.16.56.56 0 0 1-.1-.15.22.22 0 0 0 0-.1.2.2 0 0 1 0-.07s.06-.1.15-.17a2.62 2.62 0 0 1 .33-.23l.32-.23a.5.5 0 0 0 .2-.2l.06-.18a1.67 1.67 0 0 1 .08-.2.26.26 0 0 0 .1-.08l.12-.1v-.07h-.26v-.35a.38.38 0 0 0-.14-.33.07.07 0 0 1 0 .06s0 0 0 .05h-.1c-.14 0-.22-.06-.23-.2a.26.26 0 0 0-.16-.25h-.27a.27.27 0 0 1-.2-.2.3.3 0 0 0-.2-.25.43.43 0 0 0-.25.07.56.56 0 0 1-.26.07h-.1a.85.85 0 0 0-.24-.1 1 1 0 0 0-.23 0h-1.4l-.1.08a.3.3 0 0 0-.1.07c-.45.1-.8.15-1.1.18a4.55 4.55 0 0 0-1 .24s-.05 0-.1.05l-.04.06h-.08l-.14.07a.37.37 0 0 1-.16.06c-.08 0-.12 0-.12.05a1.88 1.88 0 0 0-.37.23c-.15.12-.23.2-.23.24v.1h.3c.12 0 .18 0 .18.18a.2.2 0 0 1-.1.16 2.1 2.1 0 0 1-.22.14 1.22 1.22 0 0 1-.24.1c-.08 0-.12.08-.12.1v.44a2.5 2.5 0 0 1 0 .32 3.22 3.22 0 0 1-.07.36l-.58.08a3.9 3.9 0 0 1-.53 0 1.24 1.24 0 0 1-.64-.14c-.16-.1-.24-.3-.24-.62s.05 0 .1-.06l.1-.1a2 2 0 0 1 0-.3c0-.17.06-.27.07-.3l.13-.1v-.16a.9.9 0 0 0-.06-.3 1.15 1.15 0 0 1-.06-.38 1.7 1.7 0 0 0 .07-.26c0-.1 0-.18.06-.2h.17c.1 0 .14 0 .14-.05a.48.48 0 0 0 .07-.28.52.52 0 0 1 .08-.3.68.68 0 0 1 .26-.1.54.54 0 0 1 .25 0 .17.17 0 0 1 .13.15 1.9 1.9 0 0 1 .05.23.72.72 0 0 0 0 .2c0 .08.1.1.22.1s.14-.05.14-.2v-.2a.48.48 0 0 0-.07-.28.64.64 0 0 0-.17-.16.6.6 0 0 1-.17-.12.23.23 0 0 1-.07-.18c0-.06 0-.13.17-.2a2.78 2.78 0 0 1 .38-.26 3.9 3.9 0 0 1 .43-.2 1.25 1.25 0 0 1 .27-.08.26.26 0 0 1 .23.13.3.3 0 0 0 .26.12h.07a.1.1 0 0 0 .06 0 1.85 1.85 0 0 0 .24-.16l.2-.15s.1 0 .2 0a.7.7 0 0 1 .15.15v-.34a.3.3 0 0 0 .27-.1 1 1 0 0 0 .1-.3q0-.18.1-.3a.2.2 0 0 1 .2-.14h.2c.05 0 .1 0 .1.1a.7.7 0 0 1-.1.23l-.1.2v.07a.3.3 0 0 0 .23-.1 1.74 1.74 0 0 0 .1-.17c0-.07 0-.13.08-.2a.12.12 0 0 1 .12-.07h.2l.23.1a.56.56 0 0 0-.1.17 1 1 0 0 0 0 .2.6.6 0 0 0 .12.3.37.37 0 0 0 .3.2s.1-.1.22-.27a1.17 1.17 0 0 1 .23-.3l-.34-.3.3-.18a.5.5 0 0 1 .25-.06h.1v.05a.1.1 0 0 0 .05 0h.23a.73.73 0 0 1 .27.24.35.35 0 0 1 .07.32c.2 0 .3-.15.3-.32a1.13 1.13 0 0 1 .12-.48.85.85 0 0 1 .32-.2 1.35 1.35 0 0 1 .38-.1h.58a.54.54 0 0 1 .5.22.94.94 0 0 0 0 .1.52.52 0 0 1 .07.12l.12.06h.08v.23a.28.28 0 0 0 .16.14l.28.1.27.06h.18a1.36 1.36 0 0 1 0 .36.87.87 0 0 0-.06.32c0 .15.1.23.28.23h.1l-.15-.2.28-.1a1.17 1.17 0 0 0 .28-.13v.12a.36.36 0 0 1-.1.27.33.33 0 0 0-.1.24h.06a.55.55 0 0 1 .16-.1.4.4 0 0 0 .15-.13h.12a1.12 1.12 0 0 0 0 .24 1.54 1.54 0 0 0 .07.24c.06.13.1.17.14.1s.1-.06.2 0 0 0 .1.12a.93.93 0 0 0 .1.16 2.23 2.23 0 0 0 .2.18c.1.1.14.15.14.2l-.06.13-.06.18s0 0-.1.07a.3.3 0 0 1-.12 0q-.1 0-.1.12a1.6 1.6 0 0 1 0 .17c0 .1 0 .16 0 .2a4 4 0 0 0 0 .45c0 .06 0 .1 0 .12a.38.38 0 0 1 0 .16c-.1 0-.14 0-.16 0h-.14a.5.5 0 0 0-.2 0c-.08 0-.12.07-.13.23s0 .32 0 .5a1.93 1.93 0 0 1-.12.5.33.33 0 0 1-.33.23c-.1 0-.16-.05-.14-.13a1 1 0 0 0 0-.2h-.4v.44h.2c.1 0 .14 0 .14.1a1.16 1.16 0 0 1 0 .17.44.44 0 0 1-.05.2.47.47 0 0 0-.1.1l-.04.1a.44.44 0 0 0-.06.16.37.37 0 0 1-.06.17s-.07 0-.17 0a.47.47 0 0 0-.2-.07s0 .16 0 .37 0 .33 0 .37a.33.33 0 0 1 0 .14c0 .05-.06.08-.08.08a.73.73 0 0 1-.2-.38 2.07 2.07 0 0 1-.06-.5c0-.17 0-.33 0-.48s0-.28 0-.4 0-.08-.1-.08h-.33s0 .14 0 .3a1.12 1.12 0 0 0 .06.32l.1.12v.22a.38.38 0 0 1-.17.1c-.07 0-.12 0-.14 0a2 2 0 0 1 .13.76h-.2v-.54l-.28.2v-.3a1 1 0 0 1 0-.35.78.78 0 0 0 .05-.27v-.12a1.43 1.43 0 0 0-.06-.3.8.8 0 0 1 0-.2l-.06-.06a.1.1 0 0 1-.06 0l-.06.06a.1.1 0 0 0-.1.1v2.36c.07 0 .1 0 .1 0a.77.77 0 0 0 .15-.1s.1-.08.1-.1h.08l.38.06.47.06H173.93a2.45 2.45 0 0 0 .36.13l.3.1a3.37 3.37 0 0 1 .34.28 3.85 3.85 0 0 1 .34.3h.1l.1.06c.1.08.13.14.1.2a.84.84 0 0 0 0 .34h.37l-.14-.1a1.06 1.06 0 0 1 .25.17.34.34 0 0 1 .15.27h-.12a.2.2 0 0 0-.13 0c-.1 0-.14.1-.14.2v.22h-.08l-.3-.65h-.1a.4.4 0 0 0-.3.1.64.64 0 0 0-.18.26.4.4 0 0 1 .17 0 .37.37 0 0 1 .18 0s.06 0 .13.13a1.94 1.94 0 0 1 .22.3c.08.1.15.2.2.3a.65.65 0 0 1 .1.2.7.7 0 0 1-.14.1.38.38 0 0 0-.16.12v.12a1.74 1.74 0 0 1 .16.18.6.6 0 0 0 .15.16.3.3 0 0 0 .12-.22c0-.1.06-.15.14-.15a.2.2 0 0 1 .08.06.1.1 0 0 1 0 .06.28.28 0 0 1-.07.2l-.15.1a.42.42 0 0 0-.15.1.26.26 0 0 0-.08.2v.3l.06.16.06.17s-.06.1-.17.14l-.17.05-.2 1.33c0 .07-.07.13-.2.17a.35.35 0 0 0-.25.28.7.7 0 0 0-.08.33q0 .24-.24.2v-.2a1.14 1.14 0 0 0-.27.22.88.88 0 0 0-.1.22 1.74 1.74 0 0 1-.05.22.5.5 0 0 1-.13.23.33.33 0 0 1-.12.06h-.1a.53.53 0 0 0-.28.5.73.73 0 0 1-.16.5 1.2 1.2 0 0 1-.16-.16.32.32 0 0 1-.08-.2v-.07s0 0 .07 0a.1.1 0 0 0 .07-.1h-.34l-.3.7c0-.1 0-.22-.08-.36a.25.25 0 0 0-.27-.2c-.13 0-.2 0-.2.17a1.4 1.4 0 0 0 0 .35 1.38 1.38 0 0 1 0 .35c0 .12-.1.17-.22.17s0-.13 0-.3a1 1 0 0 0-.05-.3c0-.14-.08-.22-.2-.22a.2.2 0 0 0-.2.14 2.55 2.55 0 0 0-.08.32 2.8 2.8 0 0 1-.08.3.26.26 0 0 1-.26.15.66.66 0 0 1-.5-.24c-.16-.17-.27-.25-.37-.25a.1.1 0 0 0-.06 0 1 1 0 0 1 0 .18c0 .1 0 .17-.07.18s-.07 0-.1 0h-.13a.1.1 0 0 0-.08.07.68.68 0 0 0 0 .26 2.32 2.32 0 0 1-.48-.1c-.2-.07-.34-.14-.38-.22l-.43.18.13.12h-.27c-.17 0-.27 0-.3-.1a.44.44 0 0 1-.1-.2l-.05-.2s-.1-.07-.23-.07a2.48 2.48 0 0 0 .05.27c0 .16 0 .25-.14.27a.27.27 0 0 0-.12 0 .22.22 0 0 1-.13.06 4.7 4.7 0 0 1-.82-.07l-.85-.16h-.1a.22.22 0 0 0-.1 0 1.35 1.35 0 0 0-.4 0h-.4l-.15-.1a.2.2 0 0 1-.1-.18zm-3.26-2.26s0 .07 0 .07.12-.1 0-.1zm.46-.14c-.06 0-.08 0-.08.12s0 .13.08.13.06 0 .06-.13-.02-.15-.06-.15zm1 1.44v-.1a.17.17 0 0 0 0-.14l-.1-.1zm.1.88h.32v-.1h-.3zm.32-2v-.12h-.1zm0 .45c-.06 0-.08 0-.08.1s0 .13.08.13.1 0 .1-.12-.07-.12-.13-.12zm0-.77h.1l.17-.07.16-.07s-.05 0-.1-.13a2 2 0 0 1-.1-.18l-.05-.1-.06-.13h-.12zm.1 1.08c-.04 0-.07 0-.07.1s0 .13.1.13.08 0 .08-.1-.06-.13-.12-.13zm0-11.43h.15a.26.26 0 0 0-.14-.23zm.3 11.54a1 1 0 0 0 .1.16l.12.15.2-.1a.64.64 0 0 0-.13-.13c-.05-.06-.1-.1-.1-.1h-.15zm0-13a1.5 1.5 0 0 0 0 .2.2.2 0 0 0 .1.16c.07 0 .1-.07.1-.1s0-.1-.1-.13a.47.47 0 0 0-.05-.14zm0 .93a.23.23 0 0 0 0 .1l.06.1h.1l-.1-.45a.2.2 0 0 0-.1.14v.1zm.4-1.22a.28.28 0 0 0 .12.25.35.35 0 0 0 .25.1v-.06a.7.7 0 0 0-.1-.24c-.05-.1-.08-.2-.1-.22s-.16.02-.16.17zm0 14.5c.07 0 .1 0 .1.15s0 .14-.1.14-.05 0-.05-.15.06-.14.06-.14zm.12-2.32a.46.46 0 0 0 .1.27l.17.24a1.06 1.06 0 0 1 .16.22.34.34 0 0 1 0 .28.5.5 0 0 0 .34-.2c0-.07 0-.2-.1-.4a2.6 2.6 0 0 0-.1-.36.4.4 0 0 0-.3-.2l-.27-.06zm.23-1a.36.36 0 0 0 0 .18.2.2 0 0 0 .1.07l.15.06a.3.3 0 0 1 .17.13.67.67 0 0 1 .13.4.26.26 0 0 0 .3.28h.06a.6.6 0 0 0 .1-.3c0-.17 0-.28 0-.34s-.15-.3-.42-.37a3.22 3.22 0 0 0-.55-.1zm.06-13.05l.2.08-.1.13c-.07 0-.1 0-.1-.12zm0 3.6l.4-.1a.13.13 0 0 0-.1-.1H164.7zm.3-3.18c-.06 0-.1 0-.1.1s0 .1.1.1.08 0 .08-.1.02-.1-.04-.1zm.08 15.18a.26.26 0 0 0 .2.14v-.14zm.34-13.64s-.08 0-.08.1 0 .1.08.1.1 0 .1-.1 0-.1-.06-.1zm.37 12.58a.94.94 0 0 0 .1.47 2.35 2.35 0 0 1 .18.44l.06-.07a1.3 1.3 0 0 0-.06-.2 1.36 1.36 0 0 1 0-.22c0-.07-.05-.15-.07-.25a.2.2 0 0 0-.17-.16zm.28-.4s-.05-.06-.14-.06-.14 0-.12.06a.2.2 0 0 0 .14.06.12.12 0 0 0 .16-.05zm-.1-4.93h.58v-.14a1 1 0 0 1-.34-.05.35.35 0 0 1-.23-.23zm.2 6.24c-.05 0-.07 0-.07.1s0 .14.1.14.05 0 .05-.13.04-.1-.02-.1zm.1-1s-.06 0-.06.12 0 .13.06.13.08 0 .08-.13 0-.12-.07-.12zm.08.62a2.07 2.07 0 0 1 .06.26c0 .1 0 .18 0 .2a.4.4 0 0 0 .13.06c.07 0 .1 0 .1 0s.16.16.13.2 0 .06.18.06a.93.93 0 0 0 0-.24 1.66 1.66 0 0 0-.16-.33 1.7 1.7 0 0 0-.2-.28.33.33 0 0 0-.24-.12zm.1-7a.67.67 0 0 0 .13.36.34.34 0 0 0 .3.18.7.7 0 0 0-.1-.37.36.36 0 0 0-.3-.18zm.2-7.57s-.07 0-.07.07 0 .06.07 0 .12-.03.04-.07zm0 12.45h-.1v-.1zm.4-13.4h-.22l.1-.13zm-.13 14.25s0 0 0 .13 0 .13 0 .13-.1 0-.1-.12.1-.13.17-.13zm0-6.7s0 0 0 .14 0 .1 0 .08a.1.1 0 0 0 .06-.1.18.18 0 0 0 .02-.12zm.12.77c0 .1 0 .15.1.15h.13a2.46 2.46 0 0 1 .15-.42 3.74 3.74 0 0 0 .16-.38l.1-.1.14-.1h-.1a.4.4 0 0 0-.38.2 3.4 3.4 0 0 0-.17.34c0 .18-.04.3-.06.32zm.4 7.4s0 .08 0 0 .1 0 .1-.05.06.06 0 .06zm.25.32a.43.43 0 0 0 .14.34l.2-.2a.2.2 0 0 0-.17-.13zm1-6.16q.1.06 0 .15s-.05 0-.05-.1.12-.06.16-.05zm.1-3.5s.07 0 .07.1 0 .1-.08.1-.07 0-.07-.1.13-.1.17-.1zm0 2.3s-.07 0-.07.15 0 .18.06.15 0-.07 0-.15a.17.17 0 0 0 .1-.14zm0 6.62s-.07 0-.07.1 0 .1.06.1.07 0 .07-.1.08-.1.03-.1zm.1-9.13c.06 0 .1 0 .1.1s0 .1-.1.1-.1 0-.1-.1.15-.1.2-.1zm.3 8.9s-.04 0-.04.12 0 .1.05.1.1 0 .1-.1.08-.13 0-.13zm.38-8.36h.3v-.1h-.3zm.3-6.63a.53.53 0 0 0 .1.14l.1.13v-.63a.15.15 0 0 0-.14.1.68.68 0 0 0 0 .24zm.2-1.2l.24.24h-.03a.22.22 0 0 1-.23-.1zm.35 7.92c0-.1 0-.13-.1-.13l-.13.12zm-.1 2.66v-.23l-.13.12zm.1-8.6a.66.66 0 0 0 .14-.17.3.3 0 0 0 .1-.18s0-.08-.12-.08h-.13zm.23 8s0 .07 0 0 .06 0 .06 0 .1.03.05.03zm.1-2.4c-.04 0-.07 0-.07.1s0 .12.07.12.1 0 .1-.12.07-.08 0-.08zm.13 2.86c-.07 0-.1 0-.1.1s0 .12.1.12.07 0 .07-.1.08-.1.03-.1zm.18-2.76c-.17 0-.25.1-.25.3v.4c.13 0 .2 0 .2-.1a.86.86 0 0 1 .05-.28h.12a.1.1 0 0 0 0 .05v.06H171.44c.18-.26.04-.4-.25-.4zm-.08 2c-.06 0-.1 0-.1.1s0 .1.1.1.06 0 .06-.1.1-.08.05-.08zm.06.3a.4.4 0 0 0 .2.37.85.85 0 0 0 .42.12c0-.2-.06-.34-.17-.4a1 1 0 0 0-.33-.06zm.33-9.05c0 .2.06.27.2.27h.08a.7.7 0 0 0-.1-.17.22.22 0 0 0-.2-.1zm.28.6c-.2 0-.3.1-.3.24h.3zm0 7.84h.1a1 1 0 0 0 0-.24.93.93 0 0 0-.07-.22zm0 2.27c0-.12.05-.2.17-.2a.5.5 0 0 0 .07.3q.06.1.27.05a.93.93 0 0 1-.06.24.34.34 0 0 1-.18.23.64.64 0 0 1-.2-.3 1 1 0 0 1-.08-.3zm.2-.62s0 0 0 .12 0 .1 0 .1-.06 0-.06-.1.02-.12.06-.12zm.08-3.85s0-.06 0-.06 0 0 0 .06 0 .03 0 0zm0-4.12a.68.68 0 0 0 0 .2c0 .06.07.1.17.1l.07-.07a.13.13 0 0 0 0-.07.2.2 0 0 0-.17-.13zm.23 8.32s.07 0 .07.12 0 .1-.08.1-.1 0-.1-.1.03-.12.1-.12zm.1-9.36s-.06 0-.06.12 0 .12.06.08a.1.1 0 0 0 .06-.1q0-.1-.07-.1zm.26 9.68s0 0 0 .1 0 .12 0 .12-.12 0-.12-.1.04-.12.12-.12zm0-1.85s-.06 0-.06.04 0 .06.06 0 0 0 0-.06.03 0 0 0zm0-6.36a.18.18 0 0 0 .2.2v-.4a.18.18 0 0 0-.23.2zm0-2.7l.08-.08h-.08zm.08 15.66s-.06 0-.06 0 0 .08.06.06.06 0 .06-.06-.02 0-.06 0zm.1-8q0 .1-.1 0s0 0 .07 0 .06-.06.03-.03zm0-.9s-.07 0-.07.1 0 .12.06.12a.1.1 0 1 0 0-.22zm.24-5.22a.3.3 0 0 0-.25.17h.25zm-.25 3.57c0 .15.06.23.2.23s.07-.07.16-.2a1.14 1.14 0 0 1 .2-.26l-.12-.05H173a.26.26 0 0 0-.2.1.38.38 0 0 0-.07.15zm.45-2.9s-.06 0-.06.07 0 .07.06 0 .06 0 .06 0-.02-.1-.06-.1zm0 6.65s-.06 0-.06.1 0 .12.06.12.08 0 .08-.1.03-.15-.08-.15zm0-4.3l.1.13h.07a.17.17 0 0 0 .17-.16 1.26 1.26 0 0 0 0-.2h-.23c-.1 0-.14.05-.14.15zm0 5.5a.9.9 0 0 0 0 .14.93.93 0 0 0 .08.22l.1.08a.45.45 0 0 1 .06.24c0 .07.06.1.2.1a1.72 1.72 0 0 0-.07-.48 1.65 1.65 0 0 0-.2-.4.1.1 0 0 0-.06 0s0 0-.1.06zm.1 1.2s0-.1 0-.1a.05.05 0 0 0-.05.07s0 .05.07.05 0 0 0-.04zm.1-7.23h.2a.2.2 0 0 0 .17-.1.35.35 0 0 0-.23-.1h-.14zm.34-.6a.3.3 0 0 0 0 .15c0 .06.06.1.1.1v-.24zm.25-2.7c0-.07 0-.1-.14-.1s-.12 0-.08.1a.1.1 0 0 0 .1 0 .18.18 0 0 0 .12-.04zm-.22 2.28h.25a.15.15 0 0 0-.1-.15l-.15-.07zm0 1.68h.1V74zm.1 1.3s-.05 0-.05 0 0 .07.06.07.08-.1 0-.1zm0 3.38s-.05 0-.05.08 0 .07.06.07a.05.05 0 0 0 .06-.06s-.02-.1-.06-.12zm.2 1.68a.63.63 0 0 0 .1.34.38.38 0 0 1 0 .34.5.5 0 0 0 .16-.25 1 1 0 0 0 .1-.25.53.53 0 0 0-.1-.3.42.42 0 0 1-.04-.3.47.47 0 0 0-.2.4zm.24-8.6q-.1 0-.1.13c0 .1 0 .14.1.14s.1 0 .1-.13-.04-.14-.1-.14zm.13 13.68c.05 0 .05 0 0 .08s-.1 0-.1 0 .04-.13.1-.1zm.05-14a.27.27 0 0 0 .15.27 1.25 1.25 0 0 0 .3.1v-.06s-.05-.2-.15-.22a1.7 1.7 0 0 0-.3-.16zm.15 13.27s.08 0 .08.1 0 .13-.07.13-.1 0-.1-.12.04-.18.1-.18zm0-8.8c0-.2.1-.38.15-.54s.2-.26.47-.26a1.34 1.34 0 0 1-.5 1l-.12-.12v-.08zm.08 3.7q0 .27 0 .6a1 1 0 0 0 .2.53.1.1 0 0 0 .07 0s.06 0 .12-.1.2-.15.2-.15a.38.38 0 0 1 .17 0c.1 0 .16 0 .16-.06v-.06a.52.52 0 0 0-.3-.53 1.77 1.77 0 0 0-.62-.34zm0-6a.2.2 0 0 0 .18-.14.48.48 0 0 0 .06-.22h-.23zm.12 10.12a.07.07 0 0 0-.08.08c0 .06 0 .1.08.1s.06 0 .06-.1 0-.13-.03-.13zm0-11.26a.2.2 0 0 0 .16.2h.3v-.23h-.1a.62.62 0 0 1-.2-.05.35.35 0 0 1-.13-.07.1.1 0 0 0 0 .06zm.23 8.58s-.06 0-.06 0 0 .06.05 0 .06 0 .06-.06 0 0-.05 0zm.12-.8v.12l-.12-.1zm.1-7.48c-.05 0-.08 0-.08.1s0 .13.08.13.08 0 .08-.12-.02-.15-.07-.15zm.35 8.08s-.06 0-.06.1 0 .1.06.1.08 0 .08-.1-.02-.15-.08-.15zm.2-9.8c.05 0 .08 0 .08.1s0 .12-.08.12-.06 0-.06-.12.02-.16.06-.16zm.22 1.4s-.05 0-.07 0 0-.05.07-.05.02-.03 0 0zM195.98 83.7a.36.36 0 0 1 .1-.27.34.34 0 0 0 .07-.23 1.26 1.26 0 0 0-.05-.33.8.8 0 0 1-.06-.3v-.22a.4.4 0 0 1 .06-.13.6.6 0 0 0 .05-.12.76.76 0 0 0-.1-.16c-.07-.07-.1-.1-.15-.1s0-.2 0-.4 0-.3 0-.37v-.65a2 2 0 0 1 .1-.65 1.08 1.08 0 0 1 .18-.34.57.57 0 0 0 .12-.37c0-.1-.08-.17-.23-.17l-.1.05h-.16a.78.78 0 0 0-.4.15.18.18 0 0 0 0 .17 1.13 1.13 0 0 1 0 .15s0 .07-.15.07-.07-.06-.14-.18-.13-.18-.17-.2h-.08c0 .1 0 .2-.07.3a1.45 1.45 0 0 1-.1.24s0 0-.07 0a.15.15 0 0 0-.12 0s-.06 0-.13.1-.1.12-.12.12h-.12a.65.65 0 0 1-.24-.15c-.12-.1-.18-.17-.18-.2h-.06c-.1 0-.14.07-.15.2a.2.2 0 0 1-.2.2h-.1s-.05 0-.1-.08-.08-.1-.1-.1a.26.26 0 0 0-.14.1c-.06.06-.1.08-.14.08a1.3 1.3 0 0 1-.35-.15l-.4-.22-.1-.1c.07 0 .1-.07.1-.18s-.1-.2-.28-.34c-.07 0-.13 0-.17.16a.7.7 0 0 0-.06.2s0 0 .05.07v.06a.07.07 0 0 1 0 .06s-.06 0-.06.04a.52.52 0 0 1-.24-.05l-.24-.13q0-.14.24-.12c.12 0 .18-.06.18-.2a.74.74 0 0 0-.14-.47.58.58 0 0 1-.14-.4 2 2 0 0 1 0-.2c0-.1.06-.16.16-.14v.37l.07-.07a.16.16 0 0 0 0-.1v-.07a1.58 1.58 0 0 0 0-.2.5.5 0 0 0-.05-.17.9.9 0 0 0-.32.16.48.48 0 0 0-.2.28.66.66 0 0 1-.17-.35.75.75 0 0 1 0-.37s0-.07.06-.1a.22.22 0 0 1 .13-.07l.16.17a.1.1 0 0 0 .08-.1v-.15a.33.33 0 0 1 0-.15s.08-.05.2-.05h.05l.05.08a.17.17 0 0 0 .1.06.12.12 0 0 0 .1 0 .24.24 0 0 0 .17-.1h.06a.68.68 0 0 1 .3.13l.35.17a1.3 1.3 0 0 1 .34.1s.05.05 0 .08a.36.36 0 0 1 0 .1s0 .04.1.06c0-.23.14-.34.38-.34a.42.42 0 0 1 .2 0 .35.35 0 0 0 .17 0H193.8v-.1a.8.8 0 0 1-.07-.2.5.5 0 0 0-.05-.16v-.08s0 0 .05 0 0 0 .06 0a.54.54 0 0 1 .06.26c0 .1.06.17.16.17a.32.32 0 0 0 .27-.12.38.38 0 0 1 .3-.13.25.25 0 0 1 .24.1.23.23 0 0 0 .2.07.55.55 0 0 0 0-.17c0-.05 0-.08.1-.08h.07l.1.1s.1.07.1.07h-.1a.83.83 0 0 0 .16-.24 1.66 1.66 0 0 0 0-.24.92.92 0 0 0 0-.2s-.08-.08-.17-.12a.1.1 0 0 1 .08-.08h.32a.1.1 0 0 0 .07-.1.62.62 0 0 0-.06-.2c0-.1-.07-.2-.12-.3a1.13 1.13 0 0 0-.15-.26c-.06-.08-.1-.1-.14-.1v-.9a.2.2 0 0 1 .13.26.22.22 0 0 0 .1.26c.14 0 .2 0 .2-.15a.54.54 0 0 0 0-.3.74.74 0 0 0-.16-.32h.1a.78.78 0 0 1 .23 0 .4.4 0 0 0 .18 0c.15 0 .26-.12.3-.34a.8.8 0 0 1 .27-.45v-.64a.3.3 0 0 0 .2.1s0 0 .08 0 .07-.06.1 0a.7.7 0 0 1 .2.14.43.43 0 0 1 .13.27.57.57 0 0 0-.3.06s-.04.1-.04.24v.17l.25-.17s0 0 .06 0a.13.13 0 0 1 0 .07s0 .07 0 .14a1.3 1.3 0 0 0 0 .18h.28c.16 0 .26.2.3.52a9.87 9.87 0 0 1 .1 1 9 9 0 0 0 .1 1c0 .3.15.44.3.44s.16 0 .18-.1h.62l.1-.05h.1l.2.17a1.15 1.15 0 0 1 .14.2.28.28 0 0 1 .1-.42.72.72 0 0 1 .4-.16h.14c.05 0 .07 0 .07 0s.07 0 .1.1a1 1 0 0 1 0 .2c.1 0 .16-.07.17-.14a.2.2 0 0 1 .13-.17.48.48 0 0 0 .42.24.72.72 0 0 0 .44-.14.74.74 0 0 1 .45-.14h.22l.07.14s.07 0 .1 0a.1.1 0 0 0 .07 0v-.3a.27.27 0 0 0 .23.07 2.15 2.15 0 0 0 .44 0 2 2 0 0 0 .44 0 .2.2 0 0 0-.04.1.28.28 0 0 1-.06.07v.06a.17.17 0 0 0 .18-.13q0-.12.27-.12a.3.3 0 0 1 0 .2.35.35 0 0 0 0 .2.93.93 0 0 1 .25 0 .7.7 0 0 0 .26.04c.1 0 .15 0 .17-.07s.06-.06.14-.06a.1.1 0 0 1 .06 0s0 .07 0 .1l.12.08s.08.06.08.08l-.08.17-.06.14-.07.15h.48a.35.35 0 0 1-.04.2.3.3 0 0 0-.06.18.43.43 0 0 0 .2.07.23.23 0 0 1 .17.1h-.1l-.1.08v.08s0 .14 0 .28.06.23.07.27v.16s-.06.07-.2.1h-1.38a.32.32 0 0 1-.14-.12.22.22 0 0 0-.15-.08h-.1a.33.33 0 0 1-.15 0l-.1.07a.22.22 0 0 1-.1 0h.07a.86.86 0 0 1-.48-.1.7.7 0 0 0-.35-.12v.1a.35.35 0 0 0-.4.4l-.13-.1c-.07 0-.1-.1-.13-.1s-.06 0-.1.1a.54.54 0 0 1-.06.1.25.25 0 0 1-.27-.1 1.36 1.36 0 0 1-.1-.27 2.1 2.1 0 0 0-.1-.3.2.2 0 0 0-.2-.14h-.08a.43.43 0 0 0 0 .14c0 .08.04.12.06.12h-.1a.43.43 0 0 1-.18-.07.4.4 0 0 0-.17-.08l-.16.43c0-.1-.08-.15-.13-.17a.48.48 0 0 0-.17 0 .85.85 0 0 0-.42.12.4.4 0 0 0-.17.35l-.06-.06v-.05a.54.54 0 0 1 .24-.44 1.25 1.25 0 0 0 .37-.4s0-.06-.1-.1h-.07a.52.52 0 0 1-.13.14l-.13.13h-.25a.2.2 0 0 0-.12.17 1.93 1.93 0 0 0 0 .24.58.58 0 0 1 0 .23c0 .08-.1.1-.2.1s-.1 0-.1-.1 0-.12-.13-.12a.25.25 0 0 0-.24.2 3.13 3.13 0 0 0-.1.43c0 .17-.05.34-.07.5a.57.57 0 0 1-.12.33.1.1 0 0 1-.07 0 .1.1 0 0 1-.06 0v-.42H197.84c-.2 0-.3.1-.34.2a1 1 0 0 0-.05.38h.27c.08 0 .1.1 0 .24a.9.9 0 0 0 .24-.13c.07 0 .14-.1.2-.16a1.66 1.66 0 0 1 .24.78q0 .43 0 .84v.45a1.3 1.3 0 0 0-.2.36 3.6 3.6 0 0 0-.14.43l-.1.36q-.07.15-.1.15s-.1 0-.25 0h-.28c-.1 0-.15.1-.17.25a.4.4 0 0 1-.14.3l-.33-.32a.54.54 0 0 0-.34-.2c0 .22 0 .36 0 .44s-.1.13-.35.17a1.55 1.55 0 0 1-.06-.4zm-4.45-6.48s0-.06 0-.06-.07 0-.07.06a.08.08 0 0 0 .07 0zm-.1.7h.1v-.17h-.1zm.38.7c.13 0 .18-.08.18-.27h-.17zm1.18-1.15l.08.1h.06l-.06-.18zm1.16 1.87a.34.34 0 0 0-.14.3.4.4 0 0 0 .1-.3zm1.9-4.22c0 .1 0 .14.1.14h.35c.05 0 .08-.05.08-.14a.2.2 0 0 0-.1-.16.38.38 0 0 0-.2-.07l-.2.2zm.1 7.5a.66.66 0 0 0 .13.28.3.3 0 0 0 .28.13c0-.1 0-.26 0-.45a.53.53 0 0 0-.22-.43.8.8 0 0 0 0 .24c-.04.12-.1.2-.18.2zm.1-1h.05zm.34-8.07s0 0 0 .08 0 .1 0 .1a.05.05 0 0 0 .06-.07.15.15 0 0 0-.06-.05zm.25-.8s.06 0 .06 0 0 0-.07 0zm.3 1.85h.07v-.06h-.08zm.16-.68c0 .1 0 .15.07.17l.2-.18zm.36.53s-.06 0-.06 0a.05.05 0 0 0 .06.06 0 0 0 0 0 0-.04zm.08 5.05a.18.18 0 0 0 .1-.14.7.7 0 0 0 0-.14h-.1zm.17-3.2s-.05 0-.05.08 0 .1.06.1.07 0 .07-.1-.02-.07-.06-.07zm.38 5.84s0 .06 0 .06 0 0 0-.05zm2.33-4.34s-.05 0-.05 0 0 .08.06.08a.1.1 0 0 0 0-.07zm.6-.8s0 0 0 .1 0 .1 0 .1.06 0 .06-.1.03-.08-.06-.08zm.46 1.6s-.06 0-.06.1 0 .1.06.1 0 0 0-.1.03-.1 0-.1zm.17-1.9s0 .07 0 .17 0 .14.1.14a.32.32 0 0 0 .27-.16.62.62 0 0 0 .1-.3c0-.1-.07-.16-.2-.16h-.13a.4.4 0 0 0-.12.07zm1 1.64s-.06 0-.06.1 0 .1.06.1.1 0 .1-.1-.08-.1-.14-.1zm1.7-.8l.1-.08h-.1zM228.03 87.68a.46.46 0 0 0 0-.24.34.34 0 0 0-.1-.24l-.27-.07H227.32a.22.22 0 0 1-.1-.1 1.4 1.4 0 0 1-.27-.17l-.25-.2h-.2l-.3-.07-.32-.1a.3.3 0 0 1-.17-.07 1.6 1.6 0 0 1-.63-.37 4.88 4.88 0 0 0-.58-.45h-.07c-.1 0-.16.08-.2.22l-.08.27q-.26-.07-.3-.22a.53.53 0 0 0-.2-.27l-.07.07h-.06a.4.4 0 0 0 0 .26c0 .13 0 .22 0 .25a.34.34 0 0 1-.15 0 .24.24 0 0 1-.13-.1.34.34 0 0 1 0-.28c0-.1 0-.16-.12-.2h-.05a.1.1 0 0 1-.08 0v.76a.74.74 0 0 0-.36.23.52.52 0 0 1-.34.2h-.7a.27.27 0 0 1-.05.12.23.23 0 0 1-.07.1h-.64a1.16 1.16 0 0 1-.37-.1.8.8 0 0 1-.1-.17.7.7 0 0 0-.13-.2 1.87 1.87 0 0 1-.27-.93c0-.34 0-.67 0-1a5.2 5.2 0 0 1 .07-.8 9.14 9.14 0 0 1 .2-1c.1-.34.18-.66.28-1a5.07 5.07 0 0 1 .33-.8.8.8 0 0 1 .43-.36.85.85 0 0 0 .42-.37s.1-.13.16-.3a2.56 2.56 0 0 1 .13-.3s0 0 .1-.15h.05s.06 0 .06 0a.4.4 0 0 0 .15-.13.36.36 0 0 0 .1-.12.1.1 0 0 0 0-.12.23.23 0 0 1 0-.1l.1-.1a.48.48 0 0 1 .1-.1l.06.15s.07 0 .16 0 .12 0 .2-.14a2.43 2.43 0 0 0 .17-.33 1.73 1.73 0 0 0 .14-.32.88.88 0 0 0 .06-.2h.3a2 2 0 0 0 .35-.07.6.6 0 0 0 .3-.14.38.38 0 0 0 .16-.27h.6a.4.4 0 0 1 .04-.1.48.48 0 0 1 .1-.15h.24a.55.55 0 0 0 .24 0l.62-.48.43-.33a1.28 1.28 0 0 1 .23-.15.56.56 0 0 0 0-.15c0-.07 0-.1 0-.13s.05-.06.14-.1l.2-.13a.27.27 0 0 0 .06-.1.27.27 0 0 1 .06-.12.64.64 0 0 1 .1-.15l.14-.1c0-.08.1-.22.2-.4l.14-.35s0-.07 0-.17a2.6 2.6 0 0 0 0-.3 3.06 3.06 0 0 1 .05-.33c0-.1 0-.17 0-.2a.24.24 0 0 1 .06-.1.3.3 0 0 0 .05-.12 1.12 1.12 0 0 0 .1-.22.85.85 0 0 0 .07-.17.1.1 0 0 1-.06 0 .15.15 0 0 0-.1-.05 2.8 2.8 0 0 0-.5-.15l-.48-.13v-.3h-.24a1 1 0 0 1-.24.05 1.52 1.52 0 0 1-.18-.23l-.16-.2-.52-.2-.5-.15h-.34a4.87 4.87 0 0 0-1.32.2 1.83 1.83 0 0 0-1.06.77v.14a.5.5 0 0 0 .1.37l.52.25a4 4 0 0 1 .74.56c.22.2.43.44.62.66a.58.58 0 0 0 0 .1s0 .08 0 .1a1.26 1.26 0 0 1-.14.37c-.1.2-.16.28-.2.28s-.16-.06-.2-.18a1.57 1.57 0 0 1-.08-.33 1.3 1.3 0 0 1-.7.17c0-.12 0-.18.16-.18a.15.15 0 0 0 .17-.17v-.15a2 2 0 0 1-.46.2 1.85 1.85 0 0 1-.5.06h-.28c0-.17-.06-.26-.17-.27a.53.53 0 0 1-.32-.14.9.9 0 0 1-.4-.52 1.44 1.44 0 0 0-.34-.56.88.88 0 0 0-.27-.12l-.42-.13-.4-.1c-.1 0-.16-.1-.16-.13v-2.18a.23.23 0 0 1-.14-.14 1 1 0 0 1 0-.17.54.54 0 0 0 .47-.2l.3-.44h.65l.37-.06h.26l.16-.1a.36.36 0 0 1 .18-.1 1 1 0 0 1 .43-.14.55.55 0 0 0 .34-.23h1.06c0-.15 0-.24 0-.27s0-.1-.13-.24h.15a6 6 0 0 1 1 .4 1.45 1.45 0 0 1 .7.85h.08c.1 0 .15-.07.17-.22a.22.22 0 0 1 .23-.2h.4a1.2 1.2 0 0 1 .25.06h.5a.64.64 0 0 1 .3.07.25.25 0 0 1 .15.2 1.58 1.58 0 0 1 .07.34 2.7 2.7 0 0 1 0 .38 2.64 2.64 0 0 1 .67.4 1.15 1.15 0 0 1 .46.6 1.76 1.76 0 0 1 0 .22 1.5 1.5 0 0 0 0 .22.74.74 0 0 0 .28 0 .55.55 0 0 1 .26-.06h.11l.23.07h.15s0 .1 0 .2 0 .18 0 .2a1.37 1.37 0 0 0 .2.28 1 1 0 0 1 .2.28 1.2 1.2 0 0 1 .1.5c0 .2 0 .4 0 .55a5.3 5.3 0 0 1 0 .68 4.08 4.08 0 0 0-.07.72v.6a1.85 1.85 0 0 0 .12.6 1.42 1.42 0 0 1-.3.2l-.3.2s-.1 0-.25-.16a.86.86 0 0 0-.28-.17.9.9 0 0 0 0 .14c0 .07 0 .15.04.24l.06.25a1.16 1.16 0 0 1 0 .16.27.27 0 0 0 .06.13.4.4 0 0 1 .05.1v.24a.82.82 0 0 1-.06.37.28.28 0 0 1-.27.14.24.24 0 0 1-.27-.18c0-.13-.1-.2-.18-.2a.87.87 0 0 1-.1.45l-.25.36c-.1.12-.17.24-.26.36a1 1 0 0 0-.15.44.55.55 0 0 0 0-.2.76.76 0 0 0-.1-.17h-.04a.4.4 0 0 0-.22.06.58.58 0 0 1-.3.05V80s0 0-.1.07a.3.3 0 0 1-.14 0 .56.56 0 0 1-.26 0h-.25l-.2.17a.16.16 0 0 1-.1 0 .17.17 0 0 1-.07-.12.26.26 0 0 0 .08-.1.3.3 0 0 1 .1-.12v-.2c-.1 0-.14 0-.18-.13h-.06a.46.46 0 0 1-.12.13.58.58 0 0 0-.1.13v.1a.42.42 0 0 0 .05.15.8.8 0 0 1 .05.14 3.94 3.94 0 0 1-.48.34l-.35.26a.9.9 0 0 1-.2.1l.15.13-.28.53a1.57 1.57 0 0 0-.28.33l-.26.36c0 .08.13.1.3 0a.86.86 0 0 1 .3-.1h.08a.2.2 0 0 0 .1-.13.44.44 0 0 1 .04-.13s0 0 .1 0h.1l.06-.2h.1a.22.22 0 0 1 .13 0 .38.38 0 0 0 .37.23 1.07 1.07 0 0 1 .4.06.44.44 0 0 0 .1.1l.1.1a.72.72 0 0 0 .56.23h.58a.4.4 0 0 0 0 .14v.12a.1.1 0 0 0 0 .05.85.85 0 0 1-.27.12.9.9 0 0 0-.3.13v1.33q0 .15.13.15s.06-.1.08-.27.05-.37.1-.58a2.75 2.75 0 0 1 .14-.55q.1-.24.3-.2l.34.47a1.2 1.2 0 0 0 0 .23.16.16 0 0 0 .17.14.4.4 0 0 0 .22-.05.3.3 0 0 1 .2 0c.13 0 .22 0 .26.1a.9.9 0 0 1 .13.24h.6a.45.45 0 0 1-.2-.1.36.36 0 0 1-.16-.14v-.06a.35.35 0 0 0 .06-.1s0-.05.05-.05a3 3 0 0 0 .4.15 2.17 2.17 0 0 1 .34.1 1.22 1.22 0 0 0 .37 0h.42s.04 0 .1.07h.14a.92.92 0 0 0 0 .22 1.08 1.08 0 0 0 .07.17s.1 0 .18 0a.54.54 0 0 1 .15-.08.32.32 0 0 0-.05-.17.4.4 0 0 1-.06-.13v-.06h.14l.22.07h.15v.07a.56.56 0 0 1-.18.48 1.77 1.77 0 0 0-.33.34v.13a.45.45 0 0 1-.17.3.42.42 0 0 1-.24.07H230.98l.32.3a.05.05 0 0 1 0 .08.14.14 0 0 1-.1 0c-.14 0-.23 0-.26-.12a.6.6 0 0 1-.07-.24 2 2 0 0 0 0-.24.15.15 0 0 0-.17-.1s-.07.05 0 .2a1 1 0 0 1 0 .37.32.32 0 0 1-.22.24c-.13 0-.35 0-.67-.24v-.76a.1.1 0 0 1-.05 0l-.05-.06-.08.14a.8.8 0 0 0 0 .12 1.9 1.9 0 0 0 0 .5c0 .27 0 .45 0 .55h.06s0-.08.07-.14a.43.43 0 0 0 0-.13 1.6 1.6 0 0 1 .25.27.48.48 0 0 1 .12.3.22.22 0 0 1-.06.18s-.06.1-.06.2 0 .1 0 .07v-.2a.85.85 0 0 1 .1-.23.17.17 0 0 1 .16-.12l.34-.2.22-.14c.15-.06.23-.08.23 0l-.23 1.45a1.7 1.7 0 0 0-1 .24 1.48 1.48 0 0 1-.86.23h-.47a1.6 1.6 0 0 1-.47-.15zm-7.12-5.93h.07a2.36 2.36 0 0 1 0-.24.28.28 0 0 1 .17-.23h-.06v-.06H220.93zm.55-1c-.07 0-.1 0-.1.13s0 .13.1.13.1 0 .1-.12-.04-.1-.1-.1zm.34.48c-.08 0-.12 0-.12.13s0 .13.1.13.13 0 .13-.14-.03-.1-.1-.1zm.14-.6h.1l-.1-.1zm.1-.62l.38.13a1.36 1.36 0 0 0 .36 0c0-.13 0-.2-.1-.24a.75.75 0 0 0-.3 0h-.18a.14.14 0 0 0-.15.15zm.12 5c-.06 0-.08 0-.08.14s0 .13.08.13.1 0 .1-.13-.04-.04-.1-.04zm.23-12.6c-.07 0-.1 0-.1.1s0 .1.1.1.1 0 .1-.1-.04-.02-.1-.02zm.7 9.83a1 1 0 0 0 .1.44.32.32 0 0 0 .32.2h.12l.07-.08.2-.27v-.08a.1.1 0 0 0 0-.06l-.4-.1a2.6 2.6 0 0 0-.4.02zm.34-3.12a.2.2 0 0 0 0 .1v.22c0 .1 0 .24 0 .37s0 .24 0 .34v.22q.1 0 .1-.06a.26.26 0 0 0 .07-.17 1 1 0 0 1 .07-.2h.1l.12-.06v-.16a1.24 1.24 0 0 1 .07-.26c0-.14.07-.22.07-.24a.15.15 0 0 0-.1-.15.8.8 0 0 0-.22-.06.58.58 0 0 1-.2-.08.2.2 0 0 1-.1-.2s-.08.08-.1.17a.68.68 0 0 0 0 .2zm.2 6s0 0-.06 0-.1 0-.06 0 .05.1.07.1.04.07.04 0zm.25-7a.1.1 0 0 0-.12.12v.12l.1-.12zm0-8.93a.2.2 0 0 0 .12.22.8.8 0 0 0 .27 0v-.44a.92.92 0 0 0-.2.05.6.6 0 0 0-.18.08zm0 15.83l.1.2a.53.53 0 0 0 .15.17 1.1 1.1 0 0 0 .07-.13.34.34 0 0 0 0-.13V85a.3.3 0 0 0 0-.14c0-.06-.06-.1-.07-.1h-.13c-.07 0-.1 0-.1.13v.04zm.1-2.55a.55.55 0 0 0 .13-.23 1.27 1.27 0 0 0 0-.22v-.18c0-.07-.05-.13-.15-.17l-.1.17zm.15-2.13c-.08 0-.12 0-.12.13s0 .13.12.13.08 0 .08-.13-.03-.03-.08-.03zm0 1.1a.26.26 0 0 0 .14-.25h-.15zm1.47 1a.23.23 0 0 0-.23.15.9.9 0 0 0 0 .26c.12 0 .2 0 .23-.13a.77.77 0 0 0 0-.2zm.17 3.47a.24.24 0 0 0 .25.26h.48c0-.16-.1-.24-.27-.26zm.3-3.7c0 .17-.06.3-.08.42l-.06.32c0 .12 0 .2 0 .26v.22a.6.6 0 0 1 .1.13 1.42 1.42 0 0 0 .2.22c.06 0 .1 0 .15 0a1.56 1.56 0 0 0 .06-.57s0-.05.06-.1h.06s0-.07 0-.15a1.36 1.36 0 0 0 0-.27 2.5 2.5 0 0 1 0-.27c0-.07 0-.13 0-.15zm.34-4.28a.26.26 0 0 0 .15.23v-.23zm.26 6.9l.14-.15-.14-.1zm1-.23c0 .08 0 .13.07.14h.2a.45.45 0 0 1 .2.12.24.24 0 1 0 .2.2.3.3 0 0 1 .13-.18s0 0 .05 0a.16.16 0 0 0 .1 0v.25c0 .06.06.1.22.1 0-.14 0-.33 0-.57s-.1-.4-.26-.46H228.37v-.45l-.6.65zm.5-6.56l.13.34h.18a.23.23 0 0 1 0-.1.8.8 0 0 0 .05-.13l.1-.46c0-.08-.07-.07-.2 0a.53.53 0 0 1-.3.14zm.52 5.87s0 0 0 .1 0 .08 0 .08.04-.1-.04-.1zm.15.18c-.08 0-.12 0-.12.1s0 .12.12.12.08 0 .08-.1-.07-.06-.12-.06zm.1.1c-.05 0-.08 0-.08.14s0 .13.08.13.06-.05.06-.13-.06-.07-.1-.07zm.1.38l.14-.1h-.14zm.34-8.9s-.08.04-.12.12a1.6 1.6 0 0 0-.12.27 2.56 2.56 0 0 0-.05.27c0 .08 0 .13 0 .13s.1-.05.14-.13.08-.18.1-.27a1.3 1.3 0 0 0 .07-.27c.02-.02 0-.07-.03-.07zm.54 9.38l.12-.1h-.12zM247.35 86.52a.14.14 0 0 0 0-.06v-.06a1 1 0 0 0 0-.18.48.48 0 0 0-.1-.2.58.58 0 0 0-.1-.2.46.46 0 0 1-.1-.16v-.08l-.07-.23a1.26 1.26 0 0 0-.07-.17 1 1 0 0 0-.15-.2 2.22 2.22 0 0 1-.18-.25.27.27 0 0 1 0-.12v-.36a.26.26 0 0 1 0-.1.43.43 0 0 1 .08-.18 1.58 1.58 0 0 1 .14-.2s.04 0 .08-.06a.56.56 0 0 1 .3-.1h.3l.18-.05.18-.06h.34a.55.55 0 0 0 .2-.07.62.62 0 0 1 .17 0l.1-.12.13-.1a1.28 1.28 0 0 1 .3-.07 1.47 1.47 0 0 0 .3-.07l.16-.06a.57.57 0 0 1 .17 0h.72a.84.84 0 0 1 .12.18c.05.1.1.17.14.18h.25a.38.38 0 0 1 .1-.1.92.92 0 0 0 .1-.15.37.37 0 0 0 .06-.15l.04-.18.23-.12a1 1 0 0 0 .2-.12.33.33 0 0 1 .17-.1l.23.1.07.08s.05 0 .07 0a.24.24 0 0 0 .12 0l.12-.06.18-.06.18-.05a.47.47 0 0 1 .23-.14l.26-.13h.2a.5.5 0 0 0 .24 0h.06a.2.2 0 0 0 0-.1h.12s0 0 .1.1h.38s0 0 .1.07a.43.43 0 0 0 .15 0h1.14a1.14 1.14 0 0 0 .3-.1 2 2 0 0 0 .3-.16l.07-.08.06-.12s.05 0 .1.06.1.06.12.06h.12l.12-.12c.06 0 .1-.1.1-.1a2.23 2.23 0 0 0 0 .25 1 1 0 0 0 .05.25.26.26 0 0 0 .08.16c.06.07.1.1.1.1h1.46c0-.08.1-.2.17-.38a1.68 1.68 0 0 1 .2-.33.23.23 0 0 1 .07-.14h.15a1.32 1.32 0 0 0 .37.1h.33s.07 0 .17.06h.79a.27.27 0 0 0 0 .12.56.56 0 0 0 .05.08 2 2 0 0 0 .07.3 2.3 2.3 0 0 1 .06.32l.18.17c.12.1.17.16.17.18a2 2 0 0 1 .17.2 1.14 1.14 0 0 1 .1.16l-.13.22s.06.08.15.1l.2.07v.76c.08 0 .1.08.1.14l.1.1a.3.3 0 0 0 .06.13h.12a2.64 2.64 0 0 0 .1-.25l.13-.24.12-.14c.07 0 .1-.08.13-.08h.4a1.26 1.26 0 0 1-.07.24c0 .12-.06.2-.08.24l-.12.24a.85.85 0 0 1-.1.2.58.58 0 0 1-.07.2 1.47 1.47 0 0 0-.05.18.24.24 0 0 1-.15.1.73.73 0 0 1-.18 0s-.08-.07-.13-.13a.4.4 0 0 0-.13-.14.7.7 0 0 0-.2 0h-.2a.5.5 0 0 0-.07-.17.05.05 0 0 0 0-.06l-.06-.06h-.14s-.05 0-.1.06l-.13.05h-.08a.63.63 0 0 1-.2-.06.55.55 0 0 0-.2-.06.1.1 0 0 1-.1-.1.34.34 0 0 0 .13 0c.06 0 .1 0 .1-.08l.1-.13a.28.28 0 0 0 0-.12s0 0 0-.06l-.1-.07h-.24l-.15.22-.18.27-.06.1v.12l-.07.07a.27.27 0 0 0 0 .08 1.27 1.27 0 0 0-.1-.15c-.07-.07-.12-.1-.15-.1h-.12a1.47 1.47 0 0 1-.05.17.67.67 0 0 0-.05.17 2.23 2.23 0 0 0-.18.2.88.88 0 0 0-.16.2.52.52 0 0 0-.12-.15l-.13-.1h-.34l-.1.1-.14.15-.06.1a.1.1 0 0 0 0 .07h-.1l-.18.08-.17.06a.57.57 0 0 1-.13-.07.3.3 0 0 0-.12-.06h-.23a.9.9 0 0 1-.26 0 .36.36 0 0 1-.04-.1l-.06-.1c0-.1 0-.15-.1-.15h-.13s-.05 0-.1.05l-.12.1a.63.63 0 0 0-.2 0 .54.54 0 0 1-.17 0h-.3l-.47.08-.47.08-.26.06a1 1 0 0 0-.3.1.9.9 0 0 1-.3.12.56.56 0 0 1-.25 0h-.22l-.26.26h-.34s-.08 0-.13.08a.76.76 0 0 1-.1.12H252.13a.64.64 0 0 1-.2 0l-.25-.06-.26-.06h-.1a.83.83 0 0 1-.17.13.46.46 0 0 1-.17.1H250.72l-.13-.07-.16-.06a.55.55 0 0 0-.2-.06h-.1l-.06.06-.06.06-.07.12a.46.46 0 0 1-.07.13h-.06a1.23 1.23 0 0 0-.3 0H249l-.12-.06s-.08 0-.14.1a.64.64 0 0 0-.12.13h-1.53l.1-.25a2.17 2.17 0 0 1 .12-.26.05.05 0 0 0 .03-.08zm.45-7.06a.7.7 0 0 0 0-.22c0-.1 0-.2 0-.34v-.35c0-.1 0-.2 0-.26a.3.3 0 0 0 0-.13c0-.07-.05-.14-.08-.22l-.1-.22a.54.54 0 0 1 0-.15.65.65 0 0 1 0-.18.37.37 0 0 1 .1-.18l.12-.06.12-.06a.56.56 0 0 0 .17-.1.5.5 0 0 1 .2-.1h.11l.23.2s.1.08.27.13a1.35 1.35 0 0 1 .32.13h.12a.84.84 0 0 1 .1-.2c.07-.1.1-.15.12-.17s.1 0 .2 0a.63.63 0 0 0 .23.06.45.45 0 0 0 0-.08.6.6 0 0 1 0-.14.64.64 0 0 1 0-.2c0-.1.08-.14.1-.14h.13s.06 0 .12.1.1.12.14.12H250.82a.24.24 0 0 0 .12 0 .2.2 0 0 1 .1 0 .84.84 0 0 0 .06-.16.6.6 0 0 1 .08-.13c.05 0 .08 0 .08-.1h.14a.3.3 0 0 1 .07.12l.07.13a.26.26 0 0 0 .1.14.6.6 0 0 1 .1-.14.64.64 0 0 0 .12-.15s0 0 .07-.1a.54.54 0 0 1 .07-.12.3.3 0 0 0 0 .13c0 .07.05.1.07.1h.06a.1.1 0 0 0 .1-.1v-.12c0-.05 0-.08-.1-.08a.83.83 0 0 1 .22-.14l.23-.1h.14a.33.33 0 0 1 .06.1.3.3 0 0 0 .06.14h.07a.1.1 0 0 0 .08 0h.3l.45-.12a1.9 1.9 0 0 0 .38-.1.4.4 0 0 1 .14-.07.34.34 0 0 0 .13 0h.25l.23-.24c.1-.14.2-.22.23-.26l.1.08a.33.33 0 0 0 .13 0l.12-.06a.27.27 0 0 1 .14-.06h.1l.13.06.1.06h.1l.18-.07.3-.15a2.1 2.1 0 0 0 .3-.14.66.66 0 0 0 .17-.1l.3-.07.4-.08h.24s0 0 .13.1h.1a1.7 1.7 0 0 0 .42 0 1.58 1.58 0 0 0 .4 0s0 0 .06.05l.08.06h.2a.3.3 0 0 0 .07-.13.43.43 0 0 0 0-.13.2.2 0 0 0 .1 0h.16a.1.1 0 0 1 .07 0h.05a.4.4 0 0 0 .06.13.4.4 0 0 1 .06.13h.1l.08-.1.07-.07h.45a.52.52 0 0 1-.06.14.38.38 0 0 0-.07.17v.08s0 .07.1.13l.13.13h.14c.08 0 .1 0 .1.1a1 1 0 0 0 .06.16 1.38 1.38 0 0 0 .07.2v.06a.12.12 0 0 0 .1 0 .26.26 0 0 0 0 .1l.04.12.23-.1a.38.38 0 0 0 0 .12 1.47 1.47 0 0 0 .1.13l.1.06.13.07s-.08.08-.13.2-.08.2-.1.22V77a.1.1 0 0 0 0 .07h.2a.34.34 0 0 0 .14-.1l.2.5a.56.56 0 0 0 .13-.08.38.38 0 0 1 .13 0h.1v.25h-.23a.87.87 0 0 0-.24.06l-.37.38a.66.66 0 0 1 0 .13.3.3 0 0 1-.06.14h-.25c-.14 0-.2 0-.2 0a.6.6 0 0 0-.2 0l-.2.07s0 0-.07.1a.34.34 0 0 0 0 .14l-.1.1h-.13a.27.27 0 0 0-.1-.05c-.07 0-.1 0-.12 0a1.32 1.32 0 0 0-.36-.08 1.35 1.35 0 0 1-.35-.08.77.77 0 0 1-.2-.15l-.17-.2-.07.07a.15.15 0 0 0-.05.08h-.22l-.18-.1a.46.46 0 0 0-.18-.05l-.34.34h-.11a.25.25 0 0 1-.13 0l-.1-.06h-.27l-.08.08H256.95s-.05 0-.1-.1-.1-.1-.13-.1h-.34a.33.33 0 0 0-.18.1.43.43 0 0 1-.2.1h-1.52a3.13 3.13 0 0 0-.44 0h-.63a1.2 1.2 0 0 1-.22 0l-.23.06a.24.24 0 0 0-.1.06h-.13s-.08 0-.18 0h-.18a.4.4 0 0 1-.17.07l-.2.05a1 1 0 0 1-.35 0h-.34a.92.92 0 0 0-.2.14.76.76 0 0 1-.16.1H249.05a.26.26 0 0 0-.12.08.3.3 0 0 1-.1.07h-.8a.33.33 0 0 1-.15 0zm1.05-1.73h.14v-.12h-.15zm.48.08h.12v-.07h-.16zm1.3-.7s0 0-.04.06a1.2 1.2 0 0 0 0 .2.92.92 0 0 0 0 .18s0 .06.04 0a.35.35 0 0 0 0-.22.6.6 0 0 0 0-.22zm1.17 6.16l.1-.12h-.1zm1.3.37h.06s.07.06.1.06h.16v-.13s0 0-.06-.05-.06 0-.06-.06a.64.64 0 0 0-.1.13.24.24 0 0 0-.1 0zm.15-.85c-.06 0-.1 0-.1 0s0 .08.1.06a0 0 0 0 0 .05 0 .08.08 0 0 0 0-.06zm.68.36q-.1 0-.1.12c0 .07 0 .1.1.1a.1.1 0 0 0 .1-.1c0-.08-.03-.12-.1-.12zm.48-.93a.1.1 0 0 0-.1.12c0 .08 0 .1.1.1s.1 0 .1-.1-.03-.1-.1-.1zm4.6-.84l-.24.25c-.12.14-.2.2-.24.2s0 0-.08.07a.1.1 0 0 1-.06 0v-.06a.16.16 0 0 1 0-.07l.18-.2.2-.17h.2zm-.22.6v.1l-.12-.1zm.1-5.8s-.05 0-.05 0 0 .1.06.07a.05.05 0 0 0 .05-.06s-.02 0-.06 0zm.46 6.73s-.05 0-.05.12 0 .12.04.12a.1.1 0 0 0 .12-.12c0-.1-.04-.13-.12-.13zm.6-7.56s-.07 0-.07 0a.07.07 0 0 0 .07.06s0-.02 0-.06zm1.08-.08s-.06 0-.06-.07.02.02.06.06zm.34 9.42s0-.06 0-.06-.08 0-.08.06a.1.1 0 0 0 .08.05 0 0 0 0 0 0-.05zm.34-2.47v.12h-.1v-.1zm.37 2.7v-.1h-.1zM280.5 82.83h-.2c-.05 0-.1 0-.12-.13a1.27 1.27 0 0 1-.06-.28c0-.1 0-.2 0-.3v-.17a.3.3 0 0 0-.22.14.23.23 0 0 1-.2.1v-.8a.05.05 0 0 1-.06 0 .1.1 0 0 1-.06 0 .8.8 0 0 1 0 .13.3.3 0 0 0 0 .1h-.05s-.24-.02-.24-.02a.42.42 0 0 1-.12-.2l-.1-.24a.5.5 0 0 1 0-.14l-.12-.26-.2-.42-.23-.43a1 1 0 0 1-.1-.24 4 4 0 0 0-.05-.43l-.06-.35c0-.13 0-.22-.05-.3v-.17a3.78 3.78 0 0 1 .08-.6 2.4 2.4 0 0 0 .08-.43 1.1 1.1 0 0 1 .06-.27s.04 0 .13.05l.17.07H278.97a.22.22 0 0 1 0 .1.22.22 0 0 0 0 .1.2.2 0 0 0 0 .07.3.3 0 0 1 0 .1c0 .12 0 .2.07.2h.2a.55.55 0 0 0-.05-.26.58.58 0 0 1-.08-.2.24.24 0 0 1 0-.18.78.78 0 0 1 .26-.16c.13 0 .2 0 .2.1 0-.18.08-.28.2-.3h.37a1.1 1.1 0 0 0-.15-.57.6.6 0 0 0-.48-.3.45.45 0 0 0-.1.36c0 .16 0 .28 0 .35a.93.93 0 0 0-.24 0 1 1 0 0 1-.27 0 .17.17 0 0 1-.15-.07s0-.15.1-.3a.33.33 0 0 0 .23-.06.3.3 0 0 0 .07-.12.8.8 0 0 0 0-.16.45.45 0 0 1 .06-.2 1 1 0 0 1 .22-.2c.12-.1.26-.22.43-.34l.44-.32.24-.22a.24.24 0 0 1 .1-.08l.1-.1c.1 0 .2.08.3.3a1.43 1.43 0 0 0 .2.4s0 0 .08 0 .05-.07.07-.07a1.13 1.13 0 0 0-.12-.33.86.86 0 0 1-.12-.34c.14 0 .2 0 .23-.14a1.15 1.15 0 0 1 .1-.3.86.86 0 0 1 .06-.25.48.48 0 0 1 .08-.17h.06a1.48 1.48 0 0 0 0 .24.2.2 0 0 0 .2.16 3.37 3.37 0 0 1 .3-.76 1.82 1.82 0 0 1 .54-.6.26.26 0 0 1 .18.1.9.9 0 0 1 .18.28 3.16 3.16 0 0 0 .18.27.22.22 0 0 0 .17.1s.05 0 .1-.1a1.25 1.25 0 0 0 .14-.23c0-.1.08-.18.1-.26a.4.4 0 0 0 .07-.16v-.06a.3.3 0 0 0 .1-.1l.1-.07v-.1a.2.2 0 0 0-.13-.2.27.27 0 0 1-.15-.25c.12 0 .2 0 .2.08s.1.1.24.1a.45.45 0 0 1 .06-.25 2.25 2.25 0 0 1 .12-.2 2 2 0 0 0 .13-.26.82.82 0 0 0 .06-.35c0-.13 0-.26-.05-.37s-.1-.2-.28-.23a.24.24 0 0 1 .02.24.5.5 0 0 1-.14.1s0 0-.07 0-.1-.06-.1-.06h-.12a.16.16 0 0 0-.1.07c0 .06-.08.08-.1.08s-.12 0-.12-.1l.12-.1a.3.3 0 0 1 .08-.08.13.13 0 0 0 0-.06.14.14 0 0 1 0-.06h-.06s0 .05-.07.08a.3.3 0 0 0-.1.07c-.1-.23-.22-.34-.38-.33a2 2 0 0 1-.53 0 1.57 1.57 0 0 1 0 .27.33.33 0 0 1 0 .17.14.14 0 0 1-.16 0 .23.23 0 0 1-.14-.07c-.06-.05-.1-.1-.1-.13l-.47.54h-.1a.1.1 0 0 1-.1-.1h-.05a.18.18 0 0 0-.12.13.68.68 0 0 0 0 .2 1.57 1.57 0 0 0-.62.13 2.37 2.37 0 0 1-.65.15c0 .13-.07.2-.16.2h-.46a.22.22 0 0 1-.14 0 .77.77 0 0 0-.14-.3l-.23-.34a2 2 0 0 0-.22-.3.57.57 0 0 1-.14-.2s.06 0 .06-.14v-.16a3 3 0 0 0-.2-.3l-.34-.4c-.1-.13-.2-.28-.3-.42a.74.74 0 0 1-.15-.38c0-.15 0-.23.1-.24h.32a.78.78 0 0 1 .38.08.68.68 0 0 0 .35.1V68a1.2 1.2 0 0 1 0-.27c0-.1.05-.13.1-.13a1.15 1.15 0 0 0 .27-.1c.06 0 .1-.08.1-.1a.28.28 0 0 0 0-.1s0 0 .1 0a.86.86 0 0 1 .33-.06 1.14 1.14 0 0 0 .37 0 1 1 0 0 0 .2-.22.2.2 0 0 1 .2-.1h.05l-.28.57a4.42 4.42 0 0 0 .6.12 2.47 2.47 0 0 0 .62 0c.06 0 .1 0 .1-.05a.6.6 0 0 0 0-.14.9.9 0 0 1 0-.17.14.14 0 0 1 .1-.12 1.2 1.2 0 0 0 0 .14.26.26 0 0 0 .1.15h.1a1.42 1.42 0 0 1 .18-.22.94.94 0 0 0 .2-.2l.12-.07a.2.2 0 0 1 .1 0s.1 0 .2 0a1 1 0 0 1 .2.15v.1a.66.66 0 0 1 0 .26.75.75 0 0 0 0 .26v.06l.04.07a.07.07 0 0 0 .06 0 .54.54 0 0 0 .1-.3v-.34a.82.82 0 0 1 .07-.3.34.34 0 0 1 .2-.18v.6l.05.06c0 .05.08.06.12 0a.5.5 0 0 0 .08-.2s0-.08 0-.1a.32.32 0 0 1 .15 0 1.77 1.77 0 0 1 .4.07c.15 0 .24.12.25.26v.06a.3.3 0 0 1 0 .12.24.24 0 0 0 0 .1v.07s0 .1.1.1h.2c.1 0 .13 0 .15 0s.07-.05.15-.05a.5.5 0 0 1 .2.13l.3.3a2.86 2.86 0 0 1 .3.33.54.54 0 0 1 .13.18 1.83 1.83 0 0 1 .13.26 3.48 3.48 0 0 1 .13.34c0 .1 0 .18.08.2h.22c.05 0 .1 0 .2.12a8.27 8.27 0 0 1 .7.8 1.12 1.12 0 0 1 .25 1 .38.38 0 0 1 .26-.07 1.87 1.87 0 0 1 0 .26.54.54 0 0 1 0 .15.56.56 0 0 0 0 .13.6.6 0 0 0 0 .17.14.14 0 0 0 .1.14s.06 0 .06.08a.2.2 0 0 1-.16.22.43.43 0 0 0-.24.15v.05a.1.1 0 0 0 0 .06s0 0 .07.1a.3.3 0 0 1 0 .1c0 .12-.1.28-.2.5s-.2.33-.36.33a.27.27 0 0 1-.22-.1 1.74 1.74 0 0 1-.1-.17 1.24 1.24 0 0 0-.1-.2.18.18 0 0 0-.18-.1 1.25 1.25 0 0 0 .1.4c0 .07.07.2.13.36h-.06a.42.42 0 0 1-.35-.2 1.48 1.48 0 0 0-.3-.28.1.1 0 0 0-.1 0l-.05.07a.24.24 0 0 0 .08.14l.2.2.17.23a.36.36 0 0 1 .1.12s-.07.06-.17.12-.15.12-.13.16l-.37-.06a1.66 1.66 0 0 0 .1.43c.07.2 0 .3-.07.37a.63.63 0 0 0-.07-.22l-.17-.3a1.27 1.27 0 0 0-.18-.28c-.07-.07-.1-.1-.13-.1a3.77 3.77 0 0 1 .06.58 1 1 0 0 1-.1.44.56.56 0 0 1-.35.3.1.1 0 0 0 0-.08 2.08 2.08 0 0 0-.06-.42.7.7 0 0 1 0-.4v-.1a.07.07 0 0 0 0-.05h-.07a.5.5 0 0 0-.15.3c0 .13 0 .27 0 .4a1.82 1.82 0 0 1-.1.38.2.2 0 0 1-.2.15 1.4 1.4 0 0 1-.27-.35.34.34 0 0 0-.3-.2.87.87 0 0 0 .12.4 1 1 0 0 1 .13.47s-.06.1-.16.1l-.36.08a1.2 1.2 0 0 0-.34.13.32.32 0 0 0-.16.3 1.82 1.82 0 0 0 .2.6 1.2 1.2 0 0 1 .17.57l-.17-.05a.42.42 0 0 1-.14-.1.1.1 0 0 1-.06 0l-.05-.05h-.12a.2.2 0 0 0-.08.06.12.12 0 0 1-.1 0 .13.13 0 0 1-.06 0 .05.05 0 0 0-.08 0l-.17.08h-.17a.3.3 0 0 0 .16.27.35.35 0 0 1 .15.32l-.35.46-.25.3c-.08.1-.12.15-.14.15a.45.45 0 0 1-.15-.14.73.73 0 0 0-.1-.14v-.12l.16-.15c.06-.07.1-.1.1-.13a.24.24 0 0 1 .28.06v-.3a.22.22 0 0 0-.14 0s-.05 0-.1.07 0 0-.07 0a.62.62 0 0 1-.34-.1.65.65 0 0 0-.32-.07.45.45 0 0 0-.48.56 1 1 0 0 1-.66-.2.8.8 0 0 0-.5-.2h-.17s0 0-.07 0l-.08-.07h-.06s0 0-.08.06v.78a.18.18 0 0 0 .17-.1l.1-.16a.86.86 0 0 1 .1-.16.2.2 0 0 1 .14-.07.14.14 0 0 1 .14.08.64.64 0 0 1 0 .2.67.67 0 0 0 0 .2c0 .05.05.08.13.08a.28.28 0 0 1 .08-.06l.12-.05h.08a.68.68 0 0 0-.07.17 1 1 0 0 0 0 .2.82.82 0 0 0 0 .14.1.1 0 0 0 .1.08 2.44 2.44 0 0 1 .38-.7c.2-.27.38-.4.56-.43a.2.2 0 0 1 .17.12 1.73 1.73 0 0 1 .07.27 1.2 1.2 0 0 1 0 .32 1 1 0 0 1 0 .28l.24-.2a.83.83 0 0 1 .28-.2.3.3 0 0 1 .22.12 1.7 1.7 0 0 1 .18.28 2.13 2.13 0 0 1 .14.35 1.54 1.54 0 0 0 .12.3 1.47 1.47 0 0 0-.33.9 8.3 8.3 0 0 0 0 1 .45.45 0 0 0 .1.26 1 1 0 0 1 .1.27.52.52 0 0 1-.45-.17.46.46 0 0 0-.4-.18.4.4 0 0 1 0 .1v.1s.06 0 .1.1.06.08.06.1a.12.12 0 0 1-.08 0 .57.57 0 0 1-.2-.07l-.22-.1s-.54.08-.6.08zm-2.2-14.12s0-.05-.08-.05 0 0 0 .06 0 .06 0 .06.07 0 .07-.05zm.53 9.6h.23c0-.1-.1-.17-.26-.2zm1.93 11.57a.2.2 0 0 0-.1 0s0 0-.07 0h-.07c0-.15 0-.25-.07-.28a.28.28 0 0 1-.07-.2h.18c.08 0 .1-.1.1-.18l-.37-.4-.3-.27a.6.6 0 0 0-.2-.12.32.32 0 0 0-.14.1c-.06.07-.1.1-.1.12l-.3-.6a2 2 0 0 1-.23-.67c0-.16.07-.24.2-.26a.32.32 0 0 0 .26-.17c.18-.32.37-.64.57-1a1.36 1.36 0 0 1 .86-.6s.05 0 .1-.07.08 0 .1 0a.27.27 0 0 1 .13 0c.05 0 .07.06.07.1a.6.6 0 0 1 0-.16.6.6 0 0 0 0-.16h.05q.18 0 .27.27c.07.18.13.38.2.6s.1.4.16.6.13.3.2.32c0-.15 0-.24.12-.28a.4.4 0 0 1 .1.28.25.25 0 0 1 0 .2.62.62 0 0 0-.04.26.24.24 0 0 0 .1.1l.12.08s0 0 .1 0a.8.8 0 0 0 .05.33 1.6 1.6 0 0 1 .08.3.45.45 0 0 1-.45.5.37.37 0 0 1-.37-.2.54.54 0 0 0-.15.26c0 .14-.1.3-.13.44a3.44 3.44 0 0 1-.1.4c0 .13-.08.2-.12.2a.25.25 0 0 1-.12 0 .1.1 0 0 1-.08 0h-.06c-.15 0-.23 0-.25.14s-.1.16-.18.16zm-1.22-11.5a.2.2 0 0 1 0 .1.6.6 0 0 0 .05.1h.1s0 0 .06 0v-.04c0-.1-.1-.14-.22-.14h-.05s.03-.02 0-.02zm.1-9.92h.1v-.2h-.1zm.1 12.6s-.05 0 0 .1 0 .1.07.1.1 0 .08-.1a.1.1 0 0 0-.17-.1zm0-3.35h.07c.1 0 .12-.1.1-.22s0-.2 0-.23a.23.23 0 0 0-.2.3zm0 2.86h.1v-.2h-.1zm.28 6.27s-.05 0-.05.1 0 .1.05.07a.1.1 0 0 0 .06-.1s-.05-.07-.1-.07zm.1-8.65c.23 0 .35-.1.35-.3h-.4zm0 8.2l.1-.1-.1-.1zm.07-10.3a1.37 1.37 0 0 0 0 .16.15.15 0 0 0 .1.13.2.2 0 0 0 .1-.16 1.37 1.37 0 0 0 0-.15zm.05-7.5s-.05.08 0 .14 0 .1.07.07.05 0 0-.1-.03-.1-.1-.1zm.3 20.3v-.12h-.1zm-.1-20.27a.58.58 0 0 1 .04.23c0 .12.05.18.14.2s.1-.08.1-.2-.1-.22-.3-.22zm.22.7c-.07 0-.1 0-.1.13s0 .12 0 .24 0 .2 0 .24h.16a.44.44 0 0 1 0-.13.5.5 0 0 1 0-.12.36.36 0 0 0 0-.1v-.12q.03-.16-.06-.16zm0-1.35a.3.3 0 0 0 .23.1v-.27c-.08-.04-.15.02-.23.13zm.12 20.66a2.48 2.48 0 0 0 .07.52 3.36 3.36 0 0 1 .1.54c.1 0 .18-.07.24-.2a.86.86 0 0 0 .1-.26.26.26 0 0 1-.15-.14 1.2 1.2 0 0 0-.07-.2 2 2 0 0 0-.1-.2.34.34 0 0 0-.2-.17zm.38-11.76c0 .15.1.22.2.22s0-.26.1-.44a3.3 3.3 0 0 1 .48-.55 3.77 3.77 0 0 1 .6-.48 1.07 1.07 0 0 1 .47-.2 1.35 1.35 0 0 1-.26 0c-.13 0-.2 0-.23 0s-.1 0-.15.13a.9.9 0 0 1-.14.17.24.24 0 0 1-.1 0l-.13-.07c-.1 0-.18.08-.25.24s-.1.25-.1.27a.44.44 0 0 0-.08-.2c-.06-.1-.1-.14-.14-.14s-.07-.1-.1-.1a.6.6 0 0 1-.07.4.53.53 0 0 1-.4.18v.12a.23.23 0 0 1 .1.14.43.43 0 0 1 0 .14.77.77 0 0 1 .08-.13s.07-.07.1-.07h.1a.43.43 0 0 1-.05.24.43.43 0 0 0-.05.16zm-.22-1.23h.08v-.1h-.08zm.5 12.57a.43.43 0 0 0-.23.06c-.07 0-.1.1-.08.23.23-.02.34-.12.32-.27zm-.25-.82h.12l-.1-.08zm.18-9.47c-.06 0-.08 0-.08.1s0 .1.08.1.06 0 .06-.1-.02-.08-.06-.08zm0 11.4c-.06 0-.08.07-.07.14s0 .1.1.1.06 0 0-.13.05-.1 0-.1zm0-18.66l.1-.1h-.1zm0 7.46s0 .06.05.06.05 0 0 0a.1.1 0 0 0 0-.04zm.08 5.36h.44a.2.2 0 0 1 .2.14.87.87 0 0 0-.14.2.52.52 0 0 1-.18.17q-.1 0-.18-.2a.6.6 0 0 0-.08-.3zm.2-15.83a1 1 0 0 0 0 .18.23.23 0 0 0 .07.14v-.3zm.06 7.07s-.06 0-.06 0 0 .07.06 0 .06 0 .06 0-.02.02-.06.02zm.12.48s0 0 0 .06 0 .07 0 .07a.1.1 0 0 0 .05-.07 0 0 0 0 0-.06-.03zm.08 12.5h.26l-.17-.07zm.8-20.72a.4.4 0 0 0-.43.48v.2a1.27 1.27 0 0 0 .3-.26.6.6 0 0 0 .1-.4zm-.37.65s-.06 0-.06.1 0 .13.05.13.1 0 .1-.1a.1.1 0 0 0-.1-.1zm.48 7.35s0 .1.13.2.15.14.2.14l.35-.77-.2-.06H282.88a.5.5 0 0 0-.04.2 1.67 1.67 0 0 0 0 .2zm.25-7.15c-.05 0-.08 0-.07.1s0 .1.1.1.06 0 0-.1.02-.08-.02-.08zm0 9.1s0-.13.1-.28l.1-.23h.1s0 0 .07 0l.1.06a.43.43 0 0 0-.06.2.43.43 0 0 0 0 .23 1.78 1.78 0 0 0 .07.34.6.6 0 0 0 .23.34h-.06a.53.53 0 0 1-.48-.2.7.7 0 0 1-.15-.44zm.14-.8a.08.08 0 0 0 .1.1h.1a1.16 1.16 0 0 0 0-.17c0-.07 0-.1-.1-.08s0 0-.06.07a.33.33 0 0 0 .03.1zm.4-3.9a.72.72 0 0 1-.3.62.2.2 0 0 0 0-.1.27.27 0 0 1 0-.13.58.58 0 0 1 .05-.3c0-.05.1-.07.28-.07zm-.14-3.35s.08 0 .14-.1a1.43 1.43 0 0 0 .16-.24c0-.1.1-.2.12-.27a.42.42 0 0 0 .06-.14.38.38 0 0 0-.42-.35h-.12zm0 1.2h.1a.3.3 0 0 0-.1-.2zm.23-2.82a.5.5 0 0 0 .26.3c-.04-.2-.12-.3-.25-.27zm.4 1.3a.25.25 0 0 0-.25.2 1.34 1.34 0 0 0-.06.36.33.33 0 0 0 .26-.23.6.6 0 0 0 .04-.32zm.06 1.6s-.06 0-.06.1 0 .08.06.08a.08.08 0 0 0 .1-.1c.03-.03-.04-.05-.1-.05zm.37 1.93a1.06 1.06 0 0 1 0 .2.16.16 0 0 0 .1.12v-.32zm.14-2.07h.12v-.08h-.13zm.23-.6a2 2 0 0 0 0 .35c0 .12.1.17.22.15h.17l-.16-.5zm.1 4s-.04 0-.04.1 0 .1.05.1a.12.12 0 0 0 .1-.12c0-.08-.03-.1-.1-.08zm.24-1.58a.53.53 0 0 0 .06.24.18.18 0 0 0 .2.13h.08a.6.6 0 0 1 .06-.33.72.72 0 0 0 0-.35.6.6 0 0 0-.08-.2.45.45 0 0 1-.1-.2 1.94 1.94 0 0 1-.2.33.53.53 0 0 0 .03.37zm.3 1.87a.16.16 0 0 0-.12.13.26.26 0 0 0 0 .16h.14zm.15-.82c0 .06 0 .1 0 .14a.55.55 0 0 0 0 .17v.1h.07zm.13-1.9s-.05 0-.05 0 0 .07.05.07.06 0 .06-.07-.03 0-.07 0zm.9 3.15s0 .05 0 .1-.08.1-.06.12a3 3 0 0 0-.14.43 2.74 2.74 0 0 0-.1.3c0 .1-.06.17-.07.2a.26.26 0 0 1-.12.12l-.1.1a.1.1 0 0 1 0-.07v-.06a.92.92 0 0 1 .07-.42.73.73 0 0 1 .23-.24 1.2 1.2 0 0 0 .22-.23.7.7 0 0 0 .1-.36zm-.38-1.8h.1v-.1zm.9-.53s0 0 0 .07 0 .06 0 0a.1.1 0 0 0 .06-.08z"/></svg>