<svg xmlns="http://www.w3.org/2000/svg" width="854.557" height="577.897" viewBox="0 0 854.55666 577.89722"><path fill="#ccc" d="M151.56 268h110v123h-110z"/><path fill="#e6e6e6" d="M95.56 576h-56l-6-48h68l-6 48zM208 541.23l-1.88 25.84a8.22 8.22 0 0 0 8.7 8.8l13.27-.8a4.2 4.2 0 0 0 3.8-5.2l-7.36-29.46zM319 556.5c15.62 3.66 26.78 8.86 34.1 15.88a15.04 15.04 0 0 0 9.63 4.13c4.6.25 8.35-.26 11.18-1.53a4.43 4.43 0 0 0 2.63-3.65 4.5 4.5 0 0 0-1.88-4.16L337.6 540.8l-15.73 6.3-3.67 3.67a3.63 3.63 0 0 0 .8 5.74z"/><path fill="#2f2e41" d="M270.94 134.7l-105.87-1c.26-15.4 3.85-30.55 11.7-44.1 5.14-8.9 5.03-18.58 3.8-26.74-1.92-12.6 2.53-25.48 12.43-33.5a39.92 39.92 0 0 1 26.84-8.88l2.06.1a40 40 0 0 1 32.87 19.76 33.33 33.33 0 0 1 3.96 20.3c-.67 6.6.93 13.27 4.7 20 6.47 14.78 7.87 33.7 7.5 54.05z"/><path fill="#11999e" d="M341.77 542.18L321 547.6 219.8 327.16l6.34 215.02h-20.78c-22.2-101.16-62.3-217.9-44.27-254.77l107.5-6.3z"/><circle cx="218.909" cy="69.685" r="28.006" fill="#ffb9b9"/><path fill="#ffb9b9" d="M243.3 121.18l-46.07-2.7c4.5-10.37 6.32-20.35 4.5-29.82h34.34c-.07 7.27 3.54 19.84 7.23 32.52z"/><path fill="#11999e" d="M272.2 289.22l-101.17 7.22 10.4-179.32 17.6-4.97 19.88 4.5 19.88-9.93 12.65 4.52 20.78 177.98z"/><path fill="#e6e6e6" d="M188.2 418.4l-69.12-15.8c20.55-68.15 57.57-224.05 45.62-279.6l36.14-16.27zM154.77 221.46l-26.2-16.26 22.34-65.44a30.87 30.87 0 0 1 13.5-16.03l7.53-4.36-4.52 65.95zM332.3 403.5c-21.82 12.62-76.35 19.66-100.3 10.84-1.75-61.57-5.2-235.74 5.88-309.42l39.75 16.26-3.6 48.8C255 211.7 310.2 357.04 332.28 403.5zM329.13 213.33l-24.4-8.13-32.52-37.04 5.43-46.98 54.2 75.9-2.7 16.25z"/><path fill="#ffb9b9" d="M252.68 248.5a6.8 6.8 0 0 0 8.1 5.1l20.7-4.68-2.98-13.22-20.7 4.7a6.78 6.78 0 0 0-5.12 8.1z"/><path fill="#2f2e41" d="M243.3 62.46c-15.55-6.4-30.92-6.86-46.07-.9l-6.33-22.6h57.82z"/><path fill="#e6e6e6" d="M271.3 233.2l11.75 21.7c19.76-5.52 36.88-22.9 53.3-43.38l-4.5-14.45-28.02 7.23z"/><path fill="#3f3d56" d="M262.73 188.5h-3.62c0-51.13-10.5-86.74-20.77-86.74l-.9-3.62c9.2 0 15.06 14.83 18.36 27.26 4.46 16.86 6.93 39.27 6.93 63.1zM179.6 175.84H176c0-46.8 10.6-75.9 26.2-75.9l-.9 3.62c-10.8 0-21.7 22.35-21.7 72.28z"/><circle cx="260.918" cy="189.389" r="9.034" fill="#3f3d56"/><path fill="#3f3d56" d="M165.16 197.52h-3.62c0-12.95 7.3-23.5 16.26-23.5v3.62c-6.97 0-12.64 8.92-12.64 19.88zM194.06 197.52h-3.6c0-10.96-5.68-19.88-12.66-19.88v-3.6c8.97 0 16.26 10.53 16.26 23.48z"/><circle cx="192.258" cy="198.423" r="3.614" fill="#3f3d56"/><circle cx="163.348" cy="198.423" r="3.614" fill="#3f3d56"/><path fill="#11999e" d="M118.18 165.2l22.54 4.02 51.54 73.28-27.38-6.45-46.7-70.86z"/><path fill="#3f3d56" d="M114.18 164.3a1.92 1.92 0 0 0-1.58 2.97l48.18 73.08a1.9 1.9 0 0 0 1.16.82l22.4 5.27a1.9 1.9 0 0 0 2-2.97l-52.88-75.2a1.9 1.9 0 0 0-1.23-.78l-17.7-3.17a2.08 2.08 0 0 0-.35-.03z"/><path fill="#ffb9b9" d="M144.23 216.55l1.34 13.5 21.12-2.1a6.78 6.78 0 0 0-1.35-13.5z"/><path fill="#e6e6e6" d="M125.86 215a17.43 17.43 0 0 0 17.4 17.3h3.48l2.53-21.07-20.94-7.54zM442.56 0h412v217h-412z"/><path fill="#fff" d="M454.56 205h388V12h-388z"/><path fill="#3f3d56" d="M484.56 40h138v138h-138z"/><circle cx="589.557" cy="99" r="4" fill="#11999e"/><circle cx="574.557" cy="85" r="4" fill="#11999e"/><path fill="#11999e" d="M572.56 99a7.95 7.95 0 0 0-4.17 1.18 25.12 25.12 0 0 0-3.88-4.53c.02-.22.04-.43.04-.65A8 8 0 0 0 551 89.24a24.5 24.5 0 0 0-6.45-.05c0-.08 0-.14 0-.2a8 8 0 1 0-13.25 6.02 25.14 25.14 0 0 0-3.63 3.83 8 8 0 1 0-5.1 14.15c0 .33 0 .66 0 1a25.05 25.05 0 0 0 .7 5.97 15 15 0 1 0 19.58 18.58 24.97 24.97 0 0 0 16.34-2.42 8 8 0 1 0 10.48-10.5 24.86 24.86 0 0 0 2.85-10.63h.03a8 8 0 0 0 0-16z"/><path fill="#e6e6e6" d="M530.56 37h40v6h-40z"/><path fill="#3f3d56" d="M660.56 40h138v138h-138z"/><circle cx="755.757" cy="131.8" r="1.8" fill="#11999e"/><circle cx="749.007" cy="125.5" r="1.8" fill="#11999e"/><path fill="#11999e" d="M748.1 131.8a3.58 3.58 0 0 0-1.87.53 11.3 11.3 0 0 0-1.74-2.04c0-.1 0-.2 0-.3a3.6 3.6 0 0 0-6.1-2.6 11.03 11.03 0 0 0-2.9-.02c0-.02 0-.05 0-.08a3.6 3.6 0 1 0-5.96 2.7 11.3 11.3 0 0 0-1.63 1.73 3.6 3.6 0 1 0-2.3 6.37h.02c0 .15 0 .3 0 .45a11.27 11.27 0 0 0 .3 2.7 6.75 6.75 0 1 0 8.82 8.35 11.24 11.24 0 0 0 7.35-1.1 3.6 3.6 0 1 0 4.7-4.7 11.2 11.2 0 0 0 1.3-4.8 3.6 3.6 0 0 0 0-7.2z"/><circle cx="769.878" cy="97.642" r="1.8" fill="#11999e"/><circle cx="774.113" cy="89.437" r="1.8" fill="#11999e"/><path fill="#11999e" d="M767.8 90.28a3.58 3.58 0 0 0-1.02-1.66 11.3 11.3 0 0 0 1.5-2.23c.1-.03.2-.05.28-.08a3.6 3.6 0 0 0 .84-6.57 11.03 11.03 0 0 0-.76-2.8c.03 0 .05 0 .08-.02a3.6 3.6 0 1 0-4.22-5 11.3 11.3 0 0 0-2.1-1.1 3.6 3.6 0 1 0-6.76-.5c-.14.04-.3.08-.43.12a11.27 11.27 0 0 0-2.5 1.04 6.75 6.75 0 1 0-5.65 10.73 11.24 11.24 0 0 0 3.04 6.8 3.6 3.6 0 1 0 5.82 3.25 11.2 11.2 0 0 0 4.95-.06 3.6 3.6 0 1 0 6.93-1.94z"/><circle cx="700.162" cy="73.181" r="1.8" fill="#11999e"/><circle cx="690.958" cy="73.919" r="1.8" fill="#11999e"/><path fill="#11999e" d="M695 78.83a3.58 3.58 0 0 0-.87 1.74 11.3 11.3 0 0 0-2.68-.1c-.06-.06-.13-.13-.2-.2a3.6 3.6 0 0 0-6.03 2.76 11.03 11.03 0 0 0-1.98 2.13c-.02-.02-.03-.04-.05-.06a3.6 3.6 0 1 0-2.04 6.23 11.3 11.3 0 0 0 .18 2.37 3.6 3.6 0 1 0 3.15 6c.1.1.2.2.32.3a11.27 11.27 0 0 0 2.2 1.57 6.75 6.75 0 1 0 12.1-.87 11.24 11.24 0 0 0 4.17-6.16 3.6 3.6 0 1 0-.32-6.67 11.2 11.2 0 0 0-2.67-4.18h.02a3.6 3.6 0 1 0-5.32-4.87z"/><path fill="#e6e6e6" d="M706.56 37h40v6h-40zM25.18 510.24c14.42 19.3 44.35 21.35 44.35 21.35s6.55-29.3-7.87-48.6-44.35-21.34-44.35-21.34-6.54 29.27 7.88 48.58zM98.63 517.5c-9.5 12.75-29.26 14.1-29.26 14.1s-4.33-19.33 5.2-32.08 29.25-14.08 29.25-14.08 4.33 19.32-5.2 32.06z"/><path fill="#3f3d56" d="M0 575.66h519.56v2.24H0z"/></svg>