<svg xmlns="http://www.w3.org/2000/svg" width="1099.2" height="725.77" xmlns:xlink="http://www.w3.org/1999/xlink"><defs><linearGradient id="a" x1="837" x2="989.66" y1="580.8" y2="580.8" gradientTransform="matrix(-1 0 0 1 1862 0)" gradientUnits="userSpaceOnUse"><stop offset="0" stop-color="#808080" stop-opacity=".25"/><stop offset=".54" stop-color="#808080" stop-opacity=".12"/><stop offset="1" stop-color="#808080" stop-opacity=".1"/></linearGradient><linearGradient id="b" x1="-106.89" x2="-106.89" y1="588.73" y2="244.28" gradientTransform="matrix(-1 -.04 -.04 1 494.48 21.29)" xlink:href="#a"/></defs><title>compose music</title><circle cx="985.58" cy="371.09" r="21.63" fill="#11999e" opacity=".1"/><circle cx="1062.95" cy="274.65" r="36.25" fill="#11999e" opacity=".1"/><circle cx="455.32" cy="27.78" r="21.63" fill="#11999e" opacity=".1"/><circle cx="703.43" cy="52.64" r="21.63" fill="#11999e" opacity=".1"/><circle cx="36.25" cy="326.22" r="36.25" fill="#11999e" opacity=".1"/><path fill="#11999e" d="M608.1 119.66c-64.7-2.4-126.35-24.85-185.2-49.4S305.7 18.5 242.6 5.48c-40.63-8.38-87.1-9.57-119.83 13.83-31.55 22.56-41.73 61.4-47.17 97.45-4.12 27.14-6.54 55.7 4.74 81.1 7.83 17.64 21.74 32.46 31.36 49.35C145.17 306 121.5 378.5 85.24 435.9c-17 26.9-36.74 52.6-49.87 81.25s-19.23 61.5-7.77 90.74c11.38 29 38.5 50.73 67.9 66 59.7 31.08 130 40 198.6 45 151.83 11.15 304.47 6.32 456.7 1.48 56.33-1.8 112.92-3.6 168.34-13 30.78-5.2 62.55-13.45 84.9-33.36 28.36-25.27 35.4-68.07 16.38-99.76-31.88-53.16-120-66.37-142.3-123.42-12.27-31.4.32-66.38 18.15-95.5 38.23-62.48 102.33-117.3 105.7-188.7 2.32-49-28.5-98.17-76.13-121.38-49.94-24.33-119.18-21.27-156 19-37.92 41.63-104.6 57.54-161.73 55.4z" opacity=".1"/><path fill="url(#a)" d="M872.34 482.75a5.9 5.9 0 0 0 1.33 3.46 19.66 19.66 0 0 0 5.32 4.53v5.42s16 13.37 19.28 18.42c3.17 4.82 6.4 9.73 10.92 13.32a9.85 9.85 0 0 0 4.07 2.15h.27a4.23 4.23 0 0 1-1.56 1 3.7 3.7 0 0 0 4.36 3.13 7.3 7.3 0 0 0 2.16-1.08l6.34-4.1a18.16 18.16 0 0 0 2.95-2.2c1.17-1.2 2-2.7 3.15-3.9 2-2.1 4.84-3.33 6.23-5.83.87-1.56 1-3.4 1.56-5.12.35-1.12.86-2.18 1.2-3.3a11.93 11.93 0 0 0 .4-2.06c.23.18.46.37.7.55.5-.32 1.43.52 1.2 1.06s-.74.94-.92 1.5c-.4 1.28 1.18 2.23 1.84 3.4s.32 2.67.4 4 .67 2.93.86 4.42c.46 3.48-1.26 7.15 0 10.44a3.3 3.3 0 0 0-3.25 2.53 9.58 9.58 0 0 0 .13 4.44 6.12 6.12 0 0 0-3 5.6 1.37 1.37 0 0 1-.14 1 1.42 1.42 0 0 1-.57.32 5.64 5.64 0 0 0-3.5 5.24 2.6 2.6 0 0 1-.1 1.1 2.63 2.63 0 0 1-.8.85 6.52 6.52 0 0 0-2.44 5.1 3.7 3.7 0 0 0 1.72 3.34h.07a18 18 0 0 0-6 11.38 46.76 46.76 0 0 0 .78 11.8h.36c0 .1 0 .17 0 .16s0 .08 0 .12a5.25 5.25 0 0 0 .56 1.7 24.36 24.36 0 0 1 2.15 8.76 7.76 7.76 0 0 0 .3 2.2 11.14 11.14 0 0 0 1.14 1.95c1.33 2.17 1.64 4.8 2.1 7.3a57.72 57.72 0 0 0 2.54 9.57c1.53 4.24 3.6 8.58 2.9 13a13 13 0 0 0-.4 3.2 9.4 9.4 0 0 0 1.25 3.38c.5 1 1 2.06 1.4 3.12a2.52 2.52 0 0 0 .62 1.7c.12.32.22.66.32 1s.17.52.25.8a10.32 10.32 0 0 1 .3 1.35l-.05 1.04v1a2.5 2.5 0 0 1-.48.9 3.58 3.58 0 0 1-.27.28l-.24.27a1.8 1.8 0 0 0-.28.38 1.87 1.87 0 0 0-.08 1.15c0 .15.06.3.1.45.25 1.08.52 2.16.8 3.23.07.34.16.66.24 1 .22.85.44 1.7.67 2.54v.1l.15.57.57 2.07c.12.4.24.8.35 1.22l.44 1.48q.5 1.74 1.05 3.48c3.58 11.78 7.4 23.5 9.77 35.57a3.83 3.83 0 0 0 1.43 2.14 8.24 8.24 0 0 0 2.5 1.34c.22 1.78.8 3.94.86 5 .22 3.5.38 7.22-.9 10.4a.84.84 0 0 0-.75.24 31 31 0 0 0-2.28 2.43l-4.7 5a7.75 7.75 0 0 0-1.05 1.3 4.5 4.5 0 0 0-.45 3.68 5 5 0 0 0 2.4 2.86 4 4 0 0 1 .77.44 4.5 4.5 0 0 0 .46.4 1.82 1.82 0 0 0 1 .2 35.7 35.7 0 0 0 7.87-1.35 6.3 6.3 0 0 0 3.25-1.54 6.08 6.08 0 0 0 1.1-2.16l.95-2.6a29.6 29.6 0 0 0 1.43-4.85 10 10 0 0 0-.25-5 1 1 0 0 0-.23.4c.23-1.44.45-2.9.68-4.36.07-.44.13-.88.2-1.33.3 3.9-.28 7.8-.1 11.7a13.65 13.65 0 0 0-.4 2.2c.27 3.58 1.76 7.5 4.65 9.62a4.75 4.75 0 0 0 1.6.82 5.62 5.62 0 0 0 1.63 0 20.9 20.9 0 0 0 6.24-1.18 7.67 7.67 0 0 0 4.5-4.26 10 10 0 0 0 .44-3.08 11.83 11.83 0 0 0-.28-3.25 24.8 24.8 0 0 0-1.64-3.8 36.17 36.17 0 0 1-1.86-5.57l-.87-3.17c-.24-.9-.5-1.8-.8-2.67a4.5 4.5 0 0 0-1.1-2.1c-.37-.3-.6-.3-.77-.15 0-.12 0-.23 0-.34a35.86 35.86 0 0 0 .23-3.7c-.23-2-1.82-3.64-2.85-5.42a10.56 10.56 0 0 1-1.14-2.86c-.05-.22-.1-.43-.13-.66a2.33 2.33 0 0 1 .57-.37l1.78 1c-1.57-11.8-.74-24.17-5.32-35.15-2-4.78-5.85-9.76-5.42-14.9a4.2 4.2 0 0 1 .47-6.7c.77-.43 1.72-.63 2.25-1.34a3.63 3.63 0 0 0 .5-1.3 204.58 204.58 0 0 1 9.9-29.64c.88-2.1 1.8-4.2 2.73-6.3l3.1-7.04 3.78-8.58c1.3-2.9 2.58-6.2 1.37-9.1-.48-1.15-1.33-2.24-1.2-3.47a21.78 21.78 0 0 1 .73-2.28 5.7 5.7 0 0 0-.2-2.5c-.24-1.07-.52-2.15-.8-3.22a18 18 0 0 1 2.4.46c.48-.8-.3-1.75-.76-2.57a8.7 8.7 0 0 1-.87-3.58l-1-10.1a17.9 17.9 0 0 1-.08-4.2c.2-1.47.76-2.88 1.05-4.36.55-2.83 0-5.75.18-8.64a38.74 38.74 0 0 1 1.32-7.52c.1-.37.17-.73.26-1.1a6 6 0 0 0 1.46.25h1.24a4 4 0 0 0 .55-.14h.12a6 6 0 0 0 .6-.22c-.25-.5-.47-1-.68-1.54-.1-.2-.18-.42-.26-.63s-.23-.58-.33-.88-.2-.55-.28-.82-.15-.46-.22-.7-.2-.62-.28-1-.18-.65-.27-1l.15-.3a8.77 8.77 0 0 0 1.65 1.13c2 3.45 3.8 7 5.48 10.58a3.36 3.36 0 0 0 .5-1.28 6.2 6.2 0 0 0 .72.9 10.6 10.6 0 0 0 2.33 1.72 6 6 0 0 0 2.76 1 5.15 5.15 0 0 0 3.53-1.53c2.9-2.54 4.36-6.33 5.7-10a75.3 75.3 0 0 0 4.3-14.72c.83-5.43.48-11.07 2-16.34-1.38-2.76-2.26-5.8-3.82-8.48a37.92 37.92 0 0 1-2.64-4.95 17.1 17.1 0 0 1-.46-11.43 1.57 1.57 0 0 0-1.83.1 3.83 3.83 0 0 0-1.1 1.6 14.2 14.2 0 0 0-1.08 6.72 2.68 2.68 0 0 1-.2 1.63 2.06 2.06 0 0 1-1.77.75 15.34 15.34 0 0 1-4.12-.75 38.28 38.28 0 0 0-11.48-1.12 9.1 9.1 0 0 0-1-1l-.43-.34-.44-.34-.22-.18a5 5 0 0 1-.42-.37 2.77 2.77 0 0 1-1-1.75 2.25 2.25 0 0 1 0-.26 1.94 1.94 0 0 1 0-.24 3.38 3.38 0 0 1 .23-.7 4.7 4.7 0 0 1 .22-.45l.1-.23c0-.07.07-.15.1-.22a6.6 6.6 0 0 0 .33-.84 6.13 6.13 0 0 0 .2-.87 6.54 6.54 0 0 0 .1-.88c0-.3 0-.6 0-.9s0-.3 0-.45a9.1 9.1 0 0 0-.37-1.78 9.87 9.87 0 0 0-.48-1.3 14.16 14.16 0 0 0-.85-1.57 24.18 24.18 0 0 0-2.14-2.9l-.6-.7-.6-.68a23.75 23.75 0 0 1-1.74-2.13 8.28 8.28 0 0 1-1-1.78c-.08-.2-.15-.42-.2-.64a6.5 6.5 0 0 1-.2-1.24c0-.13 0-.27 0-.4a15.44 15.44 0 0 1 .1-1.68c.07-.78.18-1.57.3-2.37.06-.52.14-1.05.2-1.58 0-.26.07-.53.1-.8.07-.52.13-1.05.17-1.58a15.24 15.24 0 0 0-.26-4.63 8.77 8.77 0 0 0-.47-1.47 9.4 9.4 0 0 0-1-1.8 13 13 0 0 0-5.56-4.33 25.6 25.6 0 0 0-5.1-1.63c-.7-.15-1.38-.28-2.07-.4-10.4-1.66-21.44 1.5-28 10-3.42 4.43-6.33 9.4-7.57 14.84s-.68 11.5 2.4 16.18c1.28 2 3 3.68 4.12 5.74.94 1.68 1.5 3.57 2.5 5.2a12.3 12.3 0 0 0 5.56 4.68l-.44.4a13.48 13.48 0 0 0-3.1.06c-1.07.18-2.1.6-3.17.72-1.32.17-2.67-.1-4 .08-2.46.32-4.48 2-6.35 3.65-2.2 1.92-4.54 4.15-4.7 7v.1l-1.48 2a7.9 7.9 0 0 0-.92 1.44c-.6 1.4-.26 3-.58 4.48a9.58 9.58 0 0 1-1.16 2.67 60.07 60.07 0 0 1-5 7.45 12.64 12.64 0 0 1-3.1 3.08 5.6 5.6 0 0 1-3.25.92 20.77 20.77 0 0 1-4.74-3.17 30.57 30.57 0 0 1-4.2-5.2c-2.38-3.44 5 6.82 2.62 3.38l-21.34-35.56a29 29 0 0 1-.84-5.06c0-.65-.27-1.5-.93-1.53a1.13 1.13 0 0 0-.74.37 4.34 4.34 0 0 0-1.4 3.7 5.13 5.13 0 0 0-3.26.58 1.87 1.87 0 0 0-.4 2.66v.28a1.42 1.42 0 0 0-.76 1.5 5.08 5.08 0 0 0-3.5.17c-1.06.6-1.46 2.32-.44 3a3.07 3.07 0 0 0-1.96 2.9zm133.68 5.1a16.52 16.52 0 0 0 1.87.48 29.85 29.85 0 0 1 5.8 2 3.18 3.18 0 0 1 1.5 1.13 3.36 3.36 0 0 1-.18 2.84l-2.64 7.13c-.42 1.12-.83 2.24-1.35 3.3-.2.44-.43.87-.66 1.3q-.12-.37-.24-.7a58.5 58.5 0 0 1-1.9-6.64c-.44-1.95-.8-3.9-1.12-5.87a28.64 28.64 0 0 0-1.1-4.98zm-2.76-5.6l.2.15a2.25 2.25 0 0 1 .7.48 1.07 1.07 0 0 1 0 1zm-4.77-6.86l3.15.45a4.15 4.15 0 0 1 2.13.73 1.43 1.43 0 0 1 .3 2 4.76 4.76 0 0 1-.7.47 2 2 0 0 0-.76 2.07 22.4 22.4 0 0 0-1.8-2.8 13.9 13.9 0 0 0-2.12-2.17c-.07-.25-.13-.5-.2-.76zM968.1 702.7a11.28 11.28 0 0 0 1.17 0 11.23 11.23 0 0 0-.2 2.84z" transform="translate(-50.4 -87.11)"/><path fill="#3a3768" d="M921.92 339.1c5.5.9 11.6 3 13.7 8.15 1.57 3.9.35 8.26 0 12.44a9.44 9.44 0 0 0 .1 3.3 11.6 11.6 0 0 0 2.9 4.55 24.24 24.24 0 0 1 4.2 5.85 8.52 8.52 0 0 1 .27 7 5.1 5.1 0 0 0-.7 1.84c-.07 1.43 1.42 2.33 2.52 3.24 4.12 3.4 3.94 9.62 4 15a75.72 75.72 0 0 0 7.16 31.64 9.67 9.67 0 0 1-10.82-1.4 36.43 36.43 0 0 0 2.46 7.07c-3.5 1.68-7.7-1.1-9.43-4.55s-2-7.48-3.2-11.14-3.5-6.88-4.5-10.57a10.17 10.17 0 0 0-1.25-3.54 9 9 0 0 0-2.2-1.88 21.4 21.4 0 0 1-7.75-10.52c-4.27 1-8.62 1.9-13 1.5s-8.8-2.37-11.08-6.1c-1-1.63-1.57-3.52-2.5-5.2-1.16-2.06-2.86-3.75-4.15-5.73-3.06-4.68-3.62-10.7-2.38-16.15s4.13-10.4 7.56-14.8c6.63-8.52 17.67-11.68 28.06-10z"/><path fill="#3f3d56" d="M921.92 339.1c5.5.9 11.6 3 13.7 8.15 1.57 3.9.35 8.26 0 12.44a9.44 9.44 0 0 0 .1 3.3 11.6 11.6 0 0 0 2.9 4.55 24.24 24.24 0 0 1 4.2 5.85 8.52 8.52 0 0 1 .27 7 5.1 5.1 0 0 0-.7 1.84c-.07 1.43 1.42 2.33 2.52 3.24 4.12 3.4 3.94 9.62 4 15a75.72 75.72 0 0 0 7.16 31.64 9.67 9.67 0 0 1-10.82-1.4 36.43 36.43 0 0 0 2.46 7.07c-3.5 1.68-7.7-1.1-9.43-4.55s-2-7.48-3.2-11.14-3.5-6.88-4.5-10.57a10.17 10.17 0 0 0-1.25-3.54 9 9 0 0 0-2.2-1.88 21.4 21.4 0 0 1-7.75-10.52c-4.27 1-8.62 1.9-13 1.5s-8.8-2.37-11.08-6.1c-1-1.63-1.57-3.52-2.5-5.2-1.16-2.06-2.86-3.75-4.15-5.73-3.06-4.68-3.62-10.7-2.38-16.15s4.13-10.4 7.56-14.8c6.63-8.52 17.67-11.68 28.06-10z"/><path fill="#f86d70" d="M956.54 407.68c.3 2 .68 3.92 1.13 5.87a56.16 56.16 0 0 0 1.9 6.62 6.36 6.36 0 0 1 .58 3 5.6 5.6 0 0 1-.73 1.82c-2.5 4.44-5.9 8.74-6.18 13.84-.07 1.27 0 2.64-.68 3.7q-2.9-6.25-6.4-12.2c-2.45-4.13-5.16-8.3-5.86-13.07a24.8 24.8 0 0 1 .08-6.72 14.63 14.63 0 0 1 2.42-7.07c1.65-2.16 6.2-5.43 9.14-4.76 3.45.84 4.16 6.17 4.6 8.96z"/><path fill="#a1616a" d="M868.17 431.67c-3.28-1.34-6.62-2.75-9.23-5.16a30.1 30.1 0 0 1-4.2-5.2l-7.7-11.13c-1.83-2.65-3.7-5.43-4.1-8.62a28.37 28.37 0 0 1-7.7-17.5c0-.66-.27-1.5-.93-1.53a1.16 1.16 0 0 0-.75.36 4.35 4.35 0 0 0-1.38 3.7 5.13 5.13 0 0 0-3.27.57c-.92.66-1.16 2.3-.17 2.84a1.4 1.4 0 0 0-1 1.58 5 5 0 0 0-3.5.17c-1 .6-1.46 2.3-.44 3a3 3 0 0 0-2 2.93 5.88 5.88 0 0 0 1.32 3.45c3 4 8.2 5.58 11.63 9.16a26.56 26.56 0 0 1 3 4l9.95 15.13c3.16 4.8 6.4 9.7 10.92 13.3a9.88 9.88 0 0 0 4.06 2.15 4.5 4.5 0 0 0 4.27-1.18c1-1.13 1.15-2.76 1.25-4.26.24-2.55-.2-5.2-.03-7.77z"/><path fill="#3f3d56" d="M901.48 641.9a8.65 8.65 0 0 0-1.06 1.28 4.5 4.5 0 0 0-.45 3.7 5 5 0 0 0 2.4 2.84 4.7 4.7 0 0 1 .77.44 4.5 4.5 0 0 0 .47.4 1.82 1.82 0 0 0 1 .2 36.4 36.4 0 0 0 7.88-1.35 6.3 6.3 0 0 0 3.25-1.52 6.47 6.47 0 0 0 1.1-2.15l.94-2.6a30.54 30.54 0 0 0 1.44-4.84 10.08 10.08 0 0 0-.25-5 1.63 1.63 0 0 0-.35 1 11.07 11.07 0 0 1-2 4.84 4.94 4.94 0 0 1-.78 1 5.1 5.1 0 0 1-2.34 1 28.76 28.76 0 0 1-5 .64 1.56 1.56 0 0 1-.68-.08 1.2 1.2 0 0 1-.57-.7 3 3 0 0 1 0-2c.45-1.27 1.7-2.1 2.3-3.3.43-.9-.18-1.88-1.1-1.13a27.74 27.74 0 0 0-2.28 2.43z"/><path fill="#ee8e9e" d="M910.1 623.9c.27 4.18.45 8.7-1.84 12.2-.82 1.28-1.93 2.34-2.87 3.53a4.13 4.13 0 0 0-1 2.12c-.15 1.53 1.3 2.85 2.8 3.13a9.33 9.33 0 0 0 4.54-.65 10.9 10.9 0 0 0 3.85-1.8c2-1.7 2.5-4.5 2.9-7.1l.94-6a18.9 18.9 0 0 0 .34-4.36 19.46 19.46 0 0 0-1.17-4.7l-1.53-4.5a2.12 2.12 0 0 0-.68-1.13 2 2 0 0 0-1.18-.2c-1.47.06-5.18.6-5.9 2.15-.64 1.4.68 5.7.78 7.3z"/><path d="M910.1 623.9c.27 4.18.45 8.7-1.84 12.2-.82 1.28-1.93 2.34-2.87 3.53a4.13 4.13 0 0 0-1 2.12c-.15 1.53 1.3 2.85 2.8 3.13a9.33 9.33 0 0 0 4.54-.65 10.9 10.9 0 0 0 3.85-1.8c2-1.7 2.5-4.5 2.9-7.1l.94-6a18.9 18.9 0 0 0 .34-4.36 19.46 19.46 0 0 0-1.17-4.7l-1.53-4.5a2.12 2.12 0 0 0-.68-1.13 2 2 0 0 0-1.18-.2c-1.47.06-5.18.6-5.9 2.15-.64 1.4.68 5.7.78 7.3z" opacity=".05"/><path fill="#3f3d56" d="M877.15 499.74a.37.37 0 0 0 0 .1 5 5 0 0 0 .56 1.7 24.58 24.58 0 0 1 2.17 8.76 7.4 7.4 0 0 0 .3 2.2 11.8 11.8 0 0 0 1.12 1.95c1.32 2.17 1.63 4.78 2.08 7.3a57.6 57.6 0 0 0 2.55 9.55c1.53 4.23 3.6 8.57 2.9 13a13 13 0 0 0-.4 3.2 9.24 9.24 0 0 0 1.24 3.37c.52 1 1 2.06 1.4 3.12s.86 2.3 1.2 3.47c.4 1.44.7 3.14-.26 4.3a4.88 4.88 0 0 0-.76.93 2.5 2.5 0 0 0 0 1.62q.8 3.42 1.74 6.83c.48 1.78 1 3.55 1.5 5.32 3.87 12.94 8.23 25.75 10.82 39 .37 1.9 2.8 3.28 4.7 3.7a6.14 6.14 0 0 0 5.42-1.46 3.32 3.32 0 0 0 .38-.36c2-2.14 2.27-5.42 2.13-8.38-.67-13.64-7.54-26.12-10.8-39.38a75.84 75.84 0 0 1-2.13-14.6c-.77-16.48-1.07-33.88 3.58-49.7 1-3.28 2.1-7 .37-10-1.1-1.85-3.13-3-5.14-3.75a33.1 33.1 0 0 0-25.68.66 8 8 0 0 0 0 1 10.13 10.13 0 0 1-.52 4.53 5.57 5.57 0 0 0-.45 2zM933.52 628.13l.87 3.17a35.43 35.43 0 0 0 1.84 5.58 24.3 24.3 0 0 1 1.65 3.78 12.22 12.22 0 0 1 .27 3.25 9.93 9.93 0 0 1-.45 3.08 7.67 7.67 0 0 1-4.5 4.26 21.2 21.2 0 0 1-6.22 1.17 5 5 0 0 1-1.64 0 4.57 4.57 0 0 1-1.6-.82c-2.88-2.12-4.37-6-4.63-9.6a11.82 11.82 0 0 1 .5-2.46c.2-.3 2.4.93 1.46 2-1.4 1.53 2.66.74 4.72.6a19 19 0 0 0 2.68-.43l3.33-.72c1.1-.24 2.35-.6 2.73-1.66s-.46-2.3-1.1-3.3c-1.76-2.7-2.2-6-2.6-9.17-.1-.63-.87-4.68.74-3.42a4.5 4.5 0 0 1 1.12 2.1c.3.8.55 1.7.8 2.6z"/><path d="M892.02 561.77c1-1.15.67-2.85.26-4.28-.16-.55-.32-1.08-.5-1.6l13.1-4.43c0 1.17.1 2.34.14 3.5a76.05 76.05 0 0 0 2.12 14.63c3.27 13.25 10.14 25.73 10.8 39.36.16 3.14-.17 6.65-2.5 8.77a6.2 6.2 0 0 1-5.4 1.44c-1.9-.4-4.35-1.78-4.72-3.7-2.6-13.24-7-26.05-10.8-39q-1.8-6-3.26-12.15a2.54 2.54 0 0 1 0-1.6 4.88 4.88 0 0 1 .76-.95z" opacity=".05"/><path fill="#ee8e9e" d="M928.2 613.76c1 1.78 2.6 3.36 2.85 5.4a30.92 30.92 0 0 1-.23 3.7 11.64 11.64 0 0 0 .55 3q1.9 6.9 4.4 13.63a3.73 3.73 0 0 1 .35 1.84 3.26 3.26 0 0 1-2.17 2.16c-3.1 1.33-6.63 1.24-10 1.1a5.23 5.23 0 0 1-2.82-.66c-1.2-.83-1.5-2.47-1.6-3.93-.22-4.24.5-8.5 0-12.74-.15-1.54-.48-3.06-.72-4.58a13.43 13.43 0 0 1 .2-6.4 14.65 14.65 0 0 1 2.4-4 12.52 12.52 0 0 1 3.33-3.32c.4-.24 1.53-1 1.93-.5.2.22.12.84.15 1.13a11.37 11.37 0 0 0 .24 1.3 10.85 10.85 0 0 0 1.16 2.86z"/><path d="M903.03 505.05a3.62 3.62 0 0 1 .25 3c-.44 1.8-1.16 3.54-1.75 5.3a73.87 73.87 0 0 0-2.26 9.66c-.55 2.96-1.7 6.24-1.23 9.2a65.55 65.55 0 0 0-7 21.82c-.27 1.95 4.07 4.48 4 6.45-.16 3.92-3.3 4.23-1 7.36.1.16-.87 3.66-.74 3.8.94 1.14 2.13 2 3.14 3.1a23.63 23.63 0 0 1 3.3 4.85c6 10.78 14.6 23 11.94 35a2.14 2.14 0 0 0 1.14 2.16 5.9 5.9 0 0 0 2.52.58h.42c2-2.14 2.27-5.42 2.13-8.38-.68-13.64-7.55-26.12-10.82-39.38a75.84 75.84 0 0 1-2.12-14.6c-.77-16.48-1.07-33.88 3.58-49.7 1-3.28 2.1-7 .37-10-1.1-1.85-3.12-3-5.13-3.75a33.1 33.1 0 0 0-25.7.67 8 8 0 0 0 0 1 10.13 10.13 0 0 1-.5 4.54 5.57 5.57 0 0 0-.52 2s-.24-2.64-.24-2.6c5.36.77 10.94 4.26 16.3 5a37.18 37.18 0 0 1 8.15 1.8 3.54 3.54 0 0 1 1.78 1.15z" opacity=".05"/><path fill="#3f3d56" d="M940.05 475.9c.72 2.28 1.36 4.6 1.9 6.92a5.66 5.66 0 0 1 .2 2.48 21.78 21.78 0 0 0-.75 2.3c-.12 1.22.73 2.3 1.2 3.45 1.22 2.92-.07 6.2-1.34 9.1l-3.8 8.57-3.1 7c-.9 2.1-1.83 4.18-2.72 6.3a204.5 204.5 0 0 0-9.88 29.6 3.63 3.63 0 0 1-.5 1.3c-.54.7-1.5.9-2.26 1.32a4.2 4.2 0 0 0-.46 6.7c-.44 5.14 3.42 10.1 5.4 14.88 4.58 11 3.75 23.32 5.33 35.1l-1.78-1c-1.72.78-1.66 3.2-2.57 4.83-1.38 2.46-4.75 2.8-7.56 2.62a5.9 5.9 0 0 1-2.53-.58 2.13 2.13 0 0 1-1.13-2.17c2.66-12-6-24.25-11.93-35a23.3 23.3 0 0 0-3.3-4.84c-1-1.08-2.2-2-3.15-3.1-2.63-3.17-3-7.63-2.8-11.74a65.72 65.72 0 0 1 7.48-27.7c-.47-3 .7-6.25 1.24-9.2a72.26 72.26 0 0 1 2.25-9.65c.58-1.76 1.3-3.5 1.74-5.3a3.62 3.62 0 0 0-.24-3 3.52 3.52 0 0 0-1.7-1.1 37.63 37.63 0 0 0-8.15-1.8l-18.38-2.63c-.6-3.78-1.2-8-.78-11.78a18.1 18.1 0 0 1 13-15.17 2.73 2.73 0 0 1 2.38.15 95.83 95.83 0 0 1 48.67 3.1z"/><path fill="#a1616a" d="M923.35 376.5a9 9 0 0 0 .8 5.26 8.22 8.22 0 0 0 2.1 2.3 15.5 15.5 0 0 0 6.05 3c1.3.34 2.76.56 3.62 1.6 1.3 1.56.43 3.9-.67 5.6-1.9 3-4.55 5.66-7.94 6.58-2.7.74-5.6.3-8.37.77-2 .36-3.9 1.2-5.88 1.66a17.35 17.35 0 0 1-16-4.45c2.94-2.25 6-4.66 7.53-8.05a11.46 11.46 0 0 0 .57-7.7c-.7-2.5-2.3-5-1.8-7.52s3-4.32 5.5-5.2a35.34 35.34 0 0 1 6.94-1.4c1.28-.17 9.5-2 10-1.1.28.52-1.43 3.52-1.64 4.18a16.05 16.05 0 0 0-.8 4.5z"/><path d="M923.35 376.5a9 9 0 0 0 .8 5.26 8.22 8.22 0 0 0 2.1 2.3 15.5 15.5 0 0 0 6.05 3c1.3.34 2.76.56 3.62 1.6 1.3 1.56.43 3.9-.67 5.6-1.9 3-4.55 5.66-7.94 6.58-2.7.74-5.6.3-8.37.77-2 .36-3.9 1.2-5.88 1.66a17.35 17.35 0 0 1-16-4.45c2.94-2.25 6-4.66 7.53-8.05a11.46 11.46 0 0 0 .57-7.7c-.7-2.5-2.3-5-1.8-7.52s3-4.32 5.5-5.2a35.34 35.34 0 0 1 6.94-1.4c1.28-.17 9.5-2 10-1.1.28.52-1.43 3.52-1.64 4.18a16.05 16.05 0 0 0-.8 4.5z" opacity=".05"/><circle cx="913" cy="365.81" r="16.69" fill="#a1616a"/><path fill="#f86d70" d="M921.8 393.4l-11.3 1.9a42.37 42.37 0 0 1-8.46.85 24.2 24.2 0 0 0-4.66 0c-1.07.18-2.1.6-3.17.72-1.3.17-2.65-.08-4 .1-2.45.3-4.47 2-6.34 3.63-2.2 1.9-4.54 4.13-4.7 7a2 2 0 0 0 .13 1 2.93 2.93 0 0 0 .83.88c2.08 1.7 3.25 4.25 4.73 6.5a25.1 25.1 0 0 0 5.62 6.06c.5-.32 1.44.52 1.22 1.06s-.75.93-.93 1.5c-.4 1.27 1.18 2.2 1.83 3.4s.33 2.65.4 4 .67 2.92.87 4.42c.45 3.47-1.26 7.13 0 10.42a3.27 3.27 0 0 0-3.25 2.53 9.55 9.55 0 0 0 .13 4.44 6.1 6.1 0 0 0-3 5.6 1 1 0 0 1-.72 1.32 5.63 5.63 0 0 0-3.47 5.23 2.57 2.57 0 0 1-.1 1.1 2.44 2.44 0 0 1-.82.85 6.52 6.52 0 0 0-2.43 5.1 3.74 3.74 0 0 0 1.73 3.34 31.12 31.12 0 0 0 7.6 2.26 68.3 68.3 0 0 0 7.36 1.3 66 66 0 0 0 6.88.2l15.14-.05c4.25 0 8.5 0 12.76-.32 4-.26 8-.76 11.85.28.48-.8-.3-1.74-.76-2.56a8.6 8.6 0 0 1-.87-3.56l-.95-10.1a17.73 17.73 0 0 1-.08-4.17c.2-1.48.77-2.9 1.06-4.36.55-2.83 0-5.75.18-8.63a38.5 38.5 0 0 1 1.33-7.5l3-12.35a47.67 47.67 0 0 1 1.48-6.2q3.46-8.9 7.26-17.63a1.82 1.82 0 0 0-.13-1.56l-2.5-4.5a28.66 28.66 0 0 0-2.3-3.64 14.45 14.45 0 0 0-8.44-5.2 14.94 14.94 0 0 0-9.83 1.47c-1.17.6-2.25 1.38-3.44 2-2 1-4.46 2.05-6.72 1.9zM881.65 404.4l-3.94 5.25a6.7 6.7 0 0 0-.9 1.45c-.6 1.38-.28 3-.6 4.46a9.3 9.3 0 0 1-1.15 2.67 61.58 61.58 0 0 1-5 7.46 13.37 13.37 0 0 1-3.1 3.07 5.16 5.16 0 0 1-4.2.74 2.63 2.63 0 0 1 1.37 1.26 15.26 15.26 0 0 1 1 9.76 10 10 0 0 1-1.1 3.2 4.8 4.8 0 0 1-2.5 2.17 3.7 3.7 0 0 0 4.35 3.12 7.3 7.3 0 0 0 2.16-1.08l6.33-4.1a16.82 16.82 0 0 0 2.95-2.2c1.2-1.2 2-2.68 3.17-3.9 2-2.07 4.84-3.3 6.23-5.8.87-1.57 1-3.42 1.55-5.13.35-1.1.87-2.16 1.2-3.28a14.7 14.7 0 0 0-1.3-10.54c-1.63-3.25-4.16-5.83-6.5-8.6z"/><path fill="#3a3768" d="M896.5 356.3a21.88 21.88 0 0 1 5.88-6.1c3.1-2.34 6.7-4.27 10.6-4.5a11.26 11.26 0 0 1 4.75.8c.08-4.73 1.25-7.86 4.2-7.4 5.48.9 11.58 3 13.68 8.15 1.6 3.9.37 8.26 0 12.44a9.44 9.44 0 0 0 .13 3.3 11.6 11.6 0 0 0 2.9 4.55 24.24 24.24 0 0 1 4.18 5.85 8.52 8.52 0 0 1 .3 7 5.1 5.1 0 0 0-.7 1.84c-.07 1.43 1.42 2.33 2.52 3.24 4.12 3.4 3.94 9.62 4 15a75.72 75.72 0 0 0 7.16 31.64 9.67 9.67 0 0 1-10.82-1.4 36.43 36.43 0 0 0 2.46 7.07c-3.5 1.68-7.7-1.1-9.43-4.55s-2-7.48-3.2-11.14-3.5-6.88-4.5-10.57a10.17 10.17 0 0 0-1.25-3.54 9 9 0 0 0-2.2-1.88c-3.6-2.58 1.7-22.12.3-26.3-2.1.44-5.93-9.64-8.12-19.9a10.35 10.35 0 0 1-4.75.5 5.72 5.72 0 0 0-1.7-.13 4.52 4.52 0 0 0-1.48.6 36.5 36.5 0 0 1-5.05 2.6c-3.62 1.34-7.6 1.16-11.46 1a11.36 11.36 0 0 1 1.6-8.2z"/><path fill="#3f3d56" d="M896.5 356.3a21.88 21.88 0 0 1 5.88-6.1c3.1-2.34 6.7-4.27 10.6-4.5a11.26 11.26 0 0 1 4.75.8c.08-4.73 1.25-7.86 4.2-7.4 5.48.9 11.58 3 13.68 8.15 1.6 3.9.37 8.26 0 12.44a9.44 9.44 0 0 0 .13 3.3 11.6 11.6 0 0 0 2.9 4.55 24.24 24.24 0 0 1 4.18 5.85 8.52 8.52 0 0 1 .3 7 5.1 5.1 0 0 0-.7 1.84c-.07 1.43 1.42 2.33 2.52 3.24 4.12 3.4 3.94 9.62 4 15a75.72 75.72 0 0 0 7.16 31.64 9.67 9.67 0 0 1-10.82-1.4 36.43 36.43 0 0 0 2.46 7.07c-3.5 1.68-7.7-1.1-9.43-4.55s-2-7.48-3.2-11.14-3.5-6.88-4.5-10.57a10.17 10.17 0 0 0-1.25-3.54 9 9 0 0 0-2.2-1.88c-3.6-2.58 1.7-22.12.3-26.3-2.1.44-5.93-9.64-8.12-19.9a10.35 10.35 0 0 1-4.75.5 5.72 5.72 0 0 0-1.7-.13 4.52 4.52 0 0 0-1.48.6 36.5 36.5 0 0 1-5.05 2.6c-3.62 1.34-7.6 1.16-11.46 1a11.36 11.36 0 0 1 1.6-8.2z"/><g opacity=".1"><path d="M954.04 432.1a75.88 75.88 0 0 1-7.16-31.65c0-5.35.15-11.56-4-15-1.1-.9-2.6-1.8-2.53-3.24a5.1 5.1 0 0 1 .7-1.83 8.56 8.56 0 0 0-.28-7 24.24 24.24 0 0 0-4.18-5.85 11.63 11.63 0 0 1-2.92-4.55 9.94 9.94 0 0 1-.12-3.3c.4-4.2 1.64-8.56 0-12.45-2-5-7.8-7.12-13.16-8.05a3 3 0 0 1 1.44-.1c5.5.9 11.6 3 13.7 8.15 1.57 3.9.35 8.26 0 12.44a9.44 9.44 0 0 0 .1 3.3 11.6 11.6 0 0 0 2.9 4.56 24.24 24.24 0 0 1 4.2 5.85 8.52 8.52 0 0 1 .27 7 5.1 5.1 0 0 0-.68 1.84c-.07 1.44 1.42 2.34 2.52 3.25 4.12 3.4 3.94 9.62 4 15A75.72 75.72 0 0 0 956 432.1a9.35 9.35 0 0 1-5.3 1 9.05 9.05 0 0 0 3.34-1zM945.7 437.76a35.78 35.78 0 0 1-2.47-7.08 9.13 9.13 0 0 0 2.37 1.57 37.2 37.2 0 0 0 2 5.5 5.24 5.24 0 0 1-3.23.42 5.08 5.08 0 0 0 1.32-.4zM915.77 346.5a11.52 11.52 0 0 0-3.18-.76h.37a11.18 11.18 0 0 1 2.82.2c-.02.17-.03.35-.03.55zM904.4 363.5a36.62 36.62 0 0 0 5.07-2.6 4.44 4.44 0 0 1 1.48-.6 5.46 5.46 0 0 1 1.56.08 6.26 6.26 0 0 0-1.07.5 36.5 36.5 0 0 1-5.05 2.6 22.78 22.78 0 0 1-8.47 1.1 20.07 20.07 0 0 0 6.5-1.1zM917.4 359.9l.1.44a9.8 9.8 0 0 1-2.5.07 11 11 0 0 0 2.4-.5z"/></g><path fill="#a1616a" d="M952.14 437.32a6.1 6.1 0 0 0 1.64 4.88 10.87 10.87 0 0 0 2.32 1.7 6.3 6.3 0 0 0 2.76 1 5.2 5.2 0 0 0 3.53-1.53c2.9-2.55 4.35-6.33 5.7-9.95a74.65 74.65 0 0 0 4.3-14.7c.82-5.44.47-11.07 2-16.34-1.38-2.76-2.26-5.8-3.83-8.46a39.86 39.86 0 0 1-2.64-4.95 17.1 17.1 0 0 1-.47-11.42 1.54 1.54 0 0 0-1.82.1 3.83 3.83 0 0 0-1.1 1.6 14.17 14.17 0 0 0-1.1 6.7 2.67 2.67 0 0 1-.18 1.64 2.06 2.06 0 0 1-1.78.74 15.8 15.8 0 0 1-4.12-.74 38.2 38.2 0 0 0-12.7-1.05 6 6 0 0 0-2.47.6 2.3 2.3 0 0 0-1.28 2.07l10.14 1.5a4.2 4.2 0 0 1 2.14.72 1.45 1.45 0 0 1 .3 2 4 4 0 0 1-.7.46 2.1 2.1 0 0 0 .07 3.34 2.14 2.14 0 0 1 .7.48c.4.56-.14 1.3-.32 2a2.48 2.48 0 0 0 1.22 2.53 8.92 8.92 0 0 0 2.83.95 29.82 29.82 0 0 1 5.8 2 3.18 3.18 0 0 1 1.5 1.13 3.4 3.4 0 0 1-.17 2.84l-2.64 7.12c-.43 1.1-.84 2.22-1.36 3.3-.67 1.4-1.5 2.7-2.2 4.1a40.83 40.83 0 0 0-1.64 4c-1.35 3.6-4 5.77-4.46 9.62z"/><path fill="#11999e" d="M515.43 162.06v335.4a111.1 111.1 0 0 0-34.63-5.33c-49.87 0-90.37 35.3-90.37 85.16s40.5 84.76 90.37 84.76 90.62-36.72 90.62-90V339.14h263v158.33a111.05 111.05 0 0 0-34.63-5.34c-49.88 0-90.38 35.3-90.38 85.16s40.5 84.76 90.37 84.76 90.6-36.72 90.6-90v-410zm319 125h-263v-69h263zM249.43 125.06v225.1a85.15 85.15 0 1 0 42.6 73.6v-213.4h85.4v-85.3zM226.6 652.62a54.34 54.34 0 0 0-15.65-5.54 71.57 71.57 0 0 0 11.7-2.63c10.18-3.22 15.3-7.54 11.46-9.65s-15.2-1.22-25.38 2a39.2 39.2 0 0 0-9.75 4.33c-1.05-2.23-3.9-4.82-8.37-7.27-9-5-21.18-7.47-27.12-5.6s-3.43 7.43 5.6 12.4a54.13 54.13 0 0 0 14 5.2 82.33 82.33 0 0 0-9.64 1.72c-11.07 2.66-17.47 6.67-14.3 9s14.73 2 25.8-.64a48.22 48.22 0 0 0 11.6-4.1c.9 2.3 3.82 5 8.52 7.6 9 5 21.18 7.48 27.12 5.6s3.42-7.46-5.58-12.42zM290.3 579.54a26.5 26.5 0 0 0-7.58-2.7 35.72 35.72 0 0 0 5.68-1.26c4.94-1.57 7.43-3.66 5.56-4.7s-7.4-.58-12.33 1a19.68 19.68 0 0 0-4.73 2.1c-.5-1.07-1.9-2.33-4.06-3.52-4.4-2.4-10.3-3.62-13.17-2.7s-1.66 3.6 2.72 6a26.2 26.2 0 0 0 6.8 2.5 41 41 0 0 0-4.68.85c-5.37 1.3-8.48 3.24-6.94 4.36s7.15 1 12.52-.3a23.78 23.78 0 0 0 5.64-2c.44 1.1 1.85 2.43 4.13 3.68 4.4 2.4 10.28 3.63 13.17 2.72s1.66-3.6-2.73-6.02zM118.92 505.45a16.63 16.63 0 0 0-4.78-1.68 20.82 20.82 0 0 0 3.58-.8c3.1-1 4.65-2.3 3.48-2.93s-4.62-.37-7.7.6a12.28 12.28 0 0 0-3 1.32 5.85 5.85 0 0 0-2.55-2.2c-2.74-1.5-6.43-2.27-8.24-1.7s-1 2.25 1.72 3.76a16.3 16.3 0 0 0 4.27 1.58 24.63 24.63 0 0 0-2.95.53c-3.36.8-5.3 2-4.35 2.72s4.48.6 7.84-.2a14.94 14.94 0 0 0 3.53-1.24 5.57 5.57 0 0 0 2.58 2.32c2.75 1.5 6.44 2.27 8.24 1.7s1.06-2.26-1.68-3.77z"/><path d="M364.43 125.06v71.3h-85.4v213.4a85.27 85.27 0 0 1-138.2 66.9 85.28 85.28 0 0 0 152.2-52.9v-213.4h85.4v-85.3z" opacity=".1"/><path fill="#efb7b9" d="M123.47 143.58l.3 2.18 9.44 1.34s.78-.58 2-1.37c2.25-1.47 6-3.66 9.2-4.28 4.96-1 20.7-8.05 15.63-8.5s-4.55.58-4.55.58-5.6-5.5-11.36-.47c-4.38 3.8-14 7.9-18.4 9.66-1.4.55-2.25.86-2.25.86z"/><path fill="#3f3d56" d="M161.22 118.52a16 16 0 0 1 4.53-1.16 5.5 5.5 0 0 1 4.3 1.44c.62.63 1 1.44 1.6 2.08 2.9 3.08 8.48.78 11.95 3.17 2.13 1.48 2.8 4.27 3.55 6.76s2.14 5.23 4.68 5.76a13.88 13.88 0 0 0 3.7-.14 3.63 3.63 0 0 1 3.3 1.22c1.2 1.8-.44 4.78 1.27 6.06 1.53 1.13 4.3-.45 5.37 1.12a2.34 2.34 0 0 1-.37 2.6 18.07 18.07 0 0 0-1.74 2.18 3.3 3.3 0 0 0 3.25 4.82c1.1-.1 2.24-.72 3.18-.2a2.24 2.24 0 0 1 1 1.78 4.65 4.65 0 0 1-4.18 4.9c-1.84.1-3.53-.9-5.17-1.73s-3.57-1.55-5.27-.85a8.14 8.14 0 0 0-2.12 1.5 23.2 23.2 0 0 1-6.52 3.85c-2.08.82-4.5 1.3-6.5.3-2.25-1.16-3.4-3.96-5.8-4.8s-5.1.73-7.37 2.08-5.33 2.48-7.4.82c-2.2-1.8-1.53-5.38-2.88-7.9a7.75 7.75 0 0 0-2.17-2.38c-1.52-1.18-3.25-2.06-4.78-3.2a8 8 0 0 1-3.26-4.6c-.45-2.26.63-4.53 1.86-6.5s2.66-3.87 3.06-6.14c.3-1.7 0-3.47.4-5.15a6.35 6.35 0 0 1 4.1-4.34c1.13-.38 1.33-.28 1.9-1.27a4 4 0 0 1 2.54-2.08z"/><g opacity=".1"><path d="M199.1 138.33a8.5 8.5 0 0 1 .2 3 8.1 8.1 0 0 1-.2-3zM203.4 149.78a3.27 3.27 0 0 0-.35 1.1 3.38 3.38 0 0 1 .12-2.8 17.8 17.8 0 0 1 1.74-2.17 3.7 3.7 0 0 0 .5-1l.1.1a2.34 2.34 0 0 1-.37 2.6 17.88 17.88 0 0 0-1.74 2.18zM150.42 147.1c1.53 1.16 3.25 2 4.77 3.2a7.62 7.62 0 0 1 2.16 2.4c1.35 2.5.67 6.1 2.9 7.9 2.05 1.65 5.1.53 7.4-.83s4.87-3 7.36-2.1 3.54 3.66 5.8 4.8c2 1 4.4.53 6.5-.28a23.3 23.3 0 0 0 6.5-3.87 8.6 8.6 0 0 1 2.13-1.5c1.7-.7 3.64 0 5.28.86s3.33 1.83 5.16 1.7a4.7 4.7 0 0 0 4.14-4.1 3 3 0 0 1 .22.88 4.64 4.64 0 0 1-4.15 4.92c-1.82.12-3.52-.88-5.15-1.7s-3.57-1.56-5.28-.87a8.83 8.83 0 0 0-2.12 1.5 23.33 23.33 0 0 1-6.5 3.86c-2.1.8-4.52 1.3-6.5.28-2.27-1.15-3.42-3.95-5.8-4.8s-5.1.73-7.38 2.1-5.34 2.47-7.4.8c-2.22-1.8-1.54-5.37-2.9-7.9a7.7 7.7 0 0 0-2.16-2.37c-1.5-1.16-3.23-2.04-4.76-3.2a8 8 0 0 1-3.27-4.58 5.4 5.4 0 0 1-.1-1.2 8.36 8.36 0 0 0 3.15 4.08z"/></g><path fill="#4c4981" d="M154.47 199.04l-3.43.73s3.38 5.56 8.6 1.9-5.17-2.63-5.17-2.63z"/><path d="M154.47 199.04l-3.43.73s3.38 5.56 8.6 1.9-5.17-2.63-5.17-2.63z" opacity=".1"/><path fill="#efb7b9" d="M228.92 250.8s4.76 2.45 9.2 5.3c3.17 2 6.18 4.27 7.16 5.94 2.36 4 13.83 8.34 13.83 8.34l11.4 8.66c2.67.9 5.28 4.15 6.35 5.6.32.45.5.73.5.73l4.57-.6 2.4-3.1s.6-6.9-4.13-6.8a6.52 6.52 0 0 1-2.68-.7c-5.1-2.25-12.23-9.35-12.23-9.35s-12.13-15.14-15.76-15.64a6 6 0 0 1-1.14-.3c-3.7-1.28-9-6.04-9-6.04zM181.9 294.56c1.22 7.27 6.73 21.17 8.5 24.07 2.2 3.6 3.35 10.78 3.35 10.78l.65 5a5.8 5.8 0 0 0 .72 1.95 10.57 10.57 0 0 0 .64 1l9.13-2.8s-.54-2.1-1.34-4.52-2-5.44-3.14-6.56c-2.23-2.2-2.56-9.92-2.56-9.92s-1.86-14.86-2.43-16.73a25.8 25.8 0 0 1-1-5.48c-.1-1-.15-2.14-.16-3.43a70.1 70.1 0 0 0-1.44-11l-10.65 1.94-.28 11.9a7.94 7.94 0 0 0 0 3.82z"/><path d="M276.85 284.65c.32.44.5.72.5.72l4.57-.6 2.4-3.1s.6-6.9-4.13-6.8a6.52 6.52 0 0 1-2.68-.7c-.4 2.06 1.92 3.77 1.92 3.77s1 .7.73 3.93c-.15 2.2-2.1 2.67-3.32 2.78z" opacity=".1"/><path fill="#444053" d="M276.35 285.07c.3 1.1 3.18 2.74 5.18 3.76 1 .5 1.75.85 1.9.93.46.23 2.88-2.46 3.2-4.63s6.1-8.92 6.1-8.92a24.2 24.2 0 0 0 2.15-8.44c.22-2.95-1-3.2-2.45-2.52a9.7 9.7 0 0 0-2.74 2.15 7.32 7.32 0 0 1-3.56 1.83 17.37 17.37 0 0 0-5.1 2.18c-1.4.9-2.77 2-3 3-.54 2.14 1.88 3.94 1.88 3.94s1 .7.73 3.93-4.33 2.7-4.3 2.8z"/><path d="M281.53 288.83c1 .5 1.75.85 1.9.93.46.23 2.88-2.46 3.2-4.63s6.1-8.92 6.1-8.92a24.2 24.2 0 0 0 2.15-8.44c.22-2.95-1-3.2-2.45-2.52-.24 2.34-.83 6.9-2 9.26-1.46 2.82-7.3 11.88-8.9 14.33zM195.2 336.17l-.08.17a10.57 10.57 0 0 0 .64 1l9.13-2.8s-.54-2.1-1.34-4.52c-3.6-1-8.8 5.3-8.8 5.3z" opacity=".1"/><path fill="#444053" d="M194.6 342.97s7.62 2.67 11 2.26c2.6-.3 2.72-1.52 2.54-4-.06-.8-.14-1.72-.2-2.78-.16-4.4-1.93-5.3-1.93-5.3-2.9-7.6-11.24 2.6-11.24 2.6l.43.85a9.2 9.2 0 0 0-.86 4.15 12.12 12.12 0 0 0 .26 2.22z"/><path d="M194.6 342.97s7.62 2.67 11 2.26c2.6-.3 2.72-1.52 2.54-4a8.07 8.07 0 0 1-6.2 1.78 24.43 24.43 0 0 1-7.6-2.25 12.12 12.12 0 0 0 .26 2.22z" opacity=".1"/><path fill="#efb7b9" d="M156.83 158.15l3 13 .6 2.68 5.52.7 5.68.72 6.18-2.24s1.73-5.87.3-10.28a6.52 6.52 0 0 0-2.85-3.77 6.35 6.35 0 0 1-1.2-.92 5.22 5.22 0 0 1-1-1.43 5.9 5.9 0 0 1-.52-2.07c-.3-3.5 1.9-7.35 1.9-7.35s-13.1-4.47-12.07-1.58c.67 1.87-1.18 5.13-2.56 7.2-.75 1.1-1.36 1.87-1.36 1.87z"/><circle cx="168.65" cy="141.76" r="11.38" opacity=".1"/><circle cx="168.6" cy="141.34" r="11.38" fill="#efb7b9"/><path fill="#f86d70" d="M157.65 201.4c.54 2.52 3 6.47 3 6.47l15.9 3.9 11.34-11.88v-.1c-.36-1.1-4.7-15.1-1.56-18.56 3.28-3.6 2-13.72 2-13.72s-5.67-6.52-6.82-8.1-8.5-2.82-8.5-2.82c.36.5.7 1 1 1.43a14 14 0 0 1 1.8 3.84 5.74 5.74 0 0 1-.15 4.17 4.58 4.58 0 0 0-.4 1.07c-1.23 5.44-6.9 4.68-9.14 4.14-.58-.14-.94-.26-.94-.26l-5.42.17-3.4.1s1.55 26.8 1.18 28.92a3.42 3.42 0 0 0 .1 1.24z"/><path fill="#925978" d="M156.47 172.64l9.85-1.3h-.18c-.58-.13-.93-.25-.93-.25l-5.4.16-3.4.1s.02.45.07 1.28zM167.52 209.58l4.27 1.04 6.72-.88 1.75-1.83-12.75 1.68zM174.63 211.32l1.93.47.8-.84-2.73.36z"/><path d="M157.65 201.4c2.54.27 4.88.4 4.88.4l13.1-.5v-13.66a19.4 19.4 0 0 0-5.3-3.48c-2.27-.8-5-3.2-4.45-9.6 0-.36.06-.74.1-1.13a14.68 14.68 0 0 0 .13-2.15 11.5 11.5 0 0 0-3.62-8.42 1.73 1.73 0 0 0-.2-.17l-2.12-9.93a2.12 2.12 0 0 0-.43.06c-.75 1.1-1.36 1.88-1.36 1.88l-1.57 3.45 3 13-3.4.1s1.55 26.8 1.18 28.92a3.42 3.42 0 0 0 .07 1.24z" opacity=".1"/><path fill="#444053" d="M162.1 201.9l13.1-.5v-13.67a19.5 19.5 0 0 0-5.28-3.48c-2.4-.84-5.28-3.48-4.35-10.73a11.87 11.87 0 0 0-3.48-10.63l-.2-.18-2.14-9.92a4.6 4.6 0 0 0-3.37 1.93 8.45 8.45 0 0 1-.8 1.16 2 2 0 0 1-2.63.77c-1.38-.6-7.32-3.12-8.65-.66s-1.58 17.12-1.58 17.12a11.2 11.2 0 0 1 3.85 6.33c.9 4.2 2.42 4.3 2.42 4.3l1.64 12s1.5 2.6.38 4.04"/><path fill="#444053" d="M155.6 155.9l2.23 6.67 4.26.37-.2-.17-2.14-9.92a4.6 4.6 0 0 0-3.37 1.93 8.45 8.45 0 0 1-.8 1.1z"/><path d="M123.47 143.58l.3 2.18 9.44 1.34s.78-.58 2-1.37c-1-.23-5.7-1.25-8.15-2-.9-.28-1.5-.52-1.53-.68s.06-.2.2-.3c-1.4.52-2.25.83-2.25.83z" opacity=".1"/><path fill="#444053" d="M112.4 157.7s10.7 8.12 17.34 9.43c0 0 9.34 2.76 13 6l4-15.42-2.45-1.68s-2.94 1.8-5.46 1.2-5.3-1-5.3-1a41.06 41.06 0 0 0-6.8-1.85c-1.8-.15-1.07-2.5.73-3.73a3.9 3.9 0 0 1 .75-.42 2.32 2.32 0 0 0 3 .68 6.85 6.85 0 0 0 1.76-1.64 22.83 22.83 0 0 0 2-3s-5.6-1.2-8.37-2.06c-.9-.28-1.5-.52-1.52-.68-.08-.64 5-2.66 5-2.66s-4.34-2.1-6.1-.57c0 0 1.14.84.22 1.68s-12 9.37-12 9.37-5.47 2.7.2 6.34z"/><path d="M121.6 149.8l5.93.85a3.9 3.9 0 0 1 .75-.42 2.32 2.32 0 0 0 3 .68 6.85 6.85 0 0 0 1.76-1.63 23.44 23.44 0 0 0 1.62-2.53s-5.6-1.2-8.37-2.06z" opacity=".1"/><path fill="#444053" d="M121.94 149.32l6.3.9a2.32 2.32 0 0 0 3 .7c1.82-1 3.77-4.67 3.77-4.67s-5.58-1.2-8.36-2.06z"/><path d="M239.43 242.9l-10.5 7.94s4.75 2.46 9.18 5.3c3.88-2.6 7.53-5 10.3-7.2-3.7-1.34-8.97-6.05-8.97-6.05zM181.9 294.56a35.6 35.6 0 0 0 7.7-1.84s1.95-.42 4.83-1.38c-.1-1-.15-2.14-.16-3.43a70.1 70.1 0 0 0-1.44-11l-10.65 1.94-.28 11.9a7.94 7.94 0 0 0 0 3.82z" opacity=".1"/><path fill="#444053" d="M162.93 246.24c2.14 3.17 8 16.65 8 16.65a57.34 57.34 0 0 0 4.46 6.86c2.32 2.93 3.93 9.52 5.7 14.8s-.52 4.27-.27 7 10.26-.8 10.26-.8 20.44-4.5 26.7-17 31.2-23.83 36.25-30.86-1.43-4.13-1.18-7.94-2.63-7-2.63-7-9.42-2.66-10.95-4.5-9.06-6.5-9.06-6.5-7.1-3.06-8-4.13-9.3-4.4-11.88-5-5.1-4.3-5.1-4.3-1.58.2-3.93-2.07-12.2-4.24-12.2-4.24c-16.84 12.4-28.47 10.67-28.47 10.67l-.27 2.33c-8.96 11.66.4 32.84 2.53 36z"/><path d="M160.4 210.2s14.54 4.8 28.73-12.92c-16.84 12.34-28.47 10.6-28.47 10.6zM185.43 218.48s19.54 28.2 20.75 29.24-19.72-29.6-20.75-29.24zM176.4 216.32s13.53 21 13.26 23.84c0 0-13.06-20.2-13.26-23.84zM168.52 222.1s2.5 11.74-1.26 18.4zM163.32 222.77s-.16 10.17-1.3 12.26zM196.46 213.7l17.97 7.04-6.58.86-11.4-7.9zM161.08 135.03c.9.6 1.65 1.55 2.72 1.7a4.28 4.28 0 0 0 2.2-.55c1.8-.78 3.82-1.38 5.68-.77 2.64.88 4.1 3.92 6.72 4.82a4.8 4.8 0 0 0 2.52.14 4.88 4.88 0 0 0 1.42-.58 4.57 4.57 0 0 0 2-2.84 5.88 5.88 0 0 0-2-5.54 12.27 12.27 0 0 0-5.6-2.54c-5.27-1.17-10.76-.78-16.15-.37a2.35 2.35 0 0 0-1.27.32c-.82.6-2.22 3.68-1.93 4.72.4 1.35 3.53.35 3.68 1.5z" opacity=".1"/><path fill="#3f3d56" d="M161.03 134.6c.9.6 1.64 1.56 2.72 1.7a4.23 4.23 0 0 0 2.2-.55c1.8-.78 3.82-1.38 5.67-.77 2.64.88 4.1 3.92 6.72 4.8a4.7 4.7 0 0 0 2.52.15 4.6 4.6 0 0 0 1.42-.57 4.68 4.68 0 0 0 2.06-2.84 5.9 5.9 0 0 0-2.05-5.55 12.3 12.3 0 0 0-5.6-2.53c-5.28-1.18-10.76-.78-16.16-.38a2.38 2.38 0 0 0-1.26.34c-.8.6-2.22 3.68-1.93 4.72.4 1.4 3.53.33 3.68 1.5z"/><path fill="#efb7b9" d="M230.6 142.98l1.72 6.95 2.23-1.35 12.12-7.3s9.18-.35 9.9-7.73-10.2-.07-10.8.5-1.9 1.54-1.9 1.54l-11.27 6.3z"/><path d="M230.6 142.98l1.72 6.95 2.23-1.35c-.5-3.14-1.26-6-2-6.7zM170.78 188.42l2.47 14.5 14.62-3.03c-.35-1.12-4.68-15.13-1.55-18.58 3.28-3.6 2-13.72 2-13.72s-5.67-6.52-6.82-8.1-8.5-2.82-8.5-2.82a5.9 5.9 0 0 1-.54-2.07 8.32 8.32 0 0 0-.56 1.56c0 2.64 1.07 4.46 3.9 5.8.25.1.5.22.8.33.43.17.92.34 1.44.5l.24.07c4.7 1.4 5.73 4.22 5.73 4.22a10.8 10.8 0 0 1 2.15 7.6c-.46 4.44-15.37 13.72-15.37 13.72z" opacity=".1"/><path fill="#444053" d="M171.6 188.3l2.47 14.5 16.53-3.44s-.5-5.47-1.65-7.7-.92-10.88-.92-10.88c7-7.54 3.32-13.67 3.32-13.67s20.57-3.33 20.92-4 7.2-4.3 7.2-4.3 7.46-1.92 8.47-3a9 9 0 0 1 1.22-1.12 3.2 3.2 0 0 1 .4-.26l.55 4.75h.26a6.77 6.77 0 0 0 3.24-1.28c1.7-1.3-.45-15.56-2.1-16.06a1.9 1.9 0 0 0-.95 0 10.74 10.74 0 0 0-3.55 1.92l-.3.23-.1.08s-9.3 3.65-11.16 5.33-16.34 3.82-16.34 3.82-6.5 1.54-7.33.6-10.75-2.44-11.58-1-3.14 1.2-3.14 1.2c-1.63-1.88-2.76-1.15-3.45-.07a7.55 7.55 0 0 0-.87 2.1c0 2.87 1.27 4.76 4.7 6.12.5.2 1.07.4 1.68.58 4.73 1.4 5.74 4.22 5.74 4.22a10.77 10.77 0 0 1 2.15 7.6c-.46 4.46-15.4 13.74-15.4 13.74z"/><path d="M230.6 141.9a1.54 1.54 0 0 1 .53.05c1.65.5 3.8 14.76 2.1 16.06a6.7 6.7 0 0 1-2.9 1.26h-.25l-.55-4.75a3.2 3.2 0 0 0-.4.27v-.2a12.34 12.34 0 0 0-2.35-10.55z" opacity=".1"/><path fill="#444053" d="M229.52 154.5l.55 4.74a6.65 6.65 0 0 0 3.53-1.35c1.7-1.3-.45-15.56-2.1-16.06-1.3-.4-3.6 1.22-4.5 1.9a12.36 12.36 0 0 1 2.52 10.75zM177.46 162.14l2.37-2.22-6.18-6a7.55 7.55 0 0 0-.88 2.1c.02 2.87 1.27 4.76 4.7 6.12z"/><path d="M160.92 133.76c.9.6 1.64 1.55 2.72 1.7a4.23 4.23 0 0 0 2.2-.56c1.8-.78 3.82-1.38 5.67-.77 2.65.88 4.1 3.92 6.73 4.8a4.7 4.7 0 0 0 2.52.15 4.57 4.57 0 0 0 3.48-3.4 4.55 4.55 0 0 0 .1-1.28 4.74 4.74 0 0 1 0 2.12 4.64 4.64 0 0 1-2.05 2.84 4.5 4.5 0 0 1-1.42.57 4.66 4.66 0 0 1-2.5-.14c-2.65-.9-4.1-3.94-6.74-4.82-1.85-.6-3.88 0-5.67.77a4.23 4.23 0 0 1-2.2.55c-1.07-.14-1.82-1.1-2.72-1.7-.15-1.15-3.28-.1-3.67-1.48a1.66 1.66 0 0 1 0-.64c.62 1.07 3.4.2 3.56 1.28zM170.6 166.5s-1.3 3.67.36 4.9c0 0-1.83-4.86-2.9-4.75" opacity=".1"/><path fill="#efb7b9" d="M252.05 130.65s-8.45 7.3-2.34 8.5 2.35-8.5 2.35-8.5z"/><g opacity=".1"><path d="M821.44 333.14h-263v232.94c0 53.26-40.75 90-90.62 90a100.13 100.13 0 0 1-34.82-6.1 97.54 97.54 0 0 0 47.82 12.1c49.87 0 90.62-36.72 90.62-90V339.14h250zM558.42 281.05h13v-63h250.02v-6H558.42v69zM877.43 162.06v404c0 53.26-40.75 90-90.62 90a100.13 100.13 0 0 1-34.8-6.1 97.54 97.54 0 0 0 47.8 12.1c49.88 0 90.63-36.72 90.63-90v-410z"/></g><path fill="#11999e" d="M579.83 69.9c6.45 13.32 17 28.48 28.93 22.7s20.84-30.36 14.4-43.7-21.4-19.43-33.36-13.64-16.43 21.32-9.97 34.63zM605.36 101.03s2.33-.4 1.44-2.3a3.57 3.57 0 0 0-.28-.5 6.17 6.17 0 0 1-.9-2.48 9 9 0 0 1 .12-3.1l-6.35-.4s2.46 2.1 2.17 3.2a.63.63 0 0 1-.3.37 1 1 0 0 1-.4.18l-.5.14c-1.66.6-1 1.43-1 1.43.23 2.74 6 3.46 6 3.46z"/><path fill="#444053" d="M601.28 95.82l4.48.62a5.58 5.58 0 0 1-.13-.7c-1.14-.04-2.93-.2-4.06-.3a.63.63 0 0 1-.3.38z"/><path fill="#11999e" d="M605.36 101.03s2.33-.4 1.44-2.3a7.2 7.2 0 0 1-2.75.1 6.1 6.1 0 0 1-3.67-2.7c-1.67.6-1 1.44-1 1.44.22 2.74 5.98 3.46 5.98 3.46z"/><path d="M605.36 101.03s2.33-.4 1.44-2.3a7.2 7.2 0 0 1-2.75.1 6.1 6.1 0 0 1-3.67-2.7c-1.67.6-1 1.44-1 1.44.22 2.74 5.98 3.46 5.98 3.46z" opacity=".1"/><path fill="#fff" d="M601.97 36.66s7.1-.86 9.1 3.87a5.7 5.7 0 0 0-2.54.15 3.62 3.62 0 0 1-1.66.32 9.52 9.52 0 0 0-4.9-4.34z" opacity=".1"/><path fill="#11999e" d="M609.6 133.04a2.5 2.5 0 0 0 .4-.4 5.4 5.4 0 0 1 1.52-1.2 5.33 5.33 0 0 1 .63-.32 9.27 9.27 0 0 1 2-.6 8 8 0 0 1 1-.1l-.9-4.3v-.07l-.4-1.87a13.58 13.58 0 0 1-.9 1.57c-.45.7-1 1.37-1.6 1.38a.7.7 0 0 1-.44-.17 1.36 1.36 0 0 1-.27-.36c-.1-.16-.18-.3-.27-.43-1-1.44-1.63-.54-1.63-.54-1.14.4-1.6 1.77-1.78 3.14 0 .2 0 .4-.06.6a15.7 15.7 0 0 0 .1 2.9s1.02 2.15 2.6.77z"/><path fill="#444053" d="M611.6 131.44a5.33 5.33 0 0 1 .63-.32c-.22-.93-.5-2.33-.68-3.43 0-.1 0-.16 0-.24s0-.23-.06-.33a.7.7 0 0 1-.46-.17l.1.67v.27z"/><path fill="#11999e" d="M609.6 133.04a7.2 7.2 0 0 1-.84-2.62 5.68 5.68 0 0 1 .2-1.66c.04-.16.08-.32.14-.47a4.87 4.87 0 0 1 1.26-2.13c-1-1.44-1.63-.54-1.63-.54-1.14.4-1.6 1.77-1.78 3.14 0 .2 0 .4-.06.6a15.7 15.7 0 0 0 .1 2.9s1.02 2.15 2.6.77z"/><path d="M609.6 133.04a7.2 7.2 0 0 1-.84-2.62 5.68 5.68 0 0 1 .2-1.66c.04-.16.08-.32.14-.47a4.87 4.87 0 0 1 1.26-2.13c-1-1.44-1.63-.54-1.63-.54-1.14.4-1.6 1.77-1.78 3.14 0 .2 0 .4-.06.6a15.7 15.7 0 0 0 .1 2.9s1.02 2.15 2.6.77z" opacity=".1"/><path fill="#11999e" d="M566.35 91.9c5.4 3.46 11.63 6.82 17.55 8.6 4.55 1.38 8.9 1.82 12.56.66a11.5 11.5 0 0 0 4.26-2.46 12.15 12.15 0 0 0 2.15-2.56c4.23-6.6 4.15-18.23.8-28.3-2.34-7-6.22-13.2-11.33-16.47-12.46-8-28.38-5.4-35.56 5.8s-2.9 26.72 9.57 34.72z"/><path d="M566.35 91.9c5.4 3.46 11.63 6.82 17.55 8.6 4.55 1.38 8.9 1.82 12.56.66a11.5 11.5 0 0 0 4.26-2.46 12.15 12.15 0 0 0 2.15-2.56c4.23-6.6 4.15-18.23.8-28.3-2.34-7-6.22-13.2-11.33-16.47-12.46-8-28.38-5.4-35.56 5.8s-2.9 26.72 9.57 34.72z" opacity=".1"/><path fill="#11999e" d="M597.5 105.3c1.6 2.22 6.87-.16 6.87-.16s1.8-1.54 0-2.7a4.27 4.27 0 0 0-.5-.3 5.58 5.58 0 0 1-1.58-1.12c-.17-.16-.33-.33-.48-.5a9.36 9.36 0 0 1-1.12-1.78 7.42 7.42 0 0 1-.4-.93l-5.63 3a12.8 12.8 0 0 1 1.77.44c.8.26 1.6.64 1.76 1.16a.63.63 0 0 1 0 .48 1.2 1.2 0 0 1-.27.37 4.94 4.94 0 0 0-.33.37c-1.14 1.33-.1 1.68-.1 1.68z"/><path fill="#444053" d="M598.18 102.9l4.13-1.83c-.15-.16-.3-.33-.46-.5-1 .53-2.6 1.34-3.62 1.84a.63.63 0 0 1-.04.5z"/><path fill="#11999e" d="M597.5 105.3c1.6 2.22 6.87-.16 6.87-.16s1.8-1.54 0-2.7a6.9 6.9 0 0 1-2.3 1.5 6.1 6.1 0 0 1-4.5-.36c-1.1 1.37-.06 1.72-.06 1.72z"/><path d="M597.5 105.3c1.6 2.22 6.87-.16 6.87-.16s1.8-1.54 0-2.7a6.9 6.9 0 0 1-2.3 1.5 6.1 6.1 0 0 1-4.5-.36c-1.1 1.37-.06 1.72-.06 1.72z" opacity=".1"/><path fill="#fff" d="M567.88 52s5.6-4.42 9.8-1.44a5.76 5.76 0 0 0-2.1 1.46 3.63 3.63 0 0 1-1.26 1.14 9.53 9.53 0 0 0-6.44-1.15z" opacity=".1"/><g opacity=".1"><path d="M628.16 98.66l-1.3-6.23a12 12 0 0 1-.9 1.57 11.26 11.26 0 0 0 1.2 4.78 7 7 0 0 1 1-.12zM622.6 101.3a3 3 0 0 0 .4-.4 5.6 5.6 0 0 1 1.52-1.2 5.33 5.33 0 0 1 .63-.33 8.57 8.57 0 0 1 2-.6 7 7 0 0 1 1-.1l-1.3-6.24a12 12 0 0 1-.9 1.57c-.46.7-1.05 1.38-1.6 1.4a.73.73 0 0 1-.44-.2 1.23 1.23 0 0 1-.3-.3c-.1-.17-.18-.3-.26-.44-1-1.44-1.64-.53-1.64-.53-2.57.93-1.74 6.64-1.74 6.64s1.03 2.1 2.64.73zM624.52 99.7a5.33 5.33 0 0 1 .63-.33c-.26-1.1-.58-2.86-.8-4a.73.73 0 0 1-.43-.18zM622.6 101.3a7.33 7.33 0 0 1-.84-2.63 6.14 6.14 0 0 1 1.6-4.25c-1-1.44-1.63-.53-1.63-.53-2.57.92-1.74 6.63-1.74 6.63s1 2.14 2.6.77z"/><path d="M622.6 101.3a7.33 7.33 0 0 1-.84-2.63 6.14 6.14 0 0 1 1.6-4.25c-1-1.44-1.63-.53-1.63-.53-2.57.92-1.74 6.63-1.74 6.63s1 2.14 2.6.77z" opacity=".1"/></g><path fill="#11999e" d="M621.78 100.06a2.5 2.5 0 0 0 .4-.4 5.6 5.6 0 0 1 1.52-1.2 5.33 5.33 0 0 1 .63-.32 8.57 8.57 0 0 1 2-.6 7 7 0 0 1 1-.1l-1.3-6.24a12.74 12.74 0 0 1-.9 1.57c-.46.7-1 1.38-1.6 1.38a.66.66 0 0 1-.44-.17 1.38 1.38 0 0 1-.3-.36c-.1-.16-.18-.3-.26-.43-1-1.45-1.64-.55-1.64-.55-2.57.94-1.74 6.65-1.74 6.65s1 2.14 2.62.76z"/><path fill="#444053" d="M623.7 98.46a5.33 5.33 0 0 1 .63-.32c-.26-1.1-.58-2.86-.8-4a.66.66 0 0 1-.43-.17z"/><path fill="#11999e" d="M621.78 100.06a7.2 7.2 0 0 1-.84-2.62 6.14 6.14 0 0 1 1.66-4.25c-1-1.45-1.64-.55-1.64-.55-2.57.94-1.74 6.65-1.74 6.65s.95 2.14 2.56.76z"/><path d="M621.78 100.06a7.2 7.2 0 0 1-.84-2.62 6.14 6.14 0 0 1 1.66-4.25c-1-1.45-1.64-.55-1.64-.55-2.57.94-1.74 6.65-1.74 6.65s.95 2.14 2.56.76z" opacity=".1"/><g opacity=".1"><path d="M616.6 81.9a11.4 11.4 0 0 0 4.62 1.7 8.4 8.4 0 0 1 .46-.9l-5.88-2.44a12 12 0 0 1 .8 1.63zM618.6 90.52s2.33.4 2.1-1.72a3.24 3.24 0 0 0-.1-.56 5.53 5.53 0 0 1-.14-1.93 5.36 5.36 0 0 1 .1-.7 9.63 9.63 0 0 1 1.1-2.88l-5.88-2.44a12 12 0 0 1 .82 1.6c.32.8.54 1.66.24 2.1a.7.7 0 0 1-.4.28 1.06 1.06 0 0 1-.45 0h-.52c-1.76 0-1.36 1-1.36 1-.73 2.73 4.48 5.26 4.48 5.26zM616.4 84.28l4 2a5.36 5.36 0 0 1 .1-.7c-1.06-.4-2.7-1.14-3.74-1.6a.7.7 0 0 1-.36.3zM618.6 90.52s2.33.4 2.1-1.72a7.2 7.2 0 0 1-2.63-.78 6.16 6.16 0 0 1-2.6-3.73c-1.77 0-1.37 1-1.37 1-.7 2.7 4.5 5.22 4.5 5.22z"/><path d="M618.6 90.52s2.33.4 2.1-1.72a7.2 7.2 0 0 1-2.63-.78 6.16 6.16 0 0 1-2.6-3.73c-1.77 0-1.37 1-1.37 1-.7 2.7 4.5 5.22 4.5 5.22z" opacity=".1"/></g><path fill="#11999e" d="M618.17 89.9s2.33.38 2.1-1.72a3.07 3.07 0 0 0-.1-.56 5.6 5.6 0 0 1-.14-1.94 5.2 5.2 0 0 1 .1-.7 8.17 8.17 0 0 1 .64-2 8.4 8.4 0 0 1 .46-.9l-5.88-2.44a12 12 0 0 1 .8 1.63c.32.8.54 1.65.24 2.1a.72.72 0 0 1-.4.27 1.23 1.23 0 0 1-.46 0h-.5c-1.77 0-1.37 1-1.37 1-.7 2.73 4.5 5.25 4.5 5.25z"/><path fill="#444053" d="M616 83.66l4 2a5.2 5.2 0 0 1 .1-.7c-1.07-.4-2.7-1.13-3.75-1.6a.72.72 0 0 1-.36.3z"/><path fill="#11999e" d="M618.17 89.9s2.33.38 2.1-1.72a7.44 7.44 0 0 1-2.63-.8 6.14 6.14 0 0 1-2.6-3.7c-1.77 0-1.37 1-1.37 1-.7 2.7 4.5 5.2 4.5 5.2z"/><path d="M618.17 89.9s2.33.38 2.1-1.72a7.44 7.44 0 0 1-2.63-.8 6.14 6.14 0 0 1-2.6-3.7c-1.77 0-1.37 1-1.37 1-.7 2.7 4.5 5.2 4.5 5.2z" opacity=".1"/><path fill="#11999e" d="M595.1 117.28a12.4 12.4 0 0 1 .9-1.56c.48-.7 1.07-1.37 1.6-1.37a.63.63 0 0 1 .46.18 1.3 1.3 0 0 1 .28.35c.1.17.18.3.26.44 1 1.46 1.64.55 1.64.55 2.58-.9 1.8-6.63 1.8-6.63s-1-2.15-2.6-.8a3.68 3.68 0 0 0-.4.4 6.4 6.4 0 0 1-2.17 1.5 9 9 0 0 1-2 .58 6.36 6.36 0 0 1-1 .1z"/><path fill="#444053" d="M597.6 114.35a.63.63 0 0 1 .45.18l-.56-4.5a5.25 5.25 0 0 1-.64.32c.26 1.1.56 2.87.74 4z"/><path fill="#11999e" d="M598.6 115.32c1 1.46 1.64.55 1.64.55 2.58-.9 1.8-6.63 1.8-6.63s-1-2.15-2.6-.8a7 7 0 0 1 .8 2.64 6.06 6.06 0 0 1-1.64 4.24z"/><path d="M598.6 115.32c1 1.46 1.64.55 1.64.55 2.58-.9 1.8-6.63 1.8-6.63s-1-2.15-2.6-.8a7 7 0 0 1 .8 2.64 6.06 6.06 0 0 1-1.64 4.24zM592.96 125.7a19.55 19.55 0 0 0 3-10c.48-.7 1.07-1.37 1.6-1.37a.63.63 0 0 1 .46.18 1.3 1.3 0 0 1 .28.36c.1.17.18.3.26.44 1 1.46 1.64.55 1.64.55 2.58-.9 1.8-6.63 1.8-6.63s-1-2.15-2.6-.8a3.68 3.68 0 0 0-.4.4 6.4 6.4 0 0 1-2.17 1.5 9 9 0 0 1-2 .58 13.44 13.44 0 0 0-1.85-2.78 22.8 22.8 0 0 0-8.9-5.87c1.4 8.87 4 18.2 8.88 23.45zM607 128.77a17.36 17.36 0 0 0 2.14-.48 18.83 18.83 0 0 0 1.9-.67l.42-.17c.53-.23 1.07-.48 1.6-.76s.82-.42 1.23-.65c7.6-4.4 15-13.22 18.3-22.18a29.1 29.1 0 0 0 1.78-7.62 20.5 20.5 0 0 0-.06-4.15 29.3 29.3 0 0 0-3.72-11.2c-.22-.38-.43-.73-.66-1.07-5-7.72-13.4-12.38-22.35-11.44 1.93 5.6 4.7 10.38 8.58 12.87.32.8.54 1.65.24 2.1a.72.72 0 0 1-.4.27 1.23 1.23 0 0 1-.45 0h-.5c-1.77 0-1.37 1-1.37 1-.7 2.65 4.5 5.18 4.5 5.18s2.33.4 2.1-1.7a3.07 3.07 0 0 0-.1-.57 5.6 5.6 0 0 1-.14-1.94 5.2 5.2 0 0 1 .1-.68 8.17 8.17 0 0 1 .64-2 12.85 12.85 0 0 0 3.34 0 17.74 17.74 0 0 0 4.56-1.24c-.2.33-.4.66-.58 1a19.62 19.62 0 0 0-3 10c-.46.7-1 1.38-1.6 1.38a.66.66 0 0 1-.44-.17 1.38 1.38 0 0 1-.3-.37c-.08-.16-.17-.3-.25-.43-1-1.44-1.64-.54-1.64-.54-2.58.94-1.75 6.65-1.75 6.65s1 2.15 2.6.77a2.5 2.5 0 0 0 .4-.4 5.6 5.6 0 0 1 1.53-1.2 5.33 5.33 0 0 1 .63-.32 8.57 8.57 0 0 1 2-.6 12.74 12.74 0 0 0 1.88 2.78l.4.43-.14.13a79 79 0 0 0-8.87 9.43c-.8 1-1.6 2.1-2.28 3.18q-.75 1.14-1.4 2.26a19.67 19.67 0 0 0-2.93 10c-.46.7-1 1.37-1.6 1.38a.7.7 0 0 1-.45-.17 1.36 1.36 0 0 1-.28-.36c-.1-.15-.18-.3-.27-.42-1-1.44-1.63-.54-1.63-.54-1.14.5-1.58 1.86-1.75 3.23z" opacity=".1"/><g opacity=".1"><path d="M618.38 78.75a3.6 3.6 0 0 0 1.68.23 5.83 5.83 0 0 1 2.46.68c-.38-5.12-7.38-6.6-7.38-6.6a9.5 9.5 0 0 1 3.24 5.7zM583.46 97.4c.13 1 .27 2.08.44 3.14 4.55 1.38 8.9 1.82 12.56.66.8.26 1.6.64 1.76 1.16a.63.63 0 0 1 0 .48 1.2 1.2 0 0 1-.27.37 4.94 4.94 0 0 0-.33.38c-1.12 1.37-.07 1.72-.07 1.72 1.6 2.22 6.86-.16 6.86-.16s1.8-1.54 0-2.7a4.27 4.27 0 0 0-.48-.3 5.58 5.58 0 0 1-1.6-1.12c-.15-.16-.3-.33-.46-.5a9.36 9.36 0 0 1-1.12-1.78 12.15 12.15 0 0 0 2.15-2.56c4.22-6.6 4.14-18.23.8-28.3-13 1.85-22.03 15-20.24 29.5zM595.6 126.46a11.4 11.4 0 0 0 4.6 1.73 7.28 7.28 0 0 1 .48-.9l-5.9-2.4a13.86 13.86 0 0 1 .82 1.56zM597.6 135.08s2.34.4 2.1-1.7a3 3 0 0 0-.1-.57 5.6 5.6 0 0 1-.13-1.93 5 5 0 0 1 .1-.7 9 9 0 0 1 .63-2 7.28 7.28 0 0 1 .47-.9l-5.9-2.38a13.86 13.86 0 0 1 .8 1.6c.32.8.54 1.67.24 2.12a.66.66 0 0 1-.38.27 1.32 1.32 0 0 1-.46 0 4.53 4.53 0 0 0-.5 0c-1.77 0-1.37 1-1.37 1-.7 2.66 4.5 5.18 4.5 5.18zM595.42 128.9l4 2q0-.37.1-.7c-1.06-.4-2.7-1.14-3.75-1.6a.67.67 0 0 1-.35.3zM597.6 135.08s2.33.4 2.1-1.72a7.1 7.1 0 0 1-2.63-.78 6.1 6.1 0 0 1-2.6-3.72c-1.78 0-1.38 1-1.38 1-.7 2.7 4.5 5.22 4.5 5.22z"/><path d="M597.6 135.08s2.33.4 2.1-1.72a7.1 7.1 0 0 1-2.63-.78 6.1 6.1 0 0 1-2.6-3.72c-1.78 0-1.38 1-1.38 1-.7 2.7 4.5 5.22 4.5 5.22zM618.38 78.75a3.6 3.6 0 0 0 1.68.23 5.83 5.83 0 0 1 2.46.68c-.38-5.12-7.38-6.6-7.38-6.6a9.5 9.5 0 0 1 3.24 5.7z" opacity=".1"/></g><path fill="#11999e" d="M584.9 98.2c1.8 14.7 6.88 32.45 20.07 30.82s29.52-22 27.7-36.7-14-25.3-27.17-23.66-22.42 14.86-20.6 29.55zM599.03 135.9s2.33.4 2.1-1.72a4.44 4.44 0 0 0-.1-.56 5.37 5.37 0 0 1-.14-1.94c0-.23.05-.47.1-.7a9 9 0 0 1 1.1-2.88l-5.88-2.45s1.66 2.8 1 3.74a.7.7 0 0 1-.4.26 1.54 1.54 0 0 1-.45 0h-.5c-1.77 0-1.37 1-1.37 1-.66 2.72 4.53 5.23 4.53 5.23z"/><path fill="#444053" d="M596.85 129.67l4 2c0-.23.06-.47.1-.7-1.06-.4-2.7-1.13-3.74-1.6a.7.7 0 0 1-.35.3z"/><path fill="#11999e" d="M599.03 135.9s2.33.4 2.1-1.72a7 7 0 0 1-2.63-.8 6.06 6.06 0 0 1-2.6-3.7c-1.77 0-1.37 1-1.37 1-.7 2.7 4.5 5.2 4.5 5.2z"/><path d="M599.03 135.9s2.33.4 2.1-1.72a7 7 0 0 1-2.63-.8 6.06 6.06 0 0 1-2.6-3.7c-1.77 0-1.37 1-1.37 1-.7 2.7 4.5 5.2 4.5 5.2z" opacity=".1"/><path fill="#fff" d="M616.6 73.9s7 1.47 7.38 6.6a5.74 5.74 0 0 0-2.47-.68 3.64 3.64 0 0 1-1.66-.24 9.57 9.57 0 0 0-3.24-5.7z" opacity=".1"/><path fill="none" stroke="#444053" stroke-miterlimit="10" d="M599.4 131a4.26 4.26 0 0 1 3.78 5.23c-.88 2.95-4.5 3.88-6.86 5.85s-3.5 5.12-3.78 8.2a20.08 20.08 0 0 0 5.77 15.87c2.13 2.1 4.7 3.7 6.78 5.8a34.58 34.58 0 0 1 5.85 8.93 20.88 20.88 0 0 1 2.6 7.5c.34 4.2-1.78 8.24-4.3 11.62s-5.57 6.44-7.53 10.18a21.4 21.4 0 0 0-1.23 16.77 2.17 2.17 0 0 0 .7 1.12.8.8 0 0 0 1.17-.25M611.68 130.25a2 2 0 0 1 .1 2.54 3.1 3.1 0 0 1-2.45 1.12c-1.13 0-2.4-.35-3.32.3a2.87 2.87 0 0 0-1 2.18 11.07 11.07 0 0 1-.24 2.45 4.88 4.88 0 0 1-1.08 1.76 5.4 5.4 0 0 1-2 1.47c-1.67.65-3.6.06-5.3.6-2.26.7-3.47 3.14-4.15 5.4a15.55 15.55 0 0 0-.5 8.38 29 29 0 0 0 2.28 5.14 11.63 11.63 0 0 1 1.5 5.35 4.92 4.92 0 0 1-2.83 4.5M608.86 194.8c-2.7 3.58-3.7 9.3-8.1 10.17-2.28.45-4.53-.72-6.56-1.84-4.73-2.64-9.6-5.3-15-6.17s-11.36.38-14.9 4.5c-2.4 2.8-3.4 6.6-5.52 9.63a19.78 19.78 0 0 1-11.2 7.35A45.83 45.83 0 0 1 534 219.6c-1.7-.04-3.53-.17-4.8-1.3a11.66 11.66 0 0 1-2-3.04c-2.16-3.64-6.45-5.64-10.68-5.9s-8.4 1-12.32 2.6c-2 .82-4 1.76-6.14 1.55-3-.3-5.2-2.7-7.06-5.04a100 100 0 0 1-12.13-19.74"/><path fill="url(#b)" d="M497.9 603.42c1.08-3.9 1.78-7.3 1.78-7.3a15.3 15.3 0 0 1 2-7.42l.05-1.07.3-7.9a26.56 26.56 0 0 0-1.83-4.2c-1.33-2.53.45-11.57.45-11.57s5.76-12.6 4.8-20.78 12.2-35.68 12.2-35.68a35.38 35.38 0 0 0-.84-8 6.8 6.8 0 0 1-.08-1.68v-.14c.4-5.35 5-15.24 5-15.24l.17-19.16s-2.28-11.4 2.72-26.4c1.74-5.22 2.9-9.4 3.64-12.65.1-.37.17-.72.24-1.06-9-1.74-15.92-3.16-15.92-3.16s6.1-21.82 9.82-25.54 7-15.74 7-15.74 2.45-15.5-.37-20.15-2.9-12.57-2.9-12.57-6.64-5.22-7.4-7.46-2-7.25-1.9-9.87 1-4.93.8-6.3 2.25-6.55 1.2-9.07a7 7 0 0 1-.36-2.4s0 0 0-.08a33.5 33.5 0 0 1 .85-6.44 18.24 18.24 0 0 1 6.9-3.35l.17-.6.43-1.52c.24-.14.47-.26.7-.37v-.56l.14-2.24-.88-5.07c-1.77-8.82 10-9.68 10-9.68a6.14 6.14 0 0 1 3.4-2.77c2.4-.73-.1 13.18-1.24 14-.85.65-3.57 4.94-4.88 7l-.22.36a4.9 4.9 0 0 1 .52.58l-.56 3-.1.46a12.63 12.63 0 0 1 1.75 3.25s-2.23 2.26-1.9 4.9a15.46 15.46 0 0 1-.94 6c.13-.13 1.7-1.7 3.18-1.25s5.64 1.87 5.64 1.87 3.1.68 2.8 1.35 2 3.8 2 3.8L555 316c.1-.24.2-.47.27-.72a19.67 19.67 0 0 0 .87-3.46 19.17 19.17 0 0 1-2.66-1 5.78 5.78 0 0 1-2.27-1.58 9 9 0 0 1-1.2-3.68c-.58-2.48-1.92-4.7-2.86-7.08a22.7 22.7 0 0 1-1.2-12.57 8.26 8.26 0 0 1 1.44-3.6c1.44-1.84 4-2.5 5.83-3.94s3.14-3.7 5.3-4.75c1.94-.94 4.27-.73 6.4-.3a34.3 34.3 0 0 1 11.76 4.8c1.2.77 2.5 1.67 3.93 1.46a5.3 5.3 0 0 0 3-2v-.1l.08-.12a14.85 14.85 0 0 1 1.07 6.35c0 .32 0 .66-.08 1v.34a1.43 1.43 0 0 0 0 .3 1.73 1.73 0 0 0 0 .44 3.23 3.23 0 0 0 .74 1.17 6 6 0 0 1 .66 1c0-.12-.06-.23-.1-.35a5 5 0 0 1 .77 2.7 2.68 2.68 0 0 1-.7 1.86 8.7 8.7 0 0 1-1.42 1.05 16 16 0 0 1-8.3 16.4c-.1.23-.22.47-.32.7a20.1 20.1 0 0 0-1.88 9.13c0 .22 0 .44.08.67a4.4 4.4 0 0 1 .28.36s13.88.67 17.27-2.17 8 7.55 8 7.55 4.95 1.15 6 .23 6.84.12 6.84.12a12.53 12.53 0 0 1 8.8-2.83 25.7 25.7 0 0 1 6.5-3.3h.17a7.2 7.2 0 0 1 3.14-.28s7.05-5.4 9.16-8.34 12-13.84 12.08-13.88l.05-.55.17-1.63a6.1 6.1 0 0 0 .85.1c.05-.15.12-.34.2-.55a29.77 29.77 0 0 1 2.2-4.55s.08-2.07-.5-2.6.56-8.1.56-8.1 6.7-14.15 11.8-3.2c0 0 10.16 7.36 1.1 15.12 0 0-3.55 1.55-4.1 2.87-.36.85-1.64 3.24-2.5 4.82-.14.26-.27.5-.38.7l.1.1-.18 1.34-.08.52c1.62 1 2.7 2 2.4 2.67a15.36 15.36 0 0 0-1.14 3.68s-12.68 14.68-14.5 21.1c0 0-33.2 18-43.9 19l1.47 9.7s.34 5.82.12 7.88.84 11.5.84 11.5 1.33 13.84 2.82 15.83.9 10.24.9 10.24a69.1 69.1 0 0 0 1.68 11.8c1.36 5.3 0 11.72 0 11.72s4.93 12.6-7.7 3.7c0 0-6.34-.65-13.65-1.18 0 .24 0 .5 0 .74 0 .94 0 2-.08 3-.17 7.1-.5 16.9-1.1 24.3-1.1 13.05-6.07 38.8-6.07 38.8l-.5 13a16.94 16.94 0 0 1 .23 3.72 24.16 24.16 0 0 1-4 12.9l-1.53 8.58s-2.56 5.62-2.74 9a4.28 4.28 0 0 0 .07.83 6.08 6.08 0 0 1 .06 1.33c0 3.94-2.76 13.28-2.76 13.28s-.5 9.5-2 10c-1.23.44 1.42 5.55 2.2 7a2.6 2.6 0 0 0 .07-.26l.18.3a6.73 6.73 0 0 1 .35 2.42 3.46 3.46 0 0 1-1.7 3.28c-2.78 1.54-4.28 2.87-2 3.5.86.25 1.8.34 2.48.63 0-.1.1-.22.14-.32a1.52 1.52 0 0 1 .87 1.7 7 7 0 0 1-1 3.2 34.14 34.14 0 0 1-4.1 6.87l-1.1-.16a5.33 5.33 0 0 0 .6 1.2 4.63 4.63 0 0 0 1.54 1.5 5 5 0 0 0 1.92.73 5.5 5.5 0 0 1 4 2.1c1.34 1.9 2.14 4.43-.75 6.52l-10.3 3.12s-17.6 1.6-16.52-2.3 1.78-7.3 1.78-7.3A15.54 15.54 0 0 1 551 596a7.2 7.2 0 0 1 .66-1l-.62-.1s-.94-8.72-2.6-10.44c-.37-.4-.45-.7-.34-.92-.16-.48.3-.74.87-.87 0 .1.08.23.1.34a9.1 9.1 0 0 1 1.72-.1s.74-4.53-1-6.26a1.75 1.75 0 0 1-.32-1.36 7.42 7.42 0 0 1 .27-1.85l.06.1c1.1-4.08 4.5-10.5 4.5-10.5s.3-4.14-.77-5.83 1-22.45 1-22.45 0-10.07 1.42-14.7-1.18-10.26-1.18-10.26v-.3a.22.22 0 0 0 0-.08l.23-1.58v.1c.4-2.65 1.12-7.45 1.6-9.67.7-3.14.57-18.32.57-18.32l-2.32-6.58-5 11-5.38 14.63s-2.52 3.05-2.7 6.23c0 .15 0 .3 0 .47a8.26 8.26 0 0 1 0 1 8.84 8.84 0 0 1-1.68 5.25s-1.56 7-3.62 8.7-2.2 5.14-2.2 5.14-2.8 10.1-4 11.84c-1 1.47-1.22 5.62-1.26 6.9 0 .23 0 .36 0 .36s-.48 3.63-.58 6.7c0 .37 0 .74 0 1.1 0 0 0-.07 0-.1a11.1 11.1 0 0 0 .2 2.5s0 .1 0 .14v-.5a25.88 25.88 0 0 1 .5 6.37c-.1 3.67-.8 8-3.13 10.45-4 4.26-6.4 3.62-6.4 3.62s1.64 5.58 3.87 6.77a1 1 0 0 1 .24.16c0-.1 0-.2.08-.32a2.7 2.7 0 0 1 .6 2.08c.06 2.43-1.62 6.3-3.15 8.06a4.5 4.5 0 0 1-2 1.05l.35.24c.28.17.53.3.77.4a3.66 3.66 0 0 0 1.15.35 5.43 5.43 0 0 1 4 2.12c1.35 1.88 2.15 4.42-.74 6.5l-10.32 3.13s-17.6 1.6-16.53-2.28z" transform="translate(-50.4 -87.11)"/><path fill="#2d293d" d="M514.12 525.4l10-3.14c2.8-2.1 2-4.63.73-6.52a5.22 5.22 0 0 0-3.82-2.1 4.73 4.73 0 0 1-1.86-.75 4.45 4.45 0 0 1-1.5-1.5 7.27 7.27 0 0 1-1-3.85s-10.7-3.58-13.78-.53a8.15 8.15 0 0 0-1.4 1.87 16 16 0 0 0-1.64 6.9s-.68 3.42-1.72 7.32 15.98 2.27 15.98 2.27zM466.1 518.68l10-3.13c2.8-2.1 2-4.63.72-6.5a5.18 5.18 0 0 0-3.83-2.12 3.9 3.9 0 0 1-1.12-.35 5 5 0 0 1-.74-.4c-2.7-1.62-2.54-5.3-2.54-5.3s-10.7-3.57-13.77-.52a7.9 7.9 0 0 0-1.1 1.37 15.63 15.63 0 0 0-1.93 7.42s-.7 3.42-1.73 7.3 16.02 2.23 16.02 2.23z"/><path d="M502.9 507.02a8.15 8.15 0 0 0-1.4 1.87l16.15 2.5a7.27 7.27 0 0 1-1-3.86s-10.68-3.57-13.76-.52zM453.78 501.68l-.12 3c2.36 4.26 14.6 3.82 18.2 1.87a5 5 0 0 1-.73-.4c-2.7-1.6-2.53-5.26-2.53-5.26s-10.7-3.6-13.77-.54a7.9 7.9 0 0 0-1.05 1.32z" opacity=".1"/><path fill="#3f3d56" d="M452.35 488.52a26.62 26.62 0 0 1 1.77 4.2l-.42 10.9c2.58 4.64 17 3.68 19 1.27s4.34-8.8 2.18-10-3.74-6.78-3.74-6.78 2.32.64 6.2-3.62 3.17-14.1 2.57-16.46.4-10.2.4-10.2.08-5.5 1.25-7.25 3.9-11.87 3.9-11.87.14-3.44 2.14-5.16 3.5-8.7 3.5-8.7a9 9 0 0 0 1.6-5.86c-.28-3.45 2.62-7.06 2.62-7.06l5.25-14.7 4.84-11 2.2 6.65s.1 15.17-.57 18.32-1.82 11.52-1.82 11.52 2.55 5.6 1.13 10.25-1.4 14.7-1.4 14.7-2 20.75-1 22.44.75 5.82.75 5.82-6.12 11.9-4.4 13.63 1 6.24 1 6.24-3.84-.15-2.25 1.57 2.57 10.4 2.57 10.4l16.58 2.57a34.8 34.8 0 0 0 4-6.88c2.4-5-.23-4.58-2.43-5.2s-.74-2 1.94-3.52 1.3-5.33 1.3-5.33-3.74-6.9-2.34-7.4 1.9-10 1.9-10 3.2-11.2 2.62-14.26 2.6-10.26 2.6-10.26l1.3-8.64a23.85 23.85 0 0 0 3.66-16.27l.52-13.36s4.85-25.75 5.9-38.82c.68-8.36 1-19.8 1.18-26.95.1-4 .12-6.66.12-6.66l-59.27-8.5a48.54 48.54 0 0 1-1.43 8.8c-.73 3.26-1.85 7.45-3.54 12.68-4.86 15-2.67 26.4-2.67 26.4l-.2 19.15s-5.72 12.6-4.8 17.06a36.37 36.37 0 0 1 .8 8s-12.78 27.5-11.85 35.68-4.65 20.8-4.65 20.8-1.78 9.1-.5 11.62z"/><path d="M489.14 418.07l-18-3.1s9.84 10.85 18 3.1z" opacity=".05"/><path d="M474.42 397.36s-.87 6.38 3 8.94c-.04 0-7.02-1.4-3-8.94zM476.3 377s14.68 13.06 20.22 12.24-20.2-12.23-20.2-12.23zM511.37 424.78s11.4 3.06 11.56 7.7-11.56-7.7-11.56-7.7z" opacity=".1"/><path d="M506.6 482.13s16.13 3.65 11.44 5.54a78.4 78.4 0 0 1-12.3 3.22s-5.25.1.86-8.77z" opacity=".05"/><g opacity=".05"><path d="M521.23 491.08a3.2 3.2 0 0 0 1.57-2.3l.16.3s1.37 3.77-1.3 5.32l-.88.53c-.48-.1-1-.2-1.5-.34-2.2-.65-.68-1.97 1.95-3.52zM500.33 489.17c-.43-.43-.37-1.5-.05-2.84a7.65 7.65 0 0 1 .77 4 3.25 3.25 0 0 0-.72-1.16zM505.47 420.74a18.48 18.48 0 0 1 .9 5.1 20.7 20.7 0 0 0-1.12-3.53s.08-.6.22-1.56zM468.53 412.07a6.45 6.45 0 0 1-.1-1.5c.17 1 .28 2 .35 2.83-.07-.44-.18-.88-.25-1.33zM503.98 469.72a8.9 8.9 0 0 1-.3-3.08 10.35 10.35 0 0 1 .65 3.9 3.9 3.9 0 0 0-.35-.82zM499.6 495.57a53.63 53.63 0 0 1 1.58 8.53l16.58 2.57a34.8 34.8 0 0 0 4-6.88c.2-.45.38-.85.52-1.2 1 .5 1.33 1.54-.1 4.5a34.74 34.74 0 0 1-4 6.9l-16.58-2.57s-.9-8.73-2.5-10.45c-.82-.84-.28-1.23.5-1.4zM522.52 471.68s-.5 9.5-1.9 10c-.63-1.6-1-3.1-.4-3.33 1.4-.5 1.9-10 1.9-10s3.18-11.2 2.6-14.25 2.6-10.24 2.6-10.24l1.3-8.64a23.88 23.88 0 0 0 3.67-16.28l.5-13.36s4.86-25.75 5.9-38.8c.7-8.38 1-19.82 1.2-26.96 0-1.3.04-2.44.05-3.4l.48.06s0 2.66-.12 6.66c-.15 7.14-.5 18.6-1.16 26.95-1.06 13.06-5.9 38.8-5.9 38.8l-.53 13.37a23.85 23.85 0 0 1-3.65 16.27l-1.3 8.64s-3.17 7.2-2.6 10.25-2.63 14.25-2.63 14.25zM472.28 501.2a16.17 16.17 0 0 0 2.9-6.45c1.63 1.6-.56 7.5-2.48 9.77s-16.4 3.37-19-1.28l.1-2.62c3.6 3.83 16.56 2.85 18.48.58zM451.94 484.82a27.9 27.9 0 0 1 1.77 4.2l-.07 1.94c-.28-.7-.7-1.67-1.27-2.8a8.23 8.23 0 0 1-.47-3.44zM471.95 487.77a26.05 26.05 0 0 1-1.23-3.33s2.32.64 6.2-3.62c2.84-3.1 3.22-9.15 3-13.13.6 2.36 1.33 12.18-2.56 16.45-2.56 2.8-4.42 3.47-5.4 3.62zM480.3 457.5a72.28 72.28 0 0 0-.58 8.15c-.08-.53-.16-1-.24-1.3-.6-2.35.4-10.18.4-10.18s.08-5.5 1.25-7.26 3.9-11.84 3.9-11.84.13-3.45 2.13-5.16 3.5-8.7 3.5-8.7a9.07 9.07 0 0 0 1.6-5.87c-.27-3.46 2.63-7.07 2.63-7.07l5.25-14.7 4.83-11 2.23 6.57s0 .82 0 2.1l-1.8-5.34-4.8 11-5.25 14.7s-2.9 3.6-2.62 7.06a9 9 0 0 1-1.6 5.87s-1.52 7-3.5 8.7-2.14 5.15-2.14 5.15-2.75 10.1-3.92 11.85-1.27 7.27-1.27 7.27z"/></g><path fill="#ffcdd3" d="M478.5 203.62l.83 5.07-.14 2.23-.12 1.65 5.72.8.7-1.16c1.27-2.1 3.9-6.4 4.73-7 1.1-.86 3.53-14.77 1.22-14a6 6 0 0 0-3.3 2.78s-11.36.8-9.66 9.62z"/><path d="M479.08 212.58l5.72.8.7-1.16a5.05 5.05 0 0 0-6.3-1.3z" opacity=".1"/><path fill="#dce6f2" d="M477.52 215.24l7.5 2 .22-1.12.54-3a5.22 5.22 0 0 0-7.3-1.3l-.43 1.55z"/><path fill="#ffcdd3" d="M600.72 208.9l7.93 4.64.8-1.5c.82-1.58 2.06-4 2.4-4.83.54-1.3 4-2.87 4-2.87 8.8-7.77-1-15.1-1-15.1-4.92-10.96-11.43 3.2-11.43 3.2s-1.1 7.55-.55 8.1.5 2.6.5 2.6a30.15 30.15 0 0 0-2.14 4.55c-.36.73-.5 1.2-.5 1.2z"/><path d="M600.72 208.9l7.93 4.64.8-1.5c-1.12-1-5-4.44-6.37-4.34a9.5 9.5 0 0 1-1.92 0c-.3.7-.44 1.2-.44 1.2z" opacity=".1"/><path fill="#dce6f2" d="M599.8 211.3l8.92 4.82.26-2 .18-1.34s-5.1-4.72-6.66-4.6a8.2 8.2 0 0 1-2.37-.1l-.17 1.63z"/><path fill="#ffcdd3" d="M499.25 237.9s39.47 6 32.15 3.3c-5.1-1.9-7-5.24-7.3-8.9a20.73 20.73 0 0 1 1.82-9.1 39.25 39.25 0 0 1 3.82-7s-29.66-17.85-24.18-2.46A24.36 24.36 0 0 1 507 221a20.27 20.27 0 0 1-1.06 7.22 21.73 21.73 0 0 1-6.7 9.67z"/><path d="M505.6 213.7a24.36 24.36 0 0 1 1.44 7.25c2.76 2.5 5.9 2.47 9.9 2.62 3.1.12 6.5 1 9-.4a39.25 39.25 0 0 1 3.83-7s-29.7-17.86-24.17-2.47z" opacity=".1"/><circle cx="518.04" cy="208.24" r="16.4" fill="#ffcdd3"/><path d="M499.25 237.9s39.47 6 32.15 3.3c-5.1-1.9-7-5.24-7.3-8.9-1.9-2.2-5.8-3.9-8.32-4.83a11.9 11.9 0 0 0-7.18-.4 10.12 10.12 0 0 0-2.66 1.12 21.73 21.73 0 0 1-6.7 9.7zM477.52 215.24l7.5 2 .22-1.12a6.7 6.7 0 0 0-7.2-2.77zM599.8 211.3l8.92 4.82.26-2a67.15 67.15 0 0 0-9-4.4zM479.72 337.16c15.26 3 37 7 40.5 6.1 2.9-.78 12.1-.33 20.07.25.08-4 .1-6.65.1-6.65l-59.26-8.5a48.54 48.54 0 0 1-1.42 8.8z" opacity=".1"/><path fill="#3f3d56" d="M464.6 332.97s50.22 10.62 55.7 9.18 33.28 1.42 33.28 1.42c12.2 8.88 7.46-3.72 7.46-3.72s1.35-6.43 0-11.72a71.88 71.88 0 0 1-1.6-11.8s.58-8.24-.86-10.23-2.7-15.83-2.7-15.83-1-9.42-.8-11.48-.1-7.88-.1-7.88l-1.43-9.7c10.38-1 42.53-19.07 42.53-19.07 1.77-6.4 14.06-21.12 14.06-21.12a15.6 15.6 0 0 1 1.1-3.68c.92-2.17-11.3-7-11.3-7s-9.68 10.94-11.72 13.9-8.88 8.34-8.88 8.34a6.75 6.75 0 0 0-3 .27h-.16a24.55 24.55 0 0 0-6.3 3.3 12 12 0 0 0-8.53 2.85s-5.62-1-6.62-.12-5.78-.22-5.78-.22-4.43-10.38-7.7-7.54-16.74 2.2-16.74 2.2c-1.68-2.46-6-4.34-8.67-5.32a11.9 11.9 0 0 0-7.18-.4 9.16 9.16 0 0 0-2.9 1.27l-8.45 7.66s-2.23-3.12-1.93-3.8-2.7-1.35-2.7-1.35-4-1.38-5.45-1.85-2.95 1.1-3.08 1.25a16.08 16.08 0 0 0 .92-6c-.3-2.63 1.84-4.9 1.84-4.9-4.36-12-15.63-2.53-15.63-2.53s-1.5 6.43-.48 8.95-1.4 7.67-1.2 9.06-.68 3.7-.78 6.32 1.1 7.63 1.83 9.86 7.16 7.45 7.16 7.45.12 7.88 2.84 12.54.33 20.15.33 20.15-3.22 12-6.82 15.73-9.55 25.54-9.55 25.54z"/><path d="M541.73 245.17s1.7-4.5 3.08-4.85a31.9 31.9 0 0 0 4.08-1.64l-.82-1.73s-5.23 1.22-6.12 2.7-.2 5.52-.2 5.52zM569.8 236.18c.23 1.38 12.44 3.1 12.44 3.1l-6-6.46h-.15a24.55 24.55 0 0 0-6.3 3.36zM540.22 282.5c.14-.16-32.42 37.85-55.66 14.27.04 0 37.9 6.63 55.66-14.28zM548.7 262.83a59.93 59.93 0 0 1-7.7 12.06 48.44 48.44 0 0 1-11.7 10.45s18.98-19.98 19.4-22.52zM555.6 241.47s-3.62 13.26-11.78 17.5zM560.3 243c.1-.24 2.35 10.7-10.94 16.2 0 0 5.62-1.68 10.94-16.2zM479.5 230.9c.22 0-6.6 4-8.48 5.87 0 .02 4.58-6.3 8.5-5.88z" opacity=".1"/><path fill="#3f3d56" d="M521.9 223.28a3.43 3.43 0 0 1-1.36 2.16 3.32 3.32 0 0 1-1.56.3c-5 .1-10.22.13-14.77-2a5.58 5.58 0 0 1-2.18-1.6 9.16 9.16 0 0 1-1.17-3.66c-.56-2.48-1.86-4.7-2.76-7.08a23.4 23.4 0 0 1-1.15-12.5 8.47 8.47 0 0 1 1.4-3.63c1.4-1.84 3.83-2.5 5.64-3.95s3-3.7 5.1-4.75c1.9-1 4.15-.75 6.2-.3a32.4 32.4 0 0 1 11.4 4.77c1.15.77 2.42 1.66 3.8 1.46a5.3 5.3 0 0 0 2.9-2.07 15.07 15.07 0 0 1 1 7.2 3.26 3.26 0 0 0 0 1.07 3.36 3.36 0 0 0 .73 1.16c1.18 1.48 1.86 3.78.6 5.17-.56.62-1.4.93-1.93 1.55-1 1.1-.73 2.78-.76 4.26a2.2 2.2 0 0 1-.42 1.44 2.13 2.13 0 0 1-2 .4 5.68 5.68 0 0 0-2.15-.3 3.65 3.65 0 0 0-1.93 1.38c-2.5 2.83-3.53 6.02-4.64 9.52z"/><g opacity=".1"><path d="M501.5 220.9a5.55 5.55 0 0 0 2.2 1.57c4.56 2.1 9.77 2.08 14.78 2a3.58 3.58 0 0 0 1.56-.3 3.43 3.43 0 0 0 1.36-2.16c1.1-3.48 2.13-6.67 4.55-9.52a3.6 3.6 0 0 1 1.93-1.37 5.68 5.68 0 0 1 2.15.3 2.1 2.1 0 0 0 2-.4 2.2 2.2 0 0 0 .42-1.45c0-1.47-.2-3.14.75-4.25.54-.63 1.37-.94 1.93-1.55a3.2 3.2 0 0 0 .44-3.27c.82 1.42 1.14 3.22.07 4.4-.56.6-1.4.92-1.93 1.54-1 1.1-.7 2.78-.74 4.26a2.2 2.2 0 0 1-.42 1.44 2.13 2.13 0 0 1-2 .4 5.73 5.73 0 0 0-2.15-.3 3.6 3.6 0 0 0-1.94 1.38c-2.42 2.85-3.45 6-4.55 9.54a3.43 3.43 0 0 1-1.35 2.16 3.32 3.32 0 0 1-1.56.3c-5 .1-10.23.13-14.78-2a5.55 5.55 0 0 1-2.2-1.6 4.46 4.46 0 0 1-.66-1.34zM534.33 198.24a2.37 2.37 0 0 1-.47-.85 3 3 0 0 1 0-1.08 15.25 15.25 0 0 0-.54-6l.1-.1a15.2 15.2 0 0 1 .94 7.2 5.3 5.3 0 0 0-.03.82z"/></g><path d="M524.45 233.33s-20.6 1.92-22.3-1.23M484.96 223.32s-11.38-.42-14 3.75" opacity=".1"/></svg>