<svg xmlns="http://www.w3.org/2000/svg" width="1046" height="638.584" data-name="Layer 1"><path fill="#3f3d56" d="M161.23 554.65c8.57 31.66 37.9 51.27 37.9 51.27s15.45-31.73 6.89-63.4-37.9-51.26-37.9-51.26-15.45 31.72-6.89 63.39z"/><path fill="#11999e" d="M173.82 547.84c23.5 22.88 26.37 58.05 26.37 58.05s-35.23-1.92-58.74-24.8-26.37-58.05-26.37-58.05 35.23 1.92 58.74 24.8z"/><path fill="#2f2e41" d="M113.47 636.03h827.6v2.55h-827.6z"/><path fill="#3f3d56" d="M210.73 637.3h-33.2v-33.2h33.2zm-30.65-2.55h28.1v-28.1h-28.1zM0 25.32h281.42v281.42H0z"/><path fill="#11999e" d="M281.42 95.34v6.46a29.2 29.2 0 01-10.04-11.38c-3.74-7.66-3.62-16.5-3.5-25.04.13-10.15.27-19.73-6.18-25.97-7.08-6.85-18.42-5.88-29.4-4.95-1.28.1-2.57.22-3.84.32-11 .83-23.26-1.95-29.21-9.46h7.42c5.45 3.66 13.77 4.95 21.42 4.38 1.23-.09 2.5-.2 3.78-.3 11.54-1 24.63-2.11 33.36 6.35 8.04 7.76 7.88 18.92 7.73 29.7-.12 7.95-.22 16.16 3 22.73a23.25 23.25 0 005.46 7.16zM281.42 140v7.57a32.16 32.16 0 00-4.14-4.46c-8.74-7.71-21.3-9.4-33.44-11.07-1.58-.2-3.12-.42-4.67-.64-19.68-2.83-31.89-9.6-37.3-20.64-3.74-7.66-3.62-16.49-3.5-25.03.13-10.16.27-19.74-6.17-25.98-7.09-6.85-18.43-5.88-29.4-4.95-1.29.1-2.58.22-3.85.33-14.14 1.06-30.36-3.84-32.58-17.08-.77-4.54.37-8.71 2.05-12.73h5.56c-1.87 4.04-3.26 7.94-2.6 11.89 1.68 10.1 15.28 13.73 27.2 12.83 1.24-.09 2.5-.2 3.78-.3 11.54-.99 24.63-2.1 33.36 6.35 8.04 7.77 7.89 18.92 7.73 29.7-.12 7.95-.22 16.16 3 22.74 4.61 9.42 15.55 15.25 33.45 17.83 1.53.22 3.07.44 4.61.65 12.89 1.74 26.23 3.56 36.15 12.29q.38.33.76.7zM281.42 267.46v10.44c-6.12-6.5-11.24-15.44-15.16-26.61-.83-2.38-1.62-4.8-2.42-7.22-4.4-13.28-8.93-27-19.75-35.76-11.56-9.36-28.13-11.42-44.15-13.42-2.05-.26-4.1-.51-6.13-.78-25.98-3.45-42.06-11.63-49.2-25.03-4.95-9.3-4.8-20.02-4.65-30.38.19-12.3.38-23.93-8.13-31.5-9.34-8.3-24.31-7.13-38.78-6-1.7.14-3.4.27-5.06.4-18.67 1.28-40.08-4.65-43-20.7-1.44-7.87 2.24-14.84 5.78-21.59 2.04-3.86 3.97-7.54 4.95-11.32 2.07-7.78-.49-16.55-6.17-22.67h8.31a29.87 29.87 0 014.4 24.13C61.07 53.87 58.9 58 56.8 62c-3.24 6.14-6.27 11.93-5.2 17.87 2.23 12.24 20.15 16.64 35.87 15.56 1.64-.12 3.32-.25 5-.37 15.22-1.2 32.48-2.55 44 7.71 10.6 9.4 10.4 22.94 10.2 36-.14 9.65-.3 19.6 3.95 27.6 6.08 11.4 20.53 18.49 44.14 21.62 2 .27 4.04.53 6.07.78 17.02 2.12 34.6 4.3 47.67 14.9 12.26 9.94 17.1 24.5 21.74 38.59.8 2.4 1.6 4.78 2.4 7.14a80.35 80.35 0 008.77 18.05zM0 138.96c7.73 9.36 24.12 12.81 38.82 11.8 1.66-.12 3.36-.26 5.07-.4 14.46-1.13 29.43-2.3 38.77 6 8.51 7.57 8.33 19.2 8.14 31.5-.15 10.37-.3 21.08 4.65 30.39 7.13 13.39 23.22 21.58 49.2 25.02 2.03.27 4.08.53 6.13.78 16.02 2 32.58 4.07 44.15 13.43 10.81 8.76 15.35 22.48 19.75 35.75.8 2.42 1.59 4.85 2.42 7.22.76 2.19 1.58 4.27 2.42 6.3h7.26a95.71 95.71 0 01-3.29-8.18 585.1 585.1 0 01-2.4-7.14c-4.65-14.08-9.48-28.65-21.74-38.58-13.07-10.6-30.65-12.78-47.67-14.9-2.04-.26-4.07-.51-6.07-.78-23.62-3.14-38.06-10.23-44.15-21.64-4.23-7.98-4.08-17.93-3.95-27.58.2-13.07.41-26.6-10.19-36-11.52-10.26-28.78-8.92-44-7.72-1.68.12-3.36.25-5 .37-15.72 1.09-33.64-3.32-35.88-15.56-1.07-5.93 1.97-11.73 5.2-17.87 2.1-4 4.28-8.14 5.45-12.56C16.27 86.51 10.9 73.1 0 65.77v8.3c5.95 6.15 8.66 15.11 6.56 23.08-.98 3.78-2.92 7.46-4.95 11.33-.54 1.03-1.08 2.05-1.61 3.1zM124.49 306.74h-7.04c-.37-1.1-.73-2.22-1.1-3.34-4.4-13.27-8.94-26.99-19.75-35.75-11.56-9.36-28.13-11.43-44.15-13.43-2.05-.25-4.1-.5-6.13-.78C23.4 250.41 8.15 243.66 0 232.91v-16.87a32 32 0 003.14 9.67c6.08 11.4 20.53 18.5 44.14 21.63 2 .27 4.04.52 6.07.78 17.02 2.12 34.6 4.3 47.67 14.9 12.26 9.93 17.1 24.5 21.74 38.58.57 1.73 1.13 3.45 1.73 5.14z"/><path fill="#3f3d56" d="M381.44 25.32h281.42v281.42H381.44z"/><path fill="#11999e" d="M517.07 45.67a89.86 89.86 0 01-135.63 77.32V25.32h133.3a89.3 89.3 0 012.33 20.35z"/><circle cx="589.964" cy="101.61" r="54.25" fill="#11999e"/><circle cx="467.903" cy="216.891" r="38.992" fill="#11999e"/><path fill="#11999e" d="M662.86 260.63v46.11h-55.79a39 39 0 0155.8-46.11z"/><circle cx="566.23" cy="215.195" r="10.172" fill="#11999e"/><path fill="#3f3d56" d="M764.58 25.32H1046v281.42H764.58z"/><path fill="#11999e" d="M901.9 25.32V140.6H764.58v6.78h144.1V25.32zM1034.35 306.74l11.65-16.56V278.4l-19.94 28.34zm-47.3-121.35l-62.4 88.75 46.37 32.6h11.78l-48.7-34.24 54.6-77.67 57.3 40.3v-8.29zM883.25 174.15l-35.96 35.96 35.96 35.96 35.96-35.96zm-26.38 35.96l26.38-26.38 26.38 26.38-26.38 26.38z"/><circle cx="137.934" cy="25.543" r="25.543" fill="#f2f2f2"/><circle cx="532.579" cy="25.543" r="25.543" fill="#f2f2f2"/><circle cx="909.343" cy="25.543" r="25.543" fill="#f2f2f2"/><circle cx="506.397" cy="150.067" r="24.266" fill="#ffb8b8"/><path fill="#ffb8b8" d="M493.63 161.56s6.38 33.2 3.83 39.6 35.76-2.56 35.76-2.56-7.67-33.2-6.39-40.87-33.2 3.83-33.2 3.83zM451.48 276.5l2.55 34.49 12.68 54.16 3.93 14.8 6.38-22.98-6.38-52.37-2.17-23.57-17-4.52zM585.58 271.4v35.76s-3.83 45.98-11.5 57.47-10.21-45.98-10.21-45.98l6-42.14z"/><path fill="#2f2e41" d="M471.91 382.51s-6.38 7.66-1.27 85.57-2.56 134.1 14.04 134.1c0 0-5.1 16.6 8.95 17.88s20.43 2.56 21.7-1.27 3.84-21.71 0-21.71c0 0 0 5.1 2.56-15.33s2.56-117.5 8.94-130.27l20.44 47.25s0 21.72 3.83 31.93 10.22 68.97 10.22 68.97l-1.28 8.94s30.65 5.1 31.93 0 1.27-12.77 0-15.33-1.28-2.55 1.27-7.66 2.56-8.94 1.28-12.77-1.28-86.85-1.28-86.85-2.55-100.9-17.88-106-103.45 2.55-103.45 2.55z"/><path fill="#2f2e41" d="M488.52 609.85l-10.22 17.88s-15.97-5.75-12.77 8.94c27.46 1.91 46.61-.64 46.61-.64s6.39 2.55 7.67-1.28-3.2-17.24-7.03-17.24-24.26-7.66-24.26-7.66zM562.6 604.74s-10.23 22.99-6.4 24.26 38.32 6.4 40.88 7.67 15.32 2.55 16.6-5.11-6.39-10.22-6.39-10.22-14.05-2.55-17.88-15.32-26.82-1.28-26.82-1.28z"/><path fill="#8985a8" d="M535.77 194.77s-34.48-6.39-42.14 0-39.6 19.16-39.6 25.54 16.6 68.97 16.6 68.97-8.93 94.5 0 97.06 24.27-5.1 42.15 3.83 68.97-7.66 68.97-7.66-19.16-81.74-14.05-97.06 8.94-67.7 8.94-67.7-21.71-22.98-40.87-22.98z"/><path fill="#8985a8" d="M462.97 216.48l-8.94 2.55s-19.15 60.03-11.5 62.59 29.38 7.66 31.94 7.66-11.5-72.8-11.5-72.8zM556.2 210.1l20.44 7.66s26.82 49.8 20.44 56.2-34.49 12.76-34.49 12.76z"/><path fill="#2f2e41" d="M505.66 120.1a13.72 13.72 0 00-6.07.26 15.83 15.83 0 00-4.31 2.83 50.5 50.5 0 01-7.38 4.89c-2.07 1.12-4.3 2.16-5.74 4.02a12.21 12.21 0 00-1.62 3.07 36.74 36.74 0 00-1.93 20 9.2 9.2 0 00.85 2.74c1.33 2.45 4.26 3.41 6.73 4.7 4.69 2.43 8.24 6.52 12.09 10.15a23.63 23.63 0 004.77 3.68c5.5 2.99 12.2 2.01 18.36.96a3.3 3.3 0 003.3-3.34l4.86-21.87a35.67 35.67 0 001.25-9.94c-.34-5.31-3.22-12.66-7.11-16.43-4.54-4.4-12.12-5.1-18.05-5.73z"/><circle cx="341.31" cy="607.969" r="10.079" fill="#11999e"/><path fill="#2f2e41" d="M341.31 637.08a29.12 29.12 0 1129.12-29.11 29.15 29.15 0 01-29.12 29.11zm0-55.99a26.88 26.88 0 1026.88 26.88 26.9 26.9 0 00-26.88-26.88z"/><circle cx="831.742" cy="609.246" r="10.079" fill="#11999e"/><path fill="#2f2e41" d="M831.74 638.36a29.12 29.12 0 1129.12-29.11 29.15 29.15 0 01-29.12 29.11zm0-55.99a26.88 26.88 0 1026.88 26.88 26.9 26.9 0 00-26.88-26.88z"/><circle cx="831.742" cy="553.051" r="10.079" fill="#11999e"/><path fill="#2f2e41" d="M831.74 582.17a29.12 29.12 0 1129.12-29.12 29.15 29.15 0 01-29.12 29.12zm0-56a26.88 26.88 0 1026.88 26.88 26.9 26.9 0 00-26.88-26.88z"/></svg>